<svg xmlns="http://www.w3.org/2000/svg" viewBox="0 0 1280 1024"><defs><style>.cls-1,.cls-2,.cls-3,.cls-5,.cls-6{fill:none;stroke:#fff;stroke-miterlimit:10;}.cls-1{stroke-width:4px;}.cls-2{stroke-width:3px;}.cls-4{fill:#fff;}.cls-5{stroke-width:5px;}.cls-6{stroke-width:8px;}</style></defs><title>absorbed_data</title><g id="Layer_2" data-name="Layer 2"><path class="cls-1" d="M567.27,843.06c.07,3.75.56,10.34,1.69,10.91,4.93,2.47,20.95,3.7,22.18,1.23"/><path class="cls-1" d="M371.91,405.74c-18.91-.74-23.48,15.78-24.72,20.71S346,493,349.66,501.61s13.55,59.14,17.25,76.38S378,663,378,671.63s-4.92,43.12-3.69,55.44,2.46,133.06,4.93,135.53,22.17,3.69,25.87,1.23-1.23-78.85,2.46-86.25,8.63-59.13,11.09-67.76-1.23-25.87,2.47-28.33,22.17-6.16,37-4.93S557.87,684,564,684s13.56,3.7,13.56,7.39-6.16,57.91-6.16,67.76S571,788,571.06,797"/><path class="cls-2" d="M528.3,545.85c22.48,3.62,55.6,10,64,10"/><path class="cls-2" d="M486.41,453.17c.73,8,4.33,40.16,10.17,63.85"/><path class="cls-2" d="M455.5,377.5c10,2,19,3,24,7"/><path class="cls-2" d="M582.51,849c-12.32-7.39-22.17,0-18.48-23.41s40.66-151.54,25.88-171.25c-8.87-11.83-154-13.55-167.56-33.26s-24.26-123.58-28.57-146.37"/><path class="cls-1" d="M374.3,405.28c-6.16,7.39-13.55,48.05-12.32,55.44s.65,11.11,4.93,13.55c8.62,4.93,34.73-2.46,39.65-3.7s1.24-28.73,0-36.12"/><path class="cls-3" d="M382.5,383.5c-10-2.41-17.74-6.8-21.67-12.29A326.86,326.86,0,0,1,340,337.09"/><path class="cls-3" d="M404.51,209.2c17.8.7,37.37,4.47,42.72,8.65,17,13.26,18.55,40.17,21.78,53.25s14.64,21.35,17.38,32.43c3.23,13.08.17,43.32-6.9,53.07-8.76,12.08-16.45,18.9-50.75,26.93-12.86,3-28.19,3-41.88.19"/><path class="cls-3" d="M329.21,286c-.34-15.07-1-29.68,2-35.85,4.75-9.77,11.1-24.2,27.48-32.45,12.11-6.1,27.77-8.49,42.65-8.61"/><path class="cls-4" d="M406.17,267.23c-.44-3-6.13-1.33-8.86-.92-2.43.37-12.53,4.51-16.38,7-4.54,2.95-7.74,6.46-6.41,7s11.68-5.45,16.38-7C399.2,270.55,406.73,270.92,406.17,267.23Z"/><path class="cls-4" d="M426.6,262.25c-1.42-1.59.75-3.28,4.41-3.83a148.18,148.18,0,0,1,16-1.17c2.53.25,7.5.13,7.68,1.36s-8.52,1.3-13.4,2S428.1,263.91,426.6,262.25Z"/><path class="cls-3" d="M397.76,281.51c-11,1.66-15.28,2.06-13.43,14.24s12.57,16,20.67,13.06c5.91-2.14,13.7-8.31,12.22-18.05S411.16,279.48,397.76,281.51Z"/><path class="cls-3" d="M440.88,271.29c7-1.66,12.86-6.67,15.75,6.23,3.18,14.2-3.05,18.58-7.28,19.58-5.81,1.37-12.43,0-16-11.1C430.23,276.38,432.42,273.29,440.88,271.29Z"/><path class="cls-3" d="M420.29,302.76c2.06-2.81,9.37-6,12.84-5.69,5.06.48,10.67,4.61,10.38,10.89s-1.81,12.73-5.47,13.29-10.77,2.88-14.61,2.21"/><path class="cls-2" d="M493.81,452.17c0,12.32,3.38,33.13,4.69,42.33,1,7,6.07,20.23,11,19"/><path class="cls-5" d="M481.2,551.8c-6.16,4.93-16.8,10-34.05,14.87s-50.51,2.42-53.35-1c-6.16-7.39.21-63.85-8.41-92.18"/><path class="cls-4" d="M450.43,336.23c-3.52,2.36-25.08,8.13-33,6.61-2.4-.46-3.2,2-.6,2.66,3.57,1,10.48,3,15.19,1.58,8.34-2.56,16.5-6.23,19.86-9.57C452.67,336.69,454,333.88,450.43,336.23Z"/><path class="cls-2" d="M475.17,382c10.33,4.55,13.79,16,21.63,29.36,7.1,12.1,19.42,36.48,13.27,38.53-4.56,1.52-19.32,6.12-24.15,3.64"/><path class="cls-4" d="M593.18,858.83c9.09,0,28.65,2.14,33,3.33.17,8.73-1.58,35.7-3.38,38.71-.79.73-5.23,1.77-12.4,1.77-9.41,0-14.35-1.68-14.89-2.55-3.26-8.71-3.41-34-2.59-41.25h.3m0-2c-1.26,0-2,.07-2,.21-1.14,5-1.23,33.89,2.46,43.75,1,2.63,9.09,3.85,16.76,3.85,6.61,0,12.9-.91,14-2.62,2.47-3.7,4-34.9,3.7-41-.09-1.69-27.17-4.14-34.92-4.14Z"/><path class="cls-4" d="M878.56,856.49h0c1,2.93,1.8,11.36,1.64,22-.18,12.13-1.59,22-3.65,25.68-.43.58-3.66,1.8-10.93,1.8-8.44,0-15.16-1.56-16.19-2.66-.67-1.58-2.08-9.89-2.93-20.24-.93-11.4-.58-18.24.2-20.34,3.66-1.47,25.85-6.27,31.85-6.27m0-2c-6.52,0-32.65,5.66-33.38,6.85-3.19,5.27.6,38.89,2.48,42.91,1.07,2.29,10,3.75,18,3.75,6,0,11.57-.85,12.67-2.82,5.13-9.19,4.73-45,1.7-50.4-.11-.2-.62-.29-1.44-.29Z"/><path class="cls-1" d="M530.05,548.6c8.47-1.06,22.23-3.18,22.23-12.7s10.58-21.17-2.12-25.41S536.4,499.91,526.87,501c-13.67,1.52-27.63,8.76-27.63,15.11"/><path class="cls-4" d="M760.19,512.89c46.91,0,123.18,1.29,139.61,2.53,0,2.92-.36,9.19-2.51,22.54-2.12,13.18-5.24,29.2-8.27,44.69-4.52,23.18-8.42,43.19-8.42,50.79,0,2.95.21,10.74.5,21.53.74,27.41,2,73.29,1.91,114.6,0,22.84-.5,41.31-1.35,54.92-1.37,22-3.46,26-3.87,26.63s-3.61,4-21.81,6.17c-11.13,1.33-26.22,2-44.83,2-19.16,0-38.29-.69-52.26-1.2-7.79-.28-13.95-.5-17.44-.5-3.26,0-9.42.13-17.22.3-14.6.31-36.68.79-58.58.79-21.44,0-38.88-.46-51.85-1.37-20.59-1.43-25.44-3.73-26.35-4.31-1-2.25-3.45-13.8.51-72.33,2.54-37.46,6.67-80.38,9.68-111.72,2.25-23.42,3.43-35.8,3.43-39.22,0-3.57-.36-12.21-.85-24.18-.67-16-1.57-38-1.93-56.52-.42-22.4.16-31,.62-34.24,6.13-.77,24.24-1.16,54-1.16,8.75,0,17.73,0,26.42.06,8.17,0,15.89,0,23,0,16.55,0,25.44-.14,29.71-.46,2.45-.18,9.34-.4,28.23-.4m0-5c-14.15,0-24.74.12-28.6.41-4.7.35-15.62.45-29.34.45-14.64,0-32.48-.11-49.38-.11-30,0-57,.33-58,2.13-4.42,7.7,1.24,105.42,1.24,119s-23.41,215.61-12.32,226.7c5.87,5.86,44.2,7.25,81.9,7.25,33.51,0,66.52-1.09,75.8-1.09,9.46,0,39.64,1.7,69.7,1.7,32.57,0,65-2,70.75-10.33,11.09-16,3.7-203.29,3.7-220.53S909.1,520.33,904.08,511c-.84-1.56-94.27-3.11-143.89-3.11Z"/><path class="cls-4" d="M506.81,514.85c3.1,0,4.82,1.15,7.94,3.25a49.8,49.8,0,0,0,13,6.63c3.56,1.18,3.7,2.61,3.78,3.38.2,2-.84,5.14-1.84,8.14-1.21,3.63-2.46,7.38-2.46,11.24,0,6.06-10.55,8.16-19.73,9.31a20.87,20.87,0,0,1-2.42.14c-5.08,0-10.8-1.75-16.34-3.45-2.45-.75-5-1.53-7.44-2.14-4-1-4-8.31-3.72-15.7.06-1.32.11-2.56.11-3.65,0-3.14,13.34-15.48,27.43-17a16.38,16.38,0,0,1,1.66-.1m0-4a17.67,17.67,0,0,0-2.11.13c-14.29,1.58-31,14.38-31,21s-2.21,21,6.64,23.23c7.9,2,16.67,5.71,24.75,5.71a23.2,23.2,0,0,0,2.91-.18c8.86-1.1,23.24-3.31,23.24-13.27s11.06-22.13-2.21-26.56c-12.28-4.09-14.15-10.08-22.24-10.08Z"/><path class="cls-4" d="M795.66,438c.8,4.86,2.46,41.53,0,44s-14.17,3.08-17.25,0c-1.85-1.85,0-41.53,1.23-45.23S795,434,795.66,438Z"/><path class="cls-4" d="M857.13,486.55c32.94,0,44.07.86,47.81,1.46a59.33,59.33,0,0,1,1.32,10.36,38.87,38.87,0,0,1-.45,9.63c-3.46.28-13.18.64-40.31.64-29.06,0-66.2-.4-90.78-.66-12.16-.13-21-.23-24.38-.23-1.26,0-1.57,0-1.77,0-2.93.18-81.32,2.45-127.58,2.45-22.26,0-29.53-.53-31.89-.86-.53-1.26-1.22-4.29-1.13-9.11a32.67,32.67,0,0,1,1.25-9.11C605.94,489.2,732.71,488,751.3,488c2.54,0,9.39-.14,18.87-.32,21.41-.41,57.26-1.1,87-1.1m0-5c-42.76,0-97.65,1.42-105.83,1.42-13.55,0-161.39,1.23-165.09,3.69s-4.93,23.41,0,27.11c1.43,1.07,15.49,1.46,34.78,1.46,47,0,125.3-2.29,127.89-2.46.17,0,.67,0,1.46,0,10.38,0,71.84.89,115.16.89,23.88,0,42.25-.27,43.5-1.1,3.7-2.47,2.47-22.18,0-28.34-.81-2-23.71-2.65-51.87-2.65Z"/><path class="cls-6" d="M834.65,162.5c-4.46-5.81-28.16-6.31-31.21.71S760.77,419.79,768.3,429.6,804.8,440,806.7,433,842.17,172.3,834.65,162.5Z"/><path class="cls-4" d="M403.65,286.18c-3.09.47-6.61,3.37-6.14,6.46.37,2.45,3.38,6.61,6.47,6.14s5.48-5.58,5.24-7.12c-.11-.76-2.26-2-3.21-3.2S405.22,285.94,403.65,286.18Z"/><path class="cls-4" d="M446.85,276.81c-2.62.62-5.47,3.24-4.89,5.7.46,1.94,3.28,5.07,5.9,4.45s4.38-4.93,4.09-6.16c-.15-.62-.49.05-1.4-.87S448.16,276.5,446.85,276.81Z"/><path class="cls-4" d="M334.07,307.6c-4.72.82-6,2.67-5.2,7.39.25,1.41.8,4.72,7.11,3.62"/><path class="cls-4" d="M391.66,209.5l.64-.06Z"/><path class="cls-4" d="M386.26,210.06l1.29-.15Z"/><path class="cls-4" d="M394.48,209.3l.95-.05Z"/><path class="cls-4" d="M377,211.73l1.65-.37Z"/><path class="cls-4" d="M397.59,209.16l1,0Z"/><path class="cls-4" d="M383.13,210.52l1.56-.23Z"/><path class="cls-4" d="M380,211.07l1.62-.29Z"/><path class="cls-4" d="M400.74,209.09h0Z"/><path class="cls-4" d="M364.43,215.86c.87-.39,1.77-.76,2.68-1.12C366.2,215.1,365.3,215.47,364.43,215.86Z"/><path class="cls-4" d="M374,212.49l1.67-.44Z"/><path class="cls-4" d="M513.18,326c-.75-7-11.94-42.52-14.53-55.27-2.13-10.44-21.9-66.32-31.84-78.28-9.65-11.61-27.48-25.49-41.33-27.57-3.54-.54-9.61-.32-16.86.39,11.81,9.82,11.22,31.91-.48,43.92h0c19.57,1.08,37.11,5.91,42.69,10.68,16.35,14,16.73,41,19.37,54.18s13.67,22,15.91,33.17c2.64,13.22-1.77,43.29-9.28,52.72-9.29,11.66-17.28,18.13-51.9,24.62-14,2.61-42.88-2.43-42.88-2.43,2.84,16.57,4,29.18,1.6,32-.77.91-3.15,1.95-6.67,3.07,26.55-5.49,49.69-11.1,56.53-12.95,14.46-3.9,85.62-22.09,87.33-29.38S513.92,333,513.18,326Z"/><path class="cls-4" d="M368,214.4c.61-.22,1.22-.45,1.85-.66C369.25,214,368.64,214.18,368,214.4Z"/><path class="cls-4" d="M293,431.94a62.49,62.49,0,0,0,18.89-1.44c1.56-.38,6.27-1.38,13-2.78C311.49,429.86,299.32,431.48,293,431.94Z"/><path class="cls-4" d="M371,213.37l1.71-.53Z"/><path class="cls-4" d="M403.79,163.78c-14-9.16-34.72,3.11-52.48,10.91s-35,40.4-41.16,49.92c-7.46,11.45-23.76,72.73-25.87,83.22-2.44,12.1-6.53,67-3.44,84.39,1.69,9.56,6.42,37.2,6.67,39.54s87.64-11.22,93.14-17.72c2.41-2.84,1.24-15.45-1.6-32-9.78-2.86-16.78-7.15-20.42-12.76A341.08,341.08,0,0,1,338.32,333c-1.85,3.58-6.15,6-11.46,4.37-6.7-2.1-11.24-24.41-14.81-33.44s5.36-20.74,10.25-22.05c1.83-.5,4.73.08,7.53,1.25.37-14.63,1.53-30.27,4.69-36.08,5.18-9.55,12.18-23.68,28.91-31.18,13.13-5.89,26.07-7.61,41.71-6.74C417.41,196.47,417.48,172.76,403.79,163.78Z"/></g><g id="Layer_3" data-name="Layer 3"><path class="cls-4" d="M478.7,469.94l-3.76-32.53a5.44,5.44,0,0,0-2.1-3.75c-1.29-1-6.07-5-7.15-5.66a6.13,6.13,0,0,0-4.54-1.06l-20.37,2.36a5.73,5.73,0,0,0-5.15,6.51c.38,3.28.66,5.75.66,5.75s-6.74.72-9.76,1.07a6,6,0,0,0-5.14,6.48l4.49,38.73a5.88,5.88,0,0,0,6.55,5.19l27-3.13a5.65,5.65,0,0,0,5-6.32c-.33-2.8-.69-5.92-.69-5.92s6.56-.84,9.77-1.21A5.84,5.84,0,0,0,478.7,469.94ZM462,430.74c.74.58,9.13,7.09,9.17,7.44s.4,3.46.4,3.46L459.92,443l-1.37-11.85Zm-1.62,55.15-29.92,3.46c-.5.06-.76-.07-.83-.65s-4.73-40.85-4.77-41.17a.75.75,0,0,1,.62-.78l11.23-1.26s3,26.13,3.37,29.09a5.77,5.77,0,0,0,6.32,5L460,478s.81,7,.84,7.32A.43.43,0,0,1,460.42,485.89Zm14.11-13.29-29.76,3.45a.7.7,0,0,1-.82-.66c-.05-.41-4.77-41.17-4.81-41.5a.67.67,0,0,1,.54-.69l14.94-1.6,1.46,12.66a2.79,2.79,0,0,0,3.12,2.47L472,445.24s3,26.13,3.09,26.63A.6.6,0,0,1,474.53,472.6Z"/></g></svg>