<svg xmlns="http://www.w3.org/2000/svg" viewBox="0 0 1280 1024"><defs><style>.cls-1,.cls-2,.cls-4,.cls-5,.cls-7{fill:none;}.cls-1,.cls-2,.cls-4,.cls-5,.cls-6,.cls-7{stroke:#fff;stroke-miterlimit:10;}.cls-1{stroke-width:5px;}.cls-2{stroke-width:4px;}.cls-3,.cls-6{fill:#fff;}.cls-4,.cls-5{stroke-width:6px;}.cls-5{stroke-linecap:square;}.cls-7{stroke-width:3px;}</style></defs><title>face-palm</title><g id="Layer_4" data-name="Layer 4"><path class="cls-1" d="M831.75,548.47,860,548"/><path class="cls-1" d="M784.94,549.27c5.87-.09,7.78-.16,11.71-.22"/><polyline class="cls-1" points="643.63 851.37 603.73 851.52 605.07 735.67"/><line class="cls-1" x1="720.37" y1="851.07" x2="710.88" y2="851.12"/><line class="cls-1" x1="849" y1="850.59" x2="782.5" y2="850.84"/><line class="cls-1" x1="921" y1="850.3" x2="872.67" y2="850.51"/><line class="cls-1" x1="1044.82" y1="849.85" x2="947.41" y2="850.22"/><path class="cls-2" d="M1065.84,574.15l17.91,0-3.48,24.22h-15.43"/><path class="cls-2" d="M742.67,574.46c44.38-.07,90.27-.14,116-.14"/><line class="cls-2" x1="905" y1="598.38" x2="740.67" y2="598.43"/><path class="cls-3" d="M610.69,853.55c6.37-.58,9.85-.58,9.85-.58h20s-2,16.53-4.34,17.69-20.29,3.76-22,.29S610.69,853.55,610.69,853.55Z"/><path class="cls-3" d="M1046.08,870.43c-6,.75-13.42,1-14.5-1.22-1.74-3.48-3.48-17.4-3.48-17.4,6.38-.58,9.85-.58,9.85-.58h6.88"/><path class="cls-3" d="M980.7,208.45c-6.08-2.61-94.76-7-156.52-7-24.35,0-131.31,8.7-144.36,13.92s-9.56,8.69-10.43,17.39c-.2,1.94-.39,13.37-.56,30a65.06,65.06,0,0,1,6.76.77c.15-14,.32-23.4.49-25.1.83-8.27-2.48-11.57,9.92-16.53s114.07-13.23,137.22-13.23c58.71,0,143,4.14,148.78,6.62,4,1.71,7.63,6.22,9.74,11.85a94,94,0,0,1,10.72-.82C990.91,218,986.16,210.79,980.7,208.45Z"/><path class="cls-3" d="M762.83,474.41c24.39,1.45,48.39,2.46,62.22,2.75,9.68.2,31.13-1.43,54.29-3.73L885,466.5c-26,2.5-50.76,4.5-61,4.29-14-.3-39.11-1.38-63.88-2.9"/></g><g id="pbcopy"><path class="cls-3" d="M815,870.34c1.7,0,3.59,0,5.59.11,2.31.07,4.94.14,7.67.14,5.55,0,17.08,0,19.77,5.91,1.6,3.52,1.19,9-1,13.22-1.26,2.47-3,4.14-4.55,4.45a31.79,31.79,0,0,1-5.65.39c-10.68,0-24.41-2.44-27.72-4.91-3.85-2.9-3.71-6.47-3-15l.08-1c.15-1.86.28-3.33,8.8-3.33m0-4c-7.55,0-12.29,1-12.79,7-.75,9-1.5,15,4.5,19.51,4.75,3.56,20.17,5.71,30.12,5.71a35.47,35.47,0,0,0,6.43-.46c7.5-1.5,12.16-15,8.41-23.26s-16.66-8.25-23.41-8.25c-5,0-9.49-.25-13.26-.25Z"/><path class="cls-2" d="M920,862.71a68.12,68.12,0,0,0-10.69-.62c-15,0-25.3-2.25-26,6.75s-1.5,15,4.5,19.5c5.19,3.9,23.16,6.11,32.76,5.66"/><path class="cls-4" d="M840.23,761.58c-1.5,22.5-4.5,83.51-2.25,107.51"/><path class="cls-1" d="M882.25,577.72c1.31,23.48-4.78,45.17-12.6,54.3-4.49,5.24-21.86,6.61-35.86,6.83"/><path class="cls-5" d="M917.18,767.33c-.75,8.25-5,59.76-2.6,93.78"/><path class="cls-2" d="M853.47,716.92l-4.12-1.49-.65-19.57,75.66,26.53s5.65-248.71,9.13-254.8c7.14-12.5,58.7-16.52,68.7-18.26s45.22-3.91,51.3-3.48,14.79,2.61,17,5.22,7,12.61,5.65,13.91c0,0-6.95,37-6.52,43.48s-5.65,115.23-5.22,121.31.87,52.18.87,55.66,4.35,138.7,4.35,145.22,6.52,101.75,6.52,103.05-20.87,1.31-22.61.87-9.56-94.79-9.56-96.52-.87-97-.87-97.84-88.27,1.74-90.88,2.61-5.65,69.14-5.65,71.75S947,842.39,947,845s4.78,90,4.78,90H923.92s-3-88.27-3-90,2.17-102.18,2.17-102.18l-50.87-18.91-.5-.18"/><polyline class="cls-2" points="853.07 716.9 852.61 716.74 851.74 897.18 872.18 897.18 872.18 723.69 872.98 723.35"/><path class="cls-3" d="M1045.09,318.75c1.3,11.73,4.49,20.45,10.87,121.47,0,.88-3.28,2.75-3.34,1.59C1047.92,346.72,1045.09,318.75,1045.09,318.75Z"/><path class="cls-6" d="M1060.45,295.27c3.48,17.39,11,51.45,17.25,129.22.07.88-1.5,1.88-1.6.73C1068.07,326.73,1060.45,295.27,1060.45,295.27Z"/><path class="cls-3" d="M910.5,288c-4.59,33.54-6.37,52.86-4.32,152.53a.8.8,0,0,0,1.6-.14C904.44,324.88,910.5,288,910.5,288Z"/><path class="cls-3" d="M821.72,623.87c4.22,0,7.95,1.48,9.28,3.69,1.5,2.49,2.21,7.85.59,12.87-.75,2.31-2.26,5.33-5.26,6.61a22.09,22.09,0,0,1-9.14,1.83c-2,0-4-.18-6.13-.38-2.48-.23-5-.47-7.94-.47-1.37,0-1.64-.39-1.74-.54-.78-1.13-1.24-5.35,2-14.06,2.72-7.28,6.36-7.85,11.86-8.7,1-.15,2-.31,3-.51a17.21,17.21,0,0,1,3.46-.34m0-4a22.34,22.34,0,0,0-4.25.41c-6.52,1.31-13.69.68-17.82,11.74-3,8.14-5.66,20,3.47,20,5.22,0,9.59.85,14.07.85a26.25,26.25,0,0,0,10.72-2.15c9.13-3.92,10.43-18.7,6.52-25.22-2.24-3.74-7.43-5.63-12.71-5.63Z"/><path class="cls-1" d="M925.14,716.44,906.6,711.9c6.41.87,12.82,1.71,18.51,2.44m-54.38,50c2.53.11,4.75.2,6.52.26,8,.31,26.66.29,43.51-.49m144.33-210.82c4.46.79,12.32.14,15.36-.58,2.82-.67,8.12-7,9.86-9.28s-3.19-65.8-3.19-69.27-3.19-12.61-6.09-17.69c-3.92-6.86-16.13-14.84-21.29-17.58-20.92,9.7-48.66,11.13-72.8,12.28-32.34,1.54-53.4-1.55-65.89-4.26-7.72,2.9-15.39,5.94-15.39,5.94-6.38,2.9-19.13,13.48-21.45,17s-13.91,13-16.23,29.85-13.05,65.51-10.15,70.15,11.31,8.7,19.42,8.7,27.54-1.16,31-8.7l2-32.17c-.58,9.85-1.45,55.94-5.51,65.8s-8.12,39.71-15.65,43.77-44.93.87-53,9-43.48,85.22-31.88,95.66c7.67,6.9,30.56,10,49.55,11.47"/><path class="cls-3" d="M994.23,226.37v5c15.6,0,31.11,4.06,43.67,11.42,13,7.65,22,18.18,25.79,30.46,5.25,16.85,12.4,49.77,15.9,80.09,4.17,36.12,2.27,61.38-5.21,69.3-19.11,20.23-57.13,22-87.68,23.5-5.64.27-11.2.4-16.53.4-31.86,0-49.89-4.84-57.59-6.91-1.64-.44-2.82-.76-3.81-1-2.93-.58-4.55-6.53-5.63-11.64-1.41-6.63-4.06-32.25-3.82-61.41.21-25.75,2.78-61.32,13.79-84.55,8.77-18.53,27.46-42,66.69-48.52a88.45,88.45,0,0,1,14.43-1.18v-5m0,0A92.83,92.83,0,0,0,979,227.62c-43,7.16-61.94,33.46-70.39,51.3-21.48,45.34-13.13,136-10.34,149.15,1.48,7,3.58,14.31,9.54,15.51,5.26,1.05,23.78,8,62.38,8,5.22,0,10.8-.12,16.77-.41,32.2-1.53,70.79-3.58,91.07-25.05s.34-122.58-9.54-154.31c-8.8-28.26-41.24-45.4-74.24-45.4Z"/></g><g id="pbpaste"><path class="cls-2" d="M676.6,875.77c-13.49,1.71-25.89,1.88-31-4.25-6.72-8.07,5.8-94.2,7.39-132.79"/><path class="cls-2" d="M763.58,872.78c-16,4.7-41.2,5.78-42.32-4.73-2.61-24.35.87-98.27.87-109.57,0-6.9,2.57-18.35,1.23-28.14"/><path class="cls-7" d="M742.13,649.78c20-1.43,34.49-2,40.58,8.4s5.12,82.3.77,97.08"/><path class="cls-3" d="M860,475.15c-15.27,1.34-28,2.15-35,2-6.72-.14-15.84-.45-26.24-.9-1.65,21.95-2.18,47-.56,61.89,3-4.45,10.35-6.09,16.69-4.83,6.52,1.31,13.69.68,17.82,11.74a58.86,58.86,0,0,1,1.81,5.67c6.54-.22,12.66-.55,17-1.07C859.06,548.76,861.61,508.77,860,475.15Z"/><path class="cls-2" d="M788.33,540.71c3.29,4,4.43,7.07,9.56,8.78"/><path class="cls-1" d="M782.81,708.91s.19-16.52.19-25.22-40.87,16.52-42.61,3.48,7.83-176.53,7-194.79-13.05-22.61-20.87-31.31-57.4-10.43-84.36-9.56-91.3,10.43-93,20S536,488.9,539.51,495s2.61,152.18.87,187S543,922,543,922h29.57s4.34-180,7-182.62,92.18-4.34,94.79-.86S676,923.7,676,923.7h36.52l-.87-187.83,26.09-12.18L762,715.52"/><polyline class="cls-7" points="782.81 707.75 783.43 892.83 763 895 762.02 714.13"/><path class="cls-2" d="M470.55,379c-1.22,17.87-1.76,32.7-1.48,39.47.87,20.87,60.87,21.74,67,.87s5.22-90.44,9.57-113c4-21.09,12.17-25.22,28.69-24.35,10.9.58,16.12,4.17,20.66,8.06.46-7.35,14-23.24,22.5-24.86-3.53-4.85-8-9.57-16.2-15.37-14.78-10.44-30.43-19.13-43.48-20-14.75-1-30.18,3.14-43.24,10.89"/><path class="cls-3" d="M751.41,238.88a80.63,80.63,0,0,1,11.87.92c14.21,2.13,26.65,7.33,36,15,10.86,9,17.52,21.22,19.8,36.4,5,33.47,9.52,121.89,9.52,139.41,0,4.67-15.92,11.82-35.54,11.82-12.16,0-25.16-3.1-25.16-11.82,0-4.29.1-10.48.22-17.64.83-49.3,1-98.52-6.9-111.4-8.5-13.93-23.87-25.26-34.26-25.26a11.05,11.05,0,0,0-7.42,2.58c-1.87-3.29-5-6.44-9.47-9.4a60.29,60.29,0,0,0-8.33-4.6c6.71-7.69,12.84-13.41,18.29-17,9-6,19.51-9,31.41-9m0-4c-12.45,0-23.78,3.09-33.63,9.66-8.22,5.48-16.43,14.4-22.69,22,6.68,2.3,19.88,8.78,22.11,17.13a9.31,9.31,0,0,1,.3,2.22c1.33-1.11,2.83-2.39,4.63-4a7.09,7.09,0,0,1,4.8-1.6c8.72,0,23,10.5,30.85,23.34,9.57,15.66,6.09,101.75,6.09,127,0,11.34,13.88,15.82,29.16,15.82,18.72,0,39.54-6.72,39.54-15.82,0-16.52-4.35-105.22-9.57-140S791.39,240,763.87,235.84a83.9,83.9,0,0,0-12.46-1Z"/><path class="cls-3" d="M500.74,316.86c-4.14,37.39-3.42,43.65-5.87,115.46,0,1.3,3,1.4,3,.73"/><path class="cls-3" d="M807.62,332c-.25,35.82.65,41.68,3.84,109.92,0,1.24,2.12,1,2,.41"/><path class="cls-3" d="M817.34,364.27c.45,24.75.93,28.79,3.35,75.91,0,.85.93.68.88.25"/><path class="cls-3" d="M772.84,360.08c-1.29,26.05-.82,30.34-.64,80.09,0,.9,1.49.81,1.45.35"/><path class="cls-7" d="M617.49,265.12c8.57-1.61,10.72,5.22,10.72,12.46,0,10.44-9.7,17.51-18.84,19.72-8.41,2-11.89.58-14.2-5.51S608.21,266.86,617.49,265.12Z"/><path class="cls-2" d="M745.13,543.68c4.35,3.48,23.09,15.66,32.65,11.31s17.39-24.35,21.74-41.74S779.94,501,770.83,482.81c-8.7-17.39-12.18-26.09-20.87-37.39-19.28-25.05-24.35-20-37.4-28.7a61.06,61.06,0,0,0-13-6.28c-13.2,10.33-29.82,17.94-47,17.57s-34-5.52-47.06-14.4c-2.6.87-4.92,1.65-6.86,2.24-11.3,3.48-35,25.87-43.74,48.48"/><path class="cls-7" d="M717.2,283.67c2.38,8.93-9.86,14.5-15.36,12.18-6.26-2.64-14-8.73-17.4-14.79-3.76-6.66,3.48-16.81,9.86-14.78S714.88,275,717.2,283.67Z"/><path class="cls-3" d="M765.28,474.56c23.53,1.37,46.4,2.32,59.77,2.6,9.68.2,31.13-1.43,54.29-3.73L885,466.5c-26,2.5-50.76,4.5-61,4.29-13.4-.28-36.85-1.28-60.5-2.69"/><path class="cls-3" d="M980.7,208.45c-6.08-2.61-94.76-7-156.52-7-24.35,0-131.31,8.7-144.36,13.92s-9.56,8.69-10.43,17.39c-.2,1.94-.39,13.37-.56,30a65.06,65.06,0,0,1,6.76.77c.15-14,.32-23.4.49-25.1.83-8.27-2.48-11.57,9.92-16.53s114.07-13.23,137.22-13.23c58.71,0,143,4.14,148.78,6.62,4,1.71,7.63,6.22,9.74,11.85a94,94,0,0,1,10.72-.82C990.91,218,986.16,210.79,980.7,208.45Z"/><path class="cls-3" d="M664.73,266.71a58.78,58.78,0,0,1,16.86,2.39c-2.69,4.59-2.77,10.13-.63,13.93,4.08,7.21,12.81,13.76,19.32,16.5a11.53,11.53,0,0,0,4.5.84A18.72,18.72,0,0,0,718,294.59c9.48,15.1,7.35,45.52,6,64.35-.27,3.87-.53,7.53-.66,10.59-.39,9.1-9.08,22.7-21.61,33.86C687,416.5,669.51,424,653.74,424l-1.1,0c-21.61-.45-42.22-8.78-55.12-22.28-9.48-9.92-14.32-22.08-14-35.17.65-27.34,1.27-53.4,9.8-69.57,1.83,2.76,4.82,5.17,10.1,5.17a29.62,29.62,0,0,0,6.9-1c10.55-2.54,21.9-11,21.9-23.6a27.92,27.92,0,0,0-.84-7.2c7.56-1.86,16.9-3,30.08-3.59,1.1-.05,2.2-.08,3.28-.08m0-4c-1.16,0-2.32,0-3.47.08-15.7.75-26.55,2.2-35.4,5,1.76,2.41,2.35,6.05,2.35,9.81,0,10.44-9.7,17.51-18.84,19.72a26.3,26.3,0,0,1-6,.86c-4.3,0-6.57-2-8.24-6.37-.49-1.29-.19-3.14.67-5.28-14.68,15.53-15.51,45.58-16.33,79.95-.87,36.45,34.79,60.74,73,61.55l1.18,0c37.81,0,72.74-38.29,73.61-58.33.86-20.25,7.1-64.92-9.57-81.8l-.43-.43c-1.08,5.43-7.66,8.9-12.57,8.9a7.71,7.71,0,0,1-2.94-.52c-6.26-2.64-14-8.73-17.4-14.79-2.63-4.66.12-11,4.19-13.72a62.26,62.26,0,0,0-23.9-4.63Z"/><path class="cls-3" d="M810.69,535.91h0a19.32,19.32,0,0,1,3.66.35c1,.2,2,.36,3,.51,5.43.84,9.72,1.51,12.64,9.34,3.17,8.5,3.06,13.31,1.9,15-.18.26-.67,1-2.57,1-2.84,0-5.38.24-7.84.46-2.16.2-4.2.39-6.23.39a23.16,23.16,0,0,1-9.53-1.91c-3.34-1.43-5-4.72-5.81-7.22-1.51-4.65-1.21-10.54.68-13.7,1.53-2.53,5.5-4.17,10.14-4.17m0-3c-5.29,0-10.47,1.89-12.71,5.63-3.91,6.52-2.61,21.3,6.52,25.22a26.24,26.24,0,0,0,10.71,2.15c4.49,0,8.86-.85,14.07-.85,9.14,0,6.52-11.86,3.48-20-4.13-11.06-11.3-10.43-17.82-11.74a22.34,22.34,0,0,0-4.25-.41Z"/></g><g id="Layer_6" data-name="Layer 6"><path class="cls-3" d="M316.21,912.39v5h0c7.07,0,12.57,1.92,16.36,5.72,4,4,8.46,17.44,3.57,27.22-5.55,11.1-22.33,24.47-36.48,25.76-2.8.25-5.55.38-8.17.38-12.4,0-21.41-2.81-24.74-7.71-7-10.26-12.52-22.46-9.23-26.57,4.78-6,28.53-17.66,38.17-20.88,2.91-1,11.77-3.92,20.52-3.92v-5m0,0c-8.66,0-17.18,2.54-22.1,4.18-9,3-34.5,15-40.5,22.5s2.59,23,9,32.5c4.71,6.93,15.88,9.9,28.88,9.9,2.8,0,5.69-.14,8.62-.4,16.5-1.5,34.5-16.5,40.5-28.5s.8-27.7-4.5-33-12.72-7.18-19.9-7.18Z"/><path class="cls-3" d="M421.11,922.07c5.46,0,13.15.53,24.24,4.68,2,.76,4.08,1.51,6.17,2.27,14.79,5.41,33.2,12.13,35.23,20.26a69.09,69.09,0,0,1,1.55,20.22c-.62,8.3-2.74,11.66-3.77,12.28-6.56,3.94-19.15,6.79-24.43,6.79-2.12,0-13.89-2-26.09-5.78-20.58-6.34-23-11.42-23.22-12-1.84-4.9-3.26-14.17-3.62-23.61-.42-11.16.8-17,1.46-18.16,2.41-3.17,8.48-7,12.48-7m0-5c-6,0-13.44,4.93-16.5,9-4,5.36-3,34.5,1.5,46.5s48,21,54,21,19.5-3,27-7.5,7.5-26,4.5-38-26-19.09-44.5-26c-11.77-4.4-20-5-26-5Z"/><path class="cls-1" d="M316.11,915.57c4.5-15,3-95-1.5-146"/><path class="cls-1" d="M403.11,765.08c0,16.5-1.5,66.49,1.5,78.49s12.56,68.76,17.06,77.76"/><path class="cls-2" d="M412,399c5,13,10,84,16,96s7.74,17,9.29,20.34"/><path class="cls-2" d="M379,379c9,7,66,44,74,43s27.67-99,27.33-129"/><path class="cls-1" d="M379,302c9.61,14,25,45,28,63,.42,2.51-14.72,7.2-25.83,14.27C368.79,387.17,359,397.36,359,400c0,5-24-17-29-34s-7-26-6-40"/><g id="left_hand"><path class="cls-3" d="M448.92,514c3.43,0,8.05,2,13.35,5.81a80.45,80.45,0,0,1,13,11.88c5.88,6.71,10.39,21.37,13.09,30.14.81,2.64,1.51,4.92,2.1,6.53a5.58,5.58,0,0,1-.67,5.22,6.19,6.19,0,0,1-4.86,2.67l-.48,0-2.61-.29-.6,2.57a8.18,8.18,0,0,1-3.57,4.61c-2.57,1.46-6.84,1.85-8.74,1.85l-2.63,0-.37,2.61c-.18,1.31-.91,3.54-1.77,4.22a11.24,11.24,0,0,1-4.35,1.37,1.51,1.51,0,0,1-.42,0h0l-5.54-2.49,1.33,5.68a6.43,6.43,0,0,1-1.91,1.7l-.21.13-.2.16a8.18,8.18,0,0,1-3.33,1.32,4.18,4.18,0,0,1-.61.05c-4.66,0-10.55-7.86-13.06-11.22l-.57-.76c-2-2.58-2.6-5-3.5-8.22-.47-1.74-1-3.71-1.83-6-1.08-3-1.18-4-1.06-4.39s1.86-1.52,2.59-2a1.49,1.49,0,0,1,.81-.22,6.8,6.8,0,0,1,3.67,1.86l4.29-4.2c-.14-.15-3.34-3.55-5.59-5.84a11.75,11.75,0,0,1-2-4.22,29.24,29.24,0,0,0-4.88-9.46c-2.72-3.4-1.58-8.73-.37-14.38.36-1.69.73-3.44,1-5.15.59-3.81,4.47-5.51,11.27-8.2,2.14-.84,4.34-1.71,6.6-2.77a6.23,6.23,0,0,1,2.7-.55m0-3a9.17,9.17,0,0,0-4,.84c-9.11,4.27-18.4,5.75-19.55,13.23s-4.6,16.1,0,21.85,4.2,11,7.11,13.92c2.25,2.29,5.54,5.78,5.54,5.78s-2.77-2.71-5.77-2.71a4.48,4.48,0,0,0-2.39.67c-4.33,2.69-5.07,3.62-2.77,10s2.29,10.36,5.75,14.95c3,3.93,9.49,13.17,16,13.17a6.8,6.8,0,0,0,1.1-.09,10.78,10.78,0,0,0,4.76-2s3.95-2.29,3.37-4.74a4.23,4.23,0,0,0,1.66.3,13.85,13.85,0,0,0,6.1-1.93c2.37-1.75,3-6.25,3-6.25h0c.48,0,6.36,0,10.21-2.25a11,11,0,0,0,5-6.5,6.79,6.79,0,0,0,.78,0c5.48,0,10.62-5.71,8.35-11.91-2.58-7.07-7.7-28.43-15.75-37.63-7-8-19.47-18.71-28.58-18.71Z"/><path class="cls-7" d="M446.12,553.62c-2.12-2.12-5.66-1.42-7.74,0-2.38,1.63-1.38,7.76-1.26,9.88s.76,6.62,2,7.88,3.71,8.12,5.76,9.87A85.27,85.27,0,0,1,452.5,590c1.5,2.12,4.46,5.71,6.33,5.58"/><path class="cls-7" d="M481.33,558.38C476.38,552,473.62,545.25,471,543c-2.34-2-4.64-3-8-1.66-2.25.87-4.28,2.11-4.38,4.74-.12,3.5,6.15,12,7,14.5.76,2.17,4.69,7.43,7.38,10.26,2.38,2.5,6.08,8.09,11.87,8"/><path class="cls-7" d="M460.62,552c-1.75-2.63-6.37-6.38-10.62-3.88a7.3,7.3,0,0,0-2.33,10.55c2.58,3.83,6.33,14.33,10.33,18s6.42,9.66,10.88,11.33"/><path class="cls-7" d="M458.12,540.62C461.36,550.86,474,573,480,568s4-15,0-21-6.88-18.44-6.88-18.44"/></g><g id="right_hand"><path class="cls-2" d="M494.87,185c.07-1.77.92-3.49,3.8-3.7,4.66-.33,6,3.67,7,5.67s2.66,8.33,4,12.33,3,19.67,3,22,1,7,.66,9.67S511,239,511,245s-3,16.33-3,21.33-4.33,14-7,17.67-15,8.35-20.67,9c-8.66,1-18,0-22-7.67s-.66-18-2.66-24.66-7.34-9.34-10.67-13-7.83-6.91-11.33-13.67c-4.84-9.33-6-16.33,0-20.33,2.63-1.76,10.5,1.33,13,6.66a25.34,25.34,0,0,0,7,9.34c2.66,2,9.69,8.05,7.66,4-1.66-3.34-.66-8.67-.66-10.67a141.22,141.22,0,0,0-2.34-15c-1-4.33-3.08-10.25-3.08-10.25A67.29,67.29,0,0,0,452,186.67c-2.33-6-1-8.23,3-9.67,2.7-1,4.86-1.24,6.61.42a8.37,8.37,0,0,1,1.72,2.58l-1-3c-1-3-.46-9.83,5-11,4.67-1,10.34,6,11.34,10.33l0,.74c.3-3.93,5-4.4,5-4.4,4,0,5.33,1,6.66,5.33s3.92,4.69,4.55,6.69Z"/><path class="cls-2" d="M478.67,176.33C477.67,172,472,165,467.33,166c-5.46,1.17-6,8-5,11s4.34,9.33,5.34,13,4,11.33,4,15,3.66,18,3.66,20.67"/><path class="cls-2" d="M495.33,186c-1-3.67-3.66-3.67-5-8s-2.66-5.33-6.66-5.33c0,0-6.67.66-4.67,7s4,9,4.67,12.33,4,12.67,4,15.67,1.33,15.66,1.33,17"/><path class="cls-2" d="M500.33,226.33c.34-2.33-1.33-20.66-1.33-24.66S496,190,495.33,188s-1.33-6.33,3.34-6.67,6,3.67,7,5.67"/></g><path class="cls-3" d="M379.29,40.63v3c12.26,0,27.46,4.67,30.65,12.21a35.82,35.82,0,0,0,2,3.82l.67,1.19a129.43,129.43,0,0,0-39.05,8.71c-15,6.12-27.58,17.58-32.65,22.6-.88-5.39-.35-17.51,5.49-24.7,2.52-3.09,4.4-5.87,6.05-8.32,4.67-6.93,7.5-11.12,19.45-14.67a27.31,27.31,0,0,1,7.42-.84v-3m0,0a30.2,30.2,0,0,0-8.27,1c-17.44,5.17-17.44,12.26-27,24-8.82,10.84-7.11,31.35-4,31.35a1.06,1.06,0,0,0,.78-.42c3.54-3.81,17.47-17.48,33.84-24.17,15.5-6.33,33.11-8.5,38.83-8.5s1.17-4.5-.8-9.16c-4-9.52-21.29-14-33.41-14Z"/><path class="cls-3" d="M355,290.61c10.39,10.8,24.43,20.12,37.37,24.71a40,40,0,0,0,13.41,2.23,56.64,56.64,0,0,0,17.93-3.16c6,9.22,8.08,18.43,5.65,25.71-1.88,5.62-4.3,14.34-6.87,23.58-2.94,10.57-6,21.51-8.08,27.27-.7,1.93-1.59,4.24-2.54,6.67C407.45,408.93,402,423,402,433c0,2.52-.05,8.34-.12,15.7-.25,25.71-.65,68.74.14,79.73.22,3.14.34,9.94.5,18.55.93,51.42,2.55,79,8.79,86.77,6.62,8.27,35.17,79.27,41.55,96-2.09,3.4-11.88,12.52-29.17,22.33C412.06,758.66,389,770,365.49,772c-4.07.35-8.29.52-12.52.52-40.43,0-78.24-15.63-92.57-25.48-6.85-4.71-20.47-22.66-15.74-36.06,5.74-16.27,30.1-68,38.1-85l.67-1.42C292,606.39,302,554.89,303,535.3c.4-7.86.19-25.73,0-46.42-.33-29.4-.79-69.65.92-77.62.6-2.83,1.46-7,2.45-11.83,4-19.43,10.7-52,15.43-67.71,5.31-17.7,15.6-34.19,23.93-38.35a40.81,40.81,0,0,1,9.27-2.76m2.15-6.49c-5.91,1-11,2.34-14.1,3.88-9.84,4.92-21,22-27,42s-15,66-18,80,0,105-1,125-11,70-19,87-33,70-39,87,9.76,37.33,18,43c14.52,10,53.73,26.54,96,26.54,4.32,0,8.67-.17,13-.54,44.88-3.82,96-41,93-49s-35-89-43-99-7-88-8-102,0-84,0-95,8.24-29.66,12-40c4-11,11-39,15-51,3.85-11.56-1.21-24.5-9.1-34.83a54.67,54.67,0,0,1-20.17,4.38,34,34,0,0,1-11.41-1.88c-12.28-4.36-26.84-13.91-37.22-25.55Z"/><path class="cls-3" d="M455,71.67c-13.18-2.2-18.33.33-26.33,3.33S387.33,93.17,374,110c19.67-15,42.33-27.33,50.67-30,13.17-4.21,14.66-6.53,31-5.67C458.83,74.5,457,72,455,71.67Z"/><path class="cls-3" d="M475.08,78.84a112.75,112.75,0,0,1,16.85,6.64c8.75,4.31,19.82,22,21.34,26,.44,1.16,1.36,3.16,2.63,5.93C520.29,127,529.43,147,529,155.3c-.56,10.57-11.87,11.71-16.7,11.71a37.29,37.29,0,0,1-4.42-.27c-4.16-.49-11.33-9.24-16.08-15-2.88-3.5-5.36-6.53-7.29-8.1l-.3-.26h0a23.08,23.08,0,0,1,5.47-2.86c6.18-2.6,13.88-5.84,15-21.27.41-5.78-2.26-15.69-17.31-30.11a122.6,122.6,0,0,0-12.27-10.26m-19-6.78c1,.31,2,.63,2.94.94,12,4,43.85,29.38,42.67,46-1.34,18.67-12.67,16.67-19.34,22a13,13,0,0,1-1.73,1.14c-.39,1.06.11,2.25,2,3.79,5.17,4.21,16.93,22.85,24.9,23.79a39.27,39.27,0,0,0,4.78.29c10.66,0,19.17-4.6,19.69-14.55.61-11.39-13.91-39.86-15.91-45.07-1.6-4.18-13-22.77-22.81-27.6-14.29-7-29-10.33-37.2-10.73Z"/><path class="cls-3" d="M413.56,188.33c4.28-2.66,17.35-2.18,24.23,0,5.26,1.67,11.67,5.67,10.6,9.42S443.51,196,430.75,192C420.33,188.75,409.29,191,413.56,188.33Z"/><path class="cls-3" d="M444.65,210.5a5.85,5.85,0,0,1-3.74,4.75l-28.06-15c9.62-.5,9.18,6.81,16.57,8.25a43.25,43.25,0,0,0,11.49.75C442,209.25,444.78,209.39,444.65,210.5Z"/><path class="cls-3" d="M413.49,272.85a13.59,13.59,0,0,1-8.83-3.52l8.83,2.52,2.39,0c4.27,0,12.83,1.34,15,1.34S441,276,443.14,277s6.05,2.83,7.83,5.5Z"/><path class="cls-1" d="M394.33,177c.67-6,16.67-19.33,19.34-22.67s10.66,2,22.66,0,39.34-8,46-13.33,18-3.33,19.34-22C502.85,102.38,471,77,459,73s-31.33-8.67-44.67-8-35.41,7.29-50.83,15c-15,7.5-23.24,20.34-32.5,28-9.67,8-16.33,25.67-20.33,34.33s-4.34,29.34-2.34,38-4,34.67,11.34,48.67,33.33,16,38,8.67,14.66-19.34,17.33-28"/><path class="cls-7" d="M502.94,184.56c1.14-8.09,1.65-14.76,1.12-17.89M356.63,238.94l7.05,1.39c-3.21-.33-4.54,7.14-11.4,6.34a7,7,0,0,1-6.13-4.89A29.94,29.94,0,0,1,341,241c1,5.6,1.93,11.41,2.7,17.36,2.85,22,29.93,44,50.59,51.34S439.22,301,447.06,295c2.29-1.76,6.31-6.62,11-12.83M482.33,141c-6.66,5.33-34,11.33-46,13.33s-20-3.33-22.66,0S395,171,394.33,177c-.63,5.66-14.9,22-18.75,31.11l0,.06-.21.35c-.15.39-.3.78-.41,1.15"/></g></svg>