<svg id="Layer_2" data-name="Layer 2" xmlns="http://www.w3.org/2000/svg" viewBox="0 0 1280 1024"><defs><style>.cls-1,.cls-2,.cls-3{fill:none;}.cls-1,.cls-2,.cls-3,.cls-5,.cls-6{stroke:#fff;stroke-miterlimit:10;}.cls-1{stroke-width:6px;}.cls-2{stroke-width:10px;}.cls-3,.cls-6{stroke-width:3px;}.cls-4,.cls-5,.cls-6{fill:#fff;}.cls-5{font-size:40px;font-family:Superclarendon-Regular, Superclarendon;}</style></defs><title>osx-high</title><path class="cls-1" d="M832,728.67c-.27-114.3,2-411.17,2.89-411.17,5.9,0,99.83,24.52,186.05,44.18,75.28,17.17,144.68,29.69,144.45,31.32-.63,4.41-65.85,152.18-121.77,447.91"/><path class="cls-1" d="M451.36,731.22c.42-101.88-1-411.72-1.86-411.72-5.51,0-87.84,21.9-168.93,40.29C199,378.27,118.75,393.25,119,395c.64,4.48,68,156,124.5,461.5"/><path class="cls-2" d="M837.52,823.07c75.86-6.57,145-9.57,212.63,24.43s67.62,58,86.35,76"/><path class="cls-2" d="M170,923.5c73.87-96,162.79-104.46,256-93.42,4,.47,13.18.91,17.51,1.31"/><path class="cls-1" d="M81.5,349.5c1.46-2.62,321-86,367.6-85.9.92,0,.66,55.2,0,55.5-24.6,11.4-344.6,80.4-350.6,78.4S76.5,358.5,81.5,349.5Z"/><path class="cls-3" d="M835.34,729.06C895,745.59,930.8,754.38,1005.5,769.5c17-90,62-253,78-293-82-28-116-35-197-45-9.09,50.39-33.87,171.07-55.18,248.73"/><path class="cls-3" d="M450.06,730.22C390.84,746.65,358,756.43,283.5,771.5c-17-90-62-253-78-293,82-28,116-35,197-45,8.25,45.75,29.44,149.44,49.22,226.27"/><path class="cls-4" d="M307.88,452.08l73,294.23-8.58,2.14-74-294.51,9.59-1.86m2.23-3.49-15.5,3,75.5,300.49,14.39-3.58L310.11,448.59Z"/><path class="cls-4" d="M840.51,269.89c24.71,2.16,92.49,16.59,189.17,40.34,82.87,20.36,153.68,39.32,167.83,43.78,0,2.93-.89,9.23-4.53,18.88s-7.51,16.2-9.39,18.52c-12.17-1.48-79.74-15.15-169.15-34.84-90.38-19.91-156.61-35.82-173.79-41.69-.28-9.07-.41-34-.14-45M835,263.6h-.09c-.91,0-.65,55.2,0,55.5,24.26,11.24,335.53,78.44,350.16,78.44a1.62,1.62,0,0,0,.45,0c6-2,22-39,17-48C1201.09,346.88,882,263.6,835,263.6Z"/><path class="cls-4" d="M637.25,63.5c61.18,0,108.26,13.66,139.94,40.59,32.72,27.82,49.31,70.35,49.31,126.41v490h-50v-490c0-40.05-14.79-69.63-44-87.9C709.65,128.27,677.6,121,637.25,121c-36.51,0-67.63,8.61-90,24.91a92.65,92.65,0,0,0-29.08,34.42c-7.08,14.49-10.68,31.37-10.68,50.17v491h-50v-491c0-29.57,4-55.44,12-76.88,7.63-20.59,19.14-37.79,34.22-51.13,14.76-13.06,33.55-22.95,55.83-29.4,22-6.36,48.16-9.59,77.74-9.59m0-8c-120,0-187.75,51-187.75,175v499h66v-499c0-73,56.67-101.5,121.75-101.5C705,129,768.5,149.5,768.5,230.5v498h66v-498c0-120-73.25-175-197.25-175Z"/><path class="cls-4" d="M443.5,452.5c12-1,389-9,406,0s14,65,0,69-389,3-403,0S431.5,453.5,443.5,452.5Z"/><rect class="cls-4" x="514.29" y="292" width="254.71" height="18.43"/><line class="cls-3" x1="515" y1="567" x2="768.5" y2="567"/><path class="cls-4" d="M740.5,579.5v140h-194v-140h194m3-3h-200v146h200v-146Z"/><path class="cls-4" d="M597.75,579.38c25.11,0,34.94.18,38.75.33V718.5H559v-139c6.51,0,22.71-.1,38.75-.1m0-3c-20.87,0-41.75.12-41.75.12v145h83.5V577c0-.5-20.88-.62-41.75-.62Z"/><polygon class="cls-3" points="994.39 449.59 978.89 446.59 904.5 746.5 918.89 750.08 994.39 449.59"/><path class="cls-4" d="M688.75,579.38c25.11,0,34.94.18,38.75.33V718.5H650v-139c6.51,0,22.71-.1,38.75-.1m0-3c-20.87,0-41.75.12-41.75.12v145h83.5V577c0-.5-20.88-.62-41.75-.62Z"/><path class="cls-4" d="M623.5,638.5h4c2,0,2,44,0,44h-4C622.5,682.5,622.5,638.5,623.5,638.5Z"/><path class="cls-4" d="M663.25,638.5h-4c-2,0-2,44,0,44h4C664.25,682.5,664.25,638.5,663.25,638.5Z"/><path class="cls-4" d="M511.42,732.5l-3.84,188H439.79c4.29-61.24,11.77-167.28,13.37-188h58.26m-61.92-4c-.26,0-14,196-14,196h76l4-196h-66v0Z"/><path class="cls-4" d="M830.84,731.5c1.6,20.79,9.08,127.43,13.37,189H778.38l-5.76-189h58.22m3.66-4v0h-66l6,197h74s-13.74-197-14-197Z"/><polygon class="cls-4" points="514.5 726 769.67 726 770.67 760.33 514 760.33 514.5 726"/><line class="cls-3" x1="514" y1="786.33" x2="770.67" y2="786.33"/><line class="cls-3" x1="514" y1="812.83" x2="770.67" y2="812.83"/><line class="cls-3" x1="513" y1="839.33" x2="771.67" y2="839.33"/><line class="cls-3" x1="512" y1="865.83" x2="772.67" y2="865.83"/><line class="cls-3" x1="512" y1="892.33" x2="772.67" y2="892.33"/><text class="cls-5" transform="translate(501.73 194.19) rotate(-70.24) scale(0.86 1)">O</text><text class="cls-5" transform="matrix(0.49, -0.71, 0.82, 0.57, 510.88, 168.77)">S</text><text class="cls-5" transform="matrix(0.66, -0.56, 0.64, 0.77, 523.45, 149.69)">X</text><text class="cls-5" transform="matrix(0.75, -0.43, 0.5, 0.87, 546.15, 131.59)"> </text><text class="cls-5" transform="translate(555.29 125.49) rotate(-21.43) scale(0.86 1)">H</text><text class="cls-5" transform="translate(583.46 114.99) rotate(-14.14) scale(0.86 1)">I</text><text class="cls-5" transform="translate(596.99 111.17) rotate(-8.31) scale(0.86 1)">G</text><text class="cls-5" transform="translate(626.26 106.9) rotate(-1.89) scale(0.86 1)">H</text><text class="cls-5" transform="translate(656.64 106.2) rotate(2.86) scale(0.86 1)"> </text><text class="cls-5" transform="translate(667.96 106.45) rotate(7.78) scale(0.86 1)">S</text><text class="cls-5" transform="translate(691.35 109.45) rotate(15.61) scale(0.86 1)">C</text><text class="cls-5" transform="translate(716.57 116.12) rotate(26.1) scale(0.86 1)">H</text><text class="cls-5" transform="matrix(0.67, 0.55, -0.63, 0.77, 743.11, 128.95)">O</text><text class="cls-5" transform="translate(764.26 145.89) rotate(54.19) scale(0.86 1)">O</text><text class="cls-5" transform="matrix(0.31, 0.81, -0.93, 0.36, 780.1, 167.81)">L</text><line class="cls-3" x1="691.5" y1="319.5" x2="589.5" y2="378.5"/><line class="cls-3" x1="734.5" y1="323.5" x2="585.5" y2="413.5"/><line class="cls-3" x1="750.77" y1="349.44" x2="653.23" y2="408.56"/><line class="cls-6" x1="947.82" y1="475.41" x2="873.18" y2="566.59"/><line class="cls-6" x1="1021.38" y1="624.27" x2="959.25" y2="690.34"/><line class="cls-6" x1="955.82" y1="492.41" x2="857" y2="618"/><line class="cls-3" x1="735.05" y1="190.7" x2="608" y2="256"/><line class="cls-3" x1="738" y1="218" x2="664.35" y2="258.44"/></svg>