<svg xmlns="http://www.w3.org/2000/svg" viewBox="0 0 1280 1024"><defs><style>.cls-1,.cls-2,.cls-3,.cls-4,.cls-6,.cls-7,.cls-8{fill:none;stroke:#fff;stroke-miterlimit:10;}.cls-1{stroke-width:5px;}.cls-2{stroke-width:2px;}.cls-3{stroke-width:6px;}.cls-4{stroke-width:4px;}.cls-5{fill:#fff;}.cls-6{stroke-width:3px;}.cls-8{stroke-width:7px;}</style></defs><title>pbcopy-joins-in</title><g id="pbcopy"><path class="cls-1" d="M337.47,512.32c-.27,7.08-.48,12.93-.48,14.69,0,4.93,4.11,30.4,2.46,34.51s-1.64,7.4-4.11,8.22c-1.23.41-3.34.26-6.44-.93"/><path class="cls-2" d="M319,459.82c4.92,1.21,9.22,2.62,10.14,3.79.7.88,2,2.12,3.44,3.64"/><path class="cls-1" d="M269.85,570.68c-5.33,1.23-8.44,2.34-10.1,2.34-2.46,0-2.46-.82-2.46-.82C254,568.09,242.5,557.41,242.5,555A330.1,330.1,0,0,1,245,514.69c2.47-18.08,9-41.09,13.15-44.37s7.94-4.93,12.19-7c2.36-1.14,10.8-2.92,18.67-4.28"/><path class="cls-3" d="M331.24,754.51c0,5.75-4.93,49.41-1.65,59.27"/><path class="cls-3" d="M268.79,760.51c.82,10.68-.82,35.19-3.29,54.91"/><path class="cls-4" d="M260.57,519.62c-.82,5.75-9,35.33-9.86,40.26s-9,33.76-9,37.86"/><path class="cls-4" d="M340.27,511.4c0,4.11-3.28,27.11-2,33.28s11.09,49.71,16.85,58.75"/><path class="cls-4" d="M275.36,522.08c-3.28.82-14.79.82-18.9-1.64s-10.68-6.58-11.5-10.68,9.86-28.76,11.5-31.23,11.33-9.86,16.26-11.5"/><path class="cls-3" d="M330.41,520.44c0,4.11-1.64,16.43-1.64,23s-.82,19.72,0,27.94,0,36.16,4.93,56.7c2.85,11.87,37,98.6,37,101.88S351,749.68,341.1,753s-60,10.68-63.27,9.86-7.4-3.29-13.15-1.64-25.47,3.29-29.58,0-9.86-9.86-9.86-14.79,7.4-18.08,9.86-25.47,26.29-86.28,27.94-96.14,12.32-100.24,12.32-103.53"/><path class="cls-4" d="M333.33,468.71c4.69,2.23,9.6,4.66,11.46,7.77,2.47,4.11,9.86,32,9.86,32.86s-7,2.88-11.09,3.7-8.15,0-9,0"/><g id="copy-icon"><path class="cls-5" d="M283.7,513c1.6,8.32,2.92,19.07,3,21a4.39,4.39,0,0,0,4.46,4.3L310.31,537a4.5,4.5,0,0,0,4.09-4.43c0-2,.1-4.33.1-4.33s4.85-.27,7.23-.37a5.16,5.16,0,0,0,4.8-4.32c.12-2.34,3.31-21.95,3.49-23a3.18,3.18,0,0,0-1.1-2.92c-.93-.9-4.53-4.52-5.42-5.24a6.73,6.73,0,0,0-4-1.56c-2.11-.3-16.21-1.07-19.43-1s-5.39,2-5.13,4.64.43,4.56.43,4.56-2.45,0-5.18,0m29.5-5.29c.64.6,7,6.55,6.88,6.75l-.34,2.5c-3.49-.19-6.93-.35-10.35-.46.18-3,.36-6,.54-9Zm-8.34,40.3-21.38,1.34c-.35,0-.54-.1-.57-.54.34-.45-.55-31.78-.66-32.11a.55.55,0,0,1,.55-.56c.34,0,6.37-.09,6.36-.08s1.74,20.32,1.78,22.5a4.34,4.34,0,0,0,4.39,4.13l9.94-.46s-.06,5.16-.06,5.4A.33.33,0,0,1,311.32,534.07ZM323,525.16c-.33,0-21.9.81-22.23.84a.51.51,0,0,1-.57-.53c.15-.13-1.83-31.66-2-32.2a.51.51,0,0,1,.54-.48c.28-.09,13.94.45,13.94.53s-.29,8.52-.33,9.75a2.23,2.23,0,0,0,2.33,2.17c1.23,0,11.09.34,11.13.37s-2.43,18.72-2.31,19.07A.52.52,0,0,1,323,525.16Z"/></g><path class="cls-5" d="M325.2,466.25a22.19,22.19,0,0,1,4.19,2.33c2.23,1.73,3.76,13.6,4.26,17.5.14,1,.26,1.95.37,2.74.69,4.85-1,22.07-2.73,29.12a10.73,10.73,0,0,1-2.14-.53c-.67-9.35-.67-20.29-.67-25.73,0-8.73-.63-19.28-3.28-25.43m-6.94-4.65c-1.94,0-.36.8,2.29,3,4.52,3.7,4.93,21.37,4.93,27.12s0,18.08.83,27.94a18.39,18.39,0,0,0,5.33,1.34,4,4,0,0,0,2.06-.52c2.06-6.17,4.11-26.3,3.29-32.05s-2.06-19.31-5.75-22.18c-1.45-1.13-6.58-4.11-11.37-4.52-.69-.06-1.22-.09-1.61-.09Z"/><path class="cls-5" d="M281.64,465.82h0a2.8,2.8,0,0,1,.53,0c2,.4,7,7.28,7,21.16-.42,4.41-2.32,17.75-5.76,23.7-1.25,2.15-4.43,7.64-6.07,8.86a17.43,17.43,0,0,1-1.75-.65c2-4.08,5.61-21.82,6.15-29.93a44.76,44.76,0,0,0-1-12.7c-.66-3.3-1.61-7-3.36-9.43a12.27,12.27,0,0,1,4.23-1.05m0-3c-4.29,0-11,3.77-8.74,4.21q3.08.62,4.93,9.86a42,42,0,0,1,1,11.91c-.55,8.22-4.25,25.6-5.89,28.89s1.64,4.1,4.11,4.93a1.43,1.43,0,0,0,.46.07c2.44,0,5.79-5.66,8.57-10.47,4.52-7.81,6.17-25,6.17-25.06,0-14.79-5.34-23.42-9.45-24.24a5.69,5.69,0,0,0-1.12-.1Z"/><path class="cls-3" d="M271,447.76c-2.54.5-4.44.94-5.46,1.19-16.43,4.11-28.76,16.44-28.76,16.44-9.86,0-15.61-4.93-15.61-8.22s-6.57-106.82,26.3-140.51,87.91-19.72,98.6-6.57c8.06,9.92,27.11,29.58,31.22,61.62s3.7,92.44,0,96.14-12.32-14-23-17.25a117,117,0,0,0-18.87-3.73"/><path class="cls-4" d="M248,416.51c6.85,8.59,21.31,30.25,27.2,32.58s18.21,13,28.07,13,20.54-4.11,26.29-10.68,17.26-20.55,19.72-28.76c.8-2.65,1.93-7.08,3.1-12.06"/><path class="cls-6" d="M350.13,411.15c.83-2.46,2.2-3.83,3.15-1.5s1.79,4,5.07,4c2.6,0,5.75-4.93,4.93-12.33s2.47-20.54-.82-25.47-5.9-3.72-7.81-2.33-4.52,4-3.69,7.26"/><path class="cls-6" d="M352.74,392.94c1.5-2.33,4.79-2.33,5.61,1.78.36,1.8-3.28,4.11-4.93,3.29"/><path class="cls-6" d="M251.53,413.62c-3.28-.82-4.93,4.93-8.21,4.93-4.11,0-14-16.43-14-23.83s2.46-17.25,9.86-16.43c2.94.32,6.57,1.64,7.39,8.21"/><path class="cls-6" d="M243.32,404.58c-1.65,0-7.4-1.64-6.58-4.93s4-6.16,6.58-4.11"/><path class="cls-6" d="M307.41,392.26c1.64-.83,5.75-1.65,7.39.82s5.75,9.86,4.93,13.14-5.75,7.4-9,6.58-9,1.64-9.86-.82"/><path class="cls-5" d="M302.48,357.75c.82-1.65-2.66-3.35-7.4-4.93a25.07,25.07,0,0,0-7.39-.83c-4.11,0-14,4.11-17.26,6.58s-2.46,3.28-2.46,3.28a31.62,31.62,0,0,1,8.21-4.1c4.93-1.65,7.4-2.47,11.51-2.47C294.26,355.28,301.66,359.39,302.48,357.75Z"/><path class="cls-5" d="M334.18,356.9a25.41,25.41,0,0,0-4.18-.39c-4.93,0-12,6.6-13.14,3.29-.82-2.46,8.63-5.75,11.36-5.75a19.86,19.86,0,0,1,4.26.67"/><path class="cls-5" d="M300.42,373c-.82-5.75-3.88-12.12-9.86-12.33-11.91-.41-20.95,8.63-21.77,9.45s-2.38,4.1-1.64,10.68c.82,7.4,4.1,14.79,4.1,15.61s7.4,0,13.15-.82,14.38-3.69,15.2-5.34S301.25,378.7,300.42,373Zm-18.54,13c-4.93.82-6.57-4.11-6.57-6.58s.78-6.8,4.93-7.39a9.08,9.08,0,0,1,3.5.08,5.76,5.76,0,0,0,4.83,7.26C289,382.94,286.49,385.15,281.88,385.92Z"/><path class="cls-5" d="M343,371c-.82-.82-3.55-5.86-10.53-7.09-4.05-.72-12.33,3.29-13.15,5.75s-4.93,16.43-2.46,18.9a21.89,21.89,0,0,0,15.2,6.16c7.39,0,12.32-1.64,12.32-2.46s2.47-9.86,2.47-13.15S343.82,371.82,343,371Zm-6.16,11.13c-2.16,2.15-5.75,1.44-8.27-.36-2.11-1.51-2.15-4.31-1.43-6.47a6.45,6.45,0,0,1,6.1-3.95,7.3,7.3,0,0,1,2.91.53,4.1,4.1,0,0,0,2.07,7.64c.14,0,.27,0,.4,0A8.08,8.08,0,0,1,336.84,382.13Z"/><path class="cls-5" d="M328,423.48c3.13-3.13-15.61,4.11-19.72,4.11s-9.86.82-14.79,0-6.57-2.47-8.22-.82-4.11,4.1-.82,5.75a114,114,0,0,1,13.15,8.22,15.64,15.64,0,0,0,11.64,3.14c4-.68,9.72-3.14,10.54-5.61S325.48,425.94,328,423.48Z"/><path class="cls-6" d="M239.49,416.34c-.91,21.78-1.1,42.72-1.1,48.22"/><path class="cls-6" d="M350.5,378.5c-18.05-12.89-16-32.26-29.95-40.47-9.52-5.61-29.43-6.15-33.68-4.93-5.76,1.64-14.86,4.83-17.26,6.57-9,6.57-17.25,8.22-23.83,21.36-1.48,3-2.68,9.31-3.63,17.47"/><path class="cls-6" d="M375.61,467.85c0-9.86-4.54-66.09-11.11-83.35"/><path class="cls-5" d="M240.3,601.18a9.41,9.41,0,0,1,4.26.88c1.13.88,2.19,1.57,3.12,2.18,2.43,1.57,3,2,3.22,3.26a51.59,51.59,0,0,0,1.71,5.66c.94,2.77,3.13,9.26,2.61,11l-.27.65c-.33.83-.71,1.79-1,2.48a4.1,4.1,0,0,0-.49,0,4.17,4.17,0,0,0-3.76,2.26c-1.21,2.39.24,4.38,1.2,5.7a11,11,0,0,1,1.71,2.89c.61,2.41-.35,6.38-1.19,6.95a25,25,0,0,0-4.76,3.29,14.51,14.51,0,0,1-1.74,1.32l-.7.14a20,20,0,0,1-3.93.56,8.78,8.78,0,0,1-2.14-.27,32.53,32.53,0,0,1-8.66-3.75c-.69-1.39-1.64-6.18-2.34-9.71-.4-2-.81-4.1-1.26-6.12-1-4.57,4.95-16.89,7.81-22.81.92-1.89,1.71-3.52,2.23-4.74.7-1.64,3.55-1.77,4.4-1.77m0-4c-3.3,0-6.74,1.08-8.08,4.19-2.46,5.75-11.91,22.6-10.27,30s2.88,16,4.52,17.67,7.4,4.11,10.68,4.93a12.66,12.66,0,0,0,3.11.39,28,28,0,0,0,5.52-.8c2.06-.41,4.11-3.29,7.4-4.93s4.11-8.22,3.28-11.5c-.73-2.94-4.1-5.88-3-5.88a2.21,2.21,0,0,1,.57.12,2.7,2.7,0,0,0,.88.16c1.81,0,2.62-2.33,4.05-5.91,1.64-4.11-3.29-14.79-4.11-18.9s-4.11-4.93-7.81-7.8c-1.22-1-3.91-1.73-6.71-1.73Z"/><path class="cls-5" d="M359.26,605.56h0c4.27,0,11.8,5.49,12.63,7.57.53,1.32,1.28,3,2.08,4.78,1.6,3.6,3.8,8.53,4.29,11,.6,3-.77,10.59-2.18,12.17-.92.49-1.87,1.12-2.87,1.79-2.13,1.44-4.79,3.23-7,3.23a3.41,3.41,0,0,1-1.38-.29c-3.78-1.61-6.93-5.24-8.81-7.41-.57-.66-1-1.17-1.44-1.6-.92-.92-2.7-4.54-2.2-7.07a56.4,56.4,0,0,0,.49-9.72,50,50,0,0,1,.29-7.35c.88-3.51,2.14-6,5.44-7a2.39,2.39,0,0,1,.63-.07m0-4a6.35,6.35,0,0,0-1.73.22c-5.75,1.65-7.4,6.58-8.22,9.86s0,13.15-.82,17.26,1.64,9,3.29,10.68,5.75,7.4,11.5,9.86a7.34,7.34,0,0,0,3,.61c4.7,0,9.11-4.18,11.83-5.54,3.29-1.64,4.93-12.32,4.11-16.43s-4.93-12.33-6.57-16.44c-1.49-3.71-10.51-10.08-16.35-10.08Z"/><path class="cls-5" d="M278.65,820.35c5.81,5.81,6.57,6.57,6.57,12.32s-2.46,14-6.57,17.26c-3.85,3.08-16.37,1.64-21.36,1.64s-19.72-.82-22.19-4.11c-3.16-4.2-4-6.93-3.29-14,.83-8.22,9-18.08,24.65-18.9C264.71,814.16,273.72,815.42,278.65,820.35Z"/><path class="cls-5" d="M359.17,817.06c-3.44-4.3-10.68-7.39-15.61-7.39s-14,1.64-18.08,4.93-4.93,10.68-4.1,14,8.21,6.57,13.14,7.39,15.61,1.64,19.72,0,8.22-4.11,9-7.39S362.46,821.17,359.17,817.06Z"/></g><g id="Layer_6" data-name="Layer 6"><path class="cls-1" d="M1104.31,447.4c4.69,8.19,15.87,24.71,16.67,29.75s11.6,62.49,11.36,68.49"/><path class="cls-5" d="M965.47,539.18c-8,.83-13-.5-18.26,6.3s-9.42,10.65-1.73,18.95,14.37,16.57,21.63,9.84S984.53,563.94,985.8,557s-.39-16-4.34-17.18S972.5,538.45,965.47,539.18Z"/><path class="cls-5" d="M1132.61,538.64c-7.91,2.31-8.18,4.69-10.45,11.61s-1.58,15,2.3,18.1,7.8,5.3,9.72,7.38.54,12,9.57,11.38,12.42-10.53,13.57-14.49-3.72-33.17-7.68-34.32A34,34,0,0,0,1132.61,538.64Z"/><path class="cls-4" d="M1063.5,356.5c6.65,2.05,24.28,8.78,28.08,13.93s30.09,50.2,32.7,60.31-6,13.28-18.2,17.81-18.45,11.29-21.45,11.18-13.41-41.55-14.29-44.59c.81,5,13.29,44.55,14.25,45.59,0,0,5.07,24.21,6.41,41.28s1.44,66.1,2.06,76.13,5,26.22.72,33.06-85.36,7.7-92.28,5.43-16-1.61-15.75-6.61,7.92-49.73,8.31-59.72,5.59-66.84,4.82-72.87-2.19-21.1-2-26.1c.31-8.05-.15-22-.15-22s1,27.06,0,27"/><path class="cls-4" d="M995.06,374.35c9.21,5.51,19.15,8.57,28.51,5.15,18.45-6.75,51.4-33.76,46.65-62"/><path class="cls-4" d="M1002.23,205.39c-24.15,2.94-39.87-3.76-50.57,11.78s-21.39,31.09-20.92,43.12.27,39,3.74,51.21,18.83,26.86,27.52,34.25c2.21,1.88,5.71,5.58,10.1,9.9"/><path class="cls-5" d="M1028.41,156.5c10.54,2.24,27.45,13.22,27.91,25.25s-.67,25.45-4.14,21.85C1041,192,1028,186,1020,184c-4.34-1.08-25.35-5.58-36-5-5,.27,7.72-18.33,17.35-21.7C1011.52,153.75,1016.51,154,1028.41,156.5Z"/><path class="cls-6" d="M1055.82,283.83c.18-4,.75-17,5.83-18.76s10.21-4.55,15-.34,8.07,21.38,4.85,26.24-8.57,12.64-8.74,16.63-8.3,6.64-11.12,2.51a43,43,0,0,1-4.6-9.21"/><path class="cls-7" d="M1062.77,285.14c4.08-1.82,7,.31,7.81,4.35s-3.3,6.86-6.34,7.73"/><path class="cls-6" d="M970.28,294.07c-.26,6-1.74,16.94-2.92,20.89s.38,14,4.42,13.21,8.13-2.65,14.16-3.38,4.13-2.82,4.13-2.82"/><path class="cls-5" d="M981.88,348.81c1.06-3.61,2.88-4.44,6.54-6.11s11.75-2.22,14.52-3.93,8.45-8.78,9.3-7.82,8.42,12.26,8.3,15-4.3,16.27-10.76,20.56-11.75,2.23-14.35.28c-2-1.52-5.86-9.4-5.82-10.32C989.66,355.18,985.34,351.71,981.88,348.81Z"/><path class="cls-2" d="M987.27,294.82c1.13-3,1.84-18.94,8.92-20.63s14.12-2.38,18,.79,6.55,10.3,7.42,13.35"/><path class="cls-5" d="M1000.56,288.4c5.32-4.87,9.08-1.6,10-.56s.69,7-2.4,8.9-7.17,3.69-10.08,1.56S996.39,292.22,1000.56,288.4Z"/><path class="cls-2" d="M961.56,287.68c-4.82-4.22-7.82-4.35-10.86-3.49s-12.3,6.47-10.56,12.55"/><path class="cls-5" d="M948.09,298.09c1.67-2.28,5-.78,6,.27s1.73,6.08-1.4,8.94-5.12,2.78-6.08,1.74S943.82,303.91,948.09,298.09Z"/><path class="cls-5" d="M926.12,274.14c4.47.2,22.6-13,23.69-15s5,.22,8.08-1.64,28.67-14.75,36.24-27.43,26.21-27.91,24.7-39-29.48-11.27-39.61-8.71-26.41,8.84-36.85,18.39S923.71,238,923.23,249,920.13,273.88,926.12,274.14Z"/><path class="cls-5" d="M1060,263c5-3,11.86-5.48,16.68-1.27.47.41-1.94-31-10.68-41.45-12-14.28-35-35.28-43.28-32.85-2.21.65-1.93,4.4-1.89,4.68,1.51,11.08-16.13,25.31-23.7,38-2.75,4.6-7.87,9.23-13.43,13.35,4.74,4.28,5.86.82,10.29,4.68,5,4.37,7.77,12.78,10.8,15,10.92,8,15.19,10,25.54,11.5,7.42,1.07,14.88,4,22.54,6.05C1053.12,275.76,1055.76,265.54,1060,263Z"/></g><g id="Layer_8" data-name="Layer 8"><path class="cls-1" d="M678.5,361.5c-9-10-25-32-26-35s-21-54-23-77"/><path class="cls-5" d="M706.5,562.5c-.62,3.1-1,13-1,19s0,29,1,34,159,13,155,4-38-52-40-57-3-8-5-8S707.5,557.5,706.5,562.5Z"/><path class="cls-3" d="M817.36,530.28c1.7,8.34,2.89,10.72,3.14,13.22,1,10,3,15,1,15s-43,9-54,8-40,0-46,0-17,0-18-3-1-39-1-44-2-62-2-67-1-29-3-32-37-38-36-42,15-19,17-21,13-16,15-14,20,29,22,31c1.5,1.5,10-.21,14.32-1.71"/><path class="cls-4" d="M742.83,230.8a142.37,142.37,0,0,0-18.41,7.7c-10.81,5.22-21.76,12-21.76,21s-7.26,33-3.11,47,4.14,17,11.4,31,15.55,32,22.8,38c3.52,2.91,20.74,5,25.92,4a89.81,89.81,0,0,0,9.67-3.18"/><path class="cls-4" d="M804.49,347c1.18-2.24,3.18-8.44,3.9-10.52,4.15-12,6.22-36,3.11-47s-9.33-30-18.66-41c-7.69-9.07-22.43-16.55-32.3-19"/><path class="cls-5" d="M832.5,231.5c-5-6-14.1-12.87-18-12a18.48,18.48,0,0,0-6.17,2.64,24.72,24.72,0,0,1,4.17,2.36c3,2,7,6,8,9s3,6,0,7-6.33,3.67-7.17,2.83-7.5-9.16-8.66-10c-.65-.46-2.77-2-4.45-3.4a11.18,11.18,0,0,1-1.72,1.57c-3,2,7,11,11,13s5,37,5.5,41.83-.5,52.17-.5,54.17,18,3,24,3,16-8,16-9v-59C854.5,261.5,837.5,237.5,832.5,231.5Z"/><path class="cls-2" d="M743.5,278.5c4-3,16-10,21-7a31.48,31.48,0,0,1,14,20c2,10-1,20-7,19"/><path class="cls-5" d="M751,227.52c4-4.58,4.93-7.44,2-8.52-11-4-29.64,4-35,7.44-10.74,6.81-21.45,23.4-22.81,30.06-1.81,8.87,1.81,13.22,3.81,13.4s11.13-12,22.81-19,22.15-10.5,26.23-11.13S748,231,751,227.52Z"/><path class="cls-5" d="M807.5,232.5c-9.09-9.92-34-16-42-14-8.35,2.09-19,10-13,22s17,21,24,28,29,23,41,15S829.5,256.5,807.5,232.5Z"/><path class="cls-2" d="M736.5,284.5c-2-4-7-10-12-12s-12,4-14,9"/><path class="cls-6" d="M735.5,302.5c-3-2-6-3-8-2s-7,4-8,8-2,11,1,12,12,2,15,1"/><path class="cls-5" d="M759.25,336.49c3-.65,8.51,8.18,7.66,8.93s-11.92,11.9-16.17,14.14-11.07,3-12.77.74-7.66-9.67-8.51-11.91-1.71-7.44-3.41-9.67,4.26-3.72,11.07-3.72S755.85,337.23,759.25,336.49Z"/><path class="cls-5" d="M756.5,293.5a6,6,0,0,1,2.83-5.08,7.5,7.5,0,0,0-4.83-1.92c-3,0-4,2-5,3s-3,5-1,8,9,3,9,3a3.47,3.47,0,0,0,2.56-1.52A6,6,0,0,1,756.5,293.5Z"/><path class="cls-5" d="M723.5,292.5a7,7,0,0,1,1.73-4.6,7.25,7.25,0,0,0-4.73-1.4c-1,0-2.74.47-4,3-1,2,0,5,1,7,.92,1.84,5.2,1.14,7.44.24A6.93,6.93,0,0,1,723.5,292.5Z"/><path class="cls-5" d="M615.41,255.5c-4.4-1.48-14.87-19-16-23s-5.72-20-5.72-24-8.69-28.8-9.14-31c-2.29-11,9.14-9,11.43-3-2.29-6-3.43-12,2.29-13,6-1.05,9,6.94,10.29,12-4.58-12-4.77-16.28,1.14-18,6.86-2,10.29,13,12.57,18-.51-1.81-5.44-10.3,2.29-13,5.72-2,10.18,10.62,11.43,15,2.29,8,8,22,9.15,26s2.29,19,4.57,19,12.58-16,18.29-18,12-6,12,2-3.43,10-6.86,13-8,18-12.58,22-6.85,8-11.43,10S630.27,260.5,615.41,255.5Z"/><path class="cls-6" d="M803.25,223.44c2.14-2.13,5.73,0,8.6,1.91s6.68,5.73,7.64,8.6,2.86,5.73,0,6.68-6,3.51-6.85,2.71-7.16-8.75-8.27-9.55-6.85-4.93-6.37-5.73S801.34,225.35,803.25,223.44Z"/></g><g id="Layer_9" data-name="Layer 9"><path class="cls-8" d="M436,758.31c-1.64-52.58-7.4-548.88-7.4-554.63s0-10.68-4.93-10.68H178c-7,0-7.39,3.29-7.39,11.5s2.46,534.91,2.46,556.28"/></g><g id="Layer_7" data-name="Layer 7"><path class="cls-3" d="M862.5,539c-.57,8-5.5,54-2.5,54s33,2,37,1-1-50-2-53"/><path class="cls-3" d="M1093.5,879.5c-1,6.93-3,49-1,51s37,2,39,0-3-51-5-53"/><path class="cls-3" d="M684.11,872.5c1,6.93,3,52,1,54s-37,2-39,0,3-54,5-56"/><path class="cls-1" d="M986,360c4.44-.89,8.27,2.88,7.88,5.69s4.62,87.69,4.62,91.81c0,6-4,71-4,74s-1,7-3,7-96,3-116,2-91-15-95-15-9-4-9-9-5-63-5-74,2-85,2-88c0-2.24,3-6,5-6s106,11,117,11S983.5,360.5,986,360Z"/><path class="cls-8" d="M649,624c0,7.52,1.5,103.5,1.5,120.5s-8,123-8,126,202,12,229,12,260,1,260-5-4-104-4-123v-125C1127.5,624.5,649,620.5,649,624Z"/><path class="cls-5" d="M1148.5,597.5c0-4-270.36-3.94-278.18-4s-244.82-5-244.82-1,1,27,1,31,234,7,247,7,275,2,275-2Z"/><path class="cls-5" d="M995.88,364.69c.39-2.81-4.38-8.19-9.88-8.69-2.54-.23-84.5-4.5-95.5-4.5s-111-9-113-9-7.5,4.5-10,11c0,3-2,79-2,90s5,69,5,74,6,10,10,10,75,14,95,15,114-2,116-2,7-5,7-8,3-68,3-74C1001.5,454.38,995.5,367.5,995.88,364.69ZM994.5,531.5c0,3-1,7-3,7s-96,3-116,2-91-15-95-15-9-4-9-9-5-63-5-74,2-85,2-88c0-2.24,3-6,5-6s106,11,117,11,93,1,95.5.5c4.44-.89,8.27,2.88,7.88,5.69s4.62,87.69,4.62,91.81C998.5,463.5,994.5,528.5,994.5,531.5Z"/></g></svg>