<svg xmlns="http://www.w3.org/2000/svg" xmlns:xlink="http://www.w3.org/1999/xlink" viewBox="0 0 1280 1024"><defs><style>.cls-1,.cls-2,.cls-3,.cls-4,.cls-5,.cls-6,.cls-8,.cls-9{fill:none;stroke:#fff;stroke-miterlimit:10;}.cls-2{stroke-width:6px;}.cls-3{stroke-width:7px;}.cls-4{stroke-width:5px;}.cls-5{stroke-width:4px;}.cls-6,.cls-8{stroke-width:3px;}.cls-7{fill:#fff;}.cls-8{stroke-linecap:round;}.cls-9{stroke-width:2px;}.cls-10{clip-path:url(#clip-path);}</style><clipPath id="clip-path"><path class="cls-1" d="M936.8,290.33s-17.18,34.45-42,34.45-42.71-34.45-42.71-34.45Z"/></clipPath></defs><title>pbpaste_and_pbcopy</title><g id="body"><path class="cls-2" d="M772.47,498.63c-1.37,35.14-6.89,129.29-9.64,141"/><path class="cls-3" d="M818.89,916.4c-15.45,4-34,10.84-36.43,22.3-3.44,16.54-4.67,41.37,7.58,43.41,16.54,2.75,74.42-19.3,76.48-24.81S870,938,869.28,924.23A10.7,10.7,0,0,0,864,915.6"/><path class="cls-3" d="M932.6,909.63c29.63,15.15,52.44,16.67,44.17,40.09s-8.27,31.7-34.45,31.7S887.2,967,885.82,952.48s3.21-32,8.27-38.59"/><path class="cls-2" d="M931.66,348.75a197.24,197.24,0,0,1,32.15,9.54c13.87,5.5,27,10,36.73,19.2,26.18,24.81,16.54,110.93,12.4,123.34-2,5.84-11.71,6.2-24.11,7.58-11,1.22-28.25-3.45-28.25-13.1V436.06s0,145.38,4.13,159.85,10.34,34.45,5.51,40-55.81.69-75.79,0-62.7-8.26-77.86-2.06-28.25,20-26.18,4.82,6.2-33.76,6.89-44.79c.4-6.43,7.39-61.91,8.27-103.35.62-29.56,3.27-57.36,4.13-59.94,0,0-3.44,43.4-4.13,60.63-6.89,6.2-25.5,9.65-33.08,8.27s-20.67-2.07-22.05-7.58,9.05-88.27,11-95.09c6.2-21.35,25.49-39.27,50.3-41.34,4.7-.39,20.64-3.72,38.26-6.62"/><path class="cls-4" d="M969.53,634.5s8.27,14.47,7.58,28.25c-.41,8.22-1.22,54.74-6.89,76.48C966.09,755.08,943.35,908,931,912.17s-31,3.45-36.52,0-11-164-10.34-179.83-13.78,177.08-22,182.59-36.52,8.27-42,0-23.43-160.54-25.5-177.77-4.13-56.5-4.13-68.9.32-16.69,3.11-25.45"/><path class="cls-2" d="M988.83,508.41c.68,28.25,11,119,8.26,136.23"/><path class="cls-5" d="M1012.36,646.2c-5.23-3.13-11.32-2.26-15.85-1.13-8.84,2.21-13.72.69-19.24,13.58s-22.71,18.28-15.84,23.77c5.66,4.53,14.06-2.62,18.11-5.66,9.05-6.79,5.66,13.32,5.66,15.85a26.18,26.18,0,0,1-1.14,7.92c-.69,2.72-3.39,11.32-4.52,14.72-3.48,10.42-6.87,15.08,1.13,15.84,3.3.32,7.14-5.73,9.05-13.58,2.55-10.49,4.73-14.85,5.66-20.37,1.25-7.4.37-2.62-3.39,11.32-2.4,8.89-3.4,13.58-4.53,17-.82,2.48-1.9,8,3.4,9.06,5.65,1.13,7.92-14.72,9-18.11,1.29-3.87,3.5-23.58,3.4-20.37s-3.9,19.54-4.53,27.16c-.39,4.63-2.27,6.79,1.13,7.92,4.68,1.56,6.19-10.27,6.79-12.45,4.38-15.83,3.5-25.84,3.4-22.63a101.15,101.15,0,0,1-2.27,17c-1.44,6.16,3.4,9.06,5.66,2.27,2.45-7.34,3.86-11.66,3.4-21.51C1016.4,683.25,1018,649.6,1012.36,646.2Z"/><path class="cls-6" d="M758.21,638.44c11.21-2.07,13.7-2.9,21.17.42,7,3.12,8.58,12,13.7,21.17S813.42,672.9,811.34,680c-2.49,8.48-7,4.58-11.62,0s-7-7.74-12-4.57c-3.72,2.32-.71,11.06,2.49,18.27,3.32,7.47,10.55,15.42,2.49,17.43-3.32.83-8.3-1.66-10-7.47-2.22-7.77-5.89-15.77-6.64-19.93-1.66-9.13,6.64,29.5,6.64,33.21,0,5.81-5,9.14-9.13,3.32s-8.31-39-8.31-36.53,5.84,27.77,6.23,33.63c.42,6.22-7.89,6.22-9.13,2.49-3.88-11.63-7.47-40.68-7.47-38.19s2.46,23.14,3.73,27.81-7.47,5.81-8.3,0-5.35-22.51-4.57-30.3C746.58,670.82,737.8,642.22,758.21,638.44Z"/></g><g id="head"><path class="cls-4" d="M812.44,259.53c-.69,29.63-2.14,27.28,3.44,42.17,3.09,8.22,10.72,25.69,24.75,37.28s34.79,17.49,46.91,18.53c16.49,1.41,54.43-13.09,64.08-22.05s25.49-37.21,27.56-51c.85-5.65,3.39-18.12,4.87-30.05"/><path class="cls-7" d="M981.94,210.75c2.75-3.45,6.2-5.51,8.95-4.13s6.89,4.82,6.2,10.33-4.82,9.65-6.89,11c-1.72,1.15-7.58,2.07-8.26.69"/><path class="cls-7" d="M812.52,213.57c-2.76-3.44-6.89-5.51-9.65-4.13s-6.89,4.82-6.2,10.33,4.82,9.65,6.89,11c1.72,1.14,7.58,2.07,8.27.69"/><path class="cls-8" d="M887.54,270.69c9.65,2.07,17.23,4.83,27.56-6.89,7.42-8.41,4.82-25.49,3.45-29.62s-14.47-11.72-22.74-6.89"/><path class="cls-9" d="M832.45,188.7c1.41-3.44,1.41-6.89,3.53-7.58s45.9-2.75,53.66-.69,9.89,4.83,10.6,8.27-6.36,36.52-8.48,39.27-3.53,6.21-7.76,7.58-43.08-.68-46.61-1.37-5.65-6.89-5.65-9S830.33,193.86,832.45,188.7Z"/><path class="cls-9" d="M975.6,188.7c-1.41-3.44-1.41-6.89-3.53-7.58s-45.9-2.75-53.67-.69-9.88,4.83-10.59,8.27,6.36,36.52,8.48,39.27,3.53,6.21,7.76,7.58,43.08-.68,46.61-1.37,5.65-6.89,5.65-9S977.72,193.86,975.6,188.7Z"/><path class="cls-7" d="M894.15,181.12l20.36,1.42a10.8,10.8,0,0,0-7.27,7.77,14.1,14.1,0,0,1-7.56-.52C900,185,897.41,182.72,894.15,181.12Z"/><path class="cls-7" d="M858.6,200.41c4.3-.71,9.3-.34,10.68,3.1s3.45,4.14.69,6.21c-4,3-3.45,6.2-7.58,6.2s-9-2.07-9.3-7.24C852.88,205.57,854.47,201.1,858.6,200.41Z"/><path class="cls-7" d="M944.73,196.28a9,9,0,0,1,9.3,9.3c0,5.86-5.17,7.93-8.61,7.93s-9.3-2.07-9.3-7.93S938.53,196.28,944.73,196.28Z"/><path id="left_eye_brow" class="cls-7" d="M924.75,171.48c-1.38-2.76,8.26-6.21,15.84-7.58a58.74,58.74,0,0,1,18.61-.69c4.13.69,12.47,3.44,8.95,3.44-4.13,0-8.95-1.38-11.71-1.38-2.18,0-10.24.33-14.47,1.38C936.46,168,926.12,174.23,924.75,171.48Z"/><path id="right_eye_brown" class="cls-7" d="M897.19,174.23c1.75-1.76-2.76-4.13-6.89-6.2a37.87,37.87,0,0,0-17.23-4.13c-6.64,0-20.67,4.82-20,6.2s12.4-2.76,17.22-3.45,9,.53,12.41,1.38C885.47,168.72,895.12,176.3,897.19,174.23Z"/><path class="cls-7" d="M842.54,86.34c-1.57.26-4.68,1.57-10.81,5.9-7.85,5.54-9.82,7.37-13.17,10.67A186.94,186.94,0,0,1,842.54,86.34Z"/><path class="cls-7" d="M805.08,258.65c-3.72-1.38-7.23-6.13-8.48-8.63-1.37-2.75-10.33-21.36-11.71-31a246.73,246.73,0,0,1-2.07-27.56c0-3,3.1-7.69,7-10.93A65.32,65.32,0,0,1,787,171c-2-11-2.49-18.08-1-26a42.1,42.1,0,0,1,2.72-8.77l-.33-.58c-2.19-4.07-2.07-4.14-3.45-13.1s-2.71-7,0-16.53c1.38-4.82,4.83-5.51,11.72-12.4s10.33-11,18.6-17.23c3.1-2.33,4.56-3.68,5.7-4.32l-.88-.19c-8.27-6.2-11-10.34-19.29-8.27s-28.25,22-37.21,35.14c-8.12,11.87-21.36,128.16-22.73,153s-7.58,51-3.45,62,26.87,2.07,40.65,3.45,36.26,3.65,37-1.17c0,0-8-16.78-10-28C803.79,281.36,804.41,270.12,805.08,258.65Z"/><path class="cls-7" d="M990.31,182.54a22.32,22.32,0,0,1-5-3.28c0,4.47,0,6.43,0,7.2C986.82,185.37,988.49,183.93,990.31,182.54Z"/><path class="cls-7" d="M1034.3,237.62c.69-24.8-2.07-52.36,0-79.24S1011.56,79.15,1005.36,75A71.86,71.86,0,0,0,985,65.57c-2-.57-7-.57-9,.43,6.27,2.63,6,6,11,12,1.17,1.4,7,12,13,15,2,1,5.65,2.47,8,6a19.21,19.21,0,0,1,3,11c0,7-11.46,16.19-10,19,7.48,14.42,12.14,28.24,12.5,33.52.41,6.16-2.43,11.81-5.63,15.54,5.47,2.62,8.76,9.54,8.76,13.4a246.73,246.73,0,0,1-2.07,27.56c-1.37,9.64-5.33,28.25-6.71,31s-5.51,8.27-9.65,9c-2.86.48-6.71-2-8.58-5.89-1,12.66-1.65,27.77-4.12,36.41-4,14-15,31-15,31,7,2,14.37-2.95,26.08-2.26s21.18,0,35-5.52S1033.61,262.43,1034.3,237.62Z"/><path id="right_hair_part" class="cls-7" d="M831.73,92.24c9.65-6.2,27.56-13.09,33.07-12.4S897.62,81.65,902,86c4.82,4.82,10.33,18.6,0,26.18s-18.6,17.91-20,24.8-4.83,25.5-13.09,29.63-33.77,16.54-40.66,17.92-15.15-.69-22.73,0-13.24,9-12.55,1.43-6.47-29.68-4-40.71c3-13.29,17.23-30.31,22.74-35.83S831.73,92.24,831.73,92.24Z"/><g class="cls-10"><path class="cls-5" d="M936.12,291s-17.23,35.14-42,33.76S852.74,291,852.74,291Z"/><path class="cls-7" d="M893.4,307.56a70.81,70.81,0,0,1,26,5.16s-14.33,14.82-26,12.06-26.88-11-25.22-12.67C872.8,307.53,893.4,307.56,893.4,307.56Z"/></g><path class="cls-1" d="M936.8,290.33s-17.18,34.45-42,34.45-42.71-34.45-42.71-34.45Z"/><path id="left_hair_part" class="cls-7" d="M905,87c2-3.24,4.59-8.54,19.06-9.92S956.62,84.41,970.91,95c18.6,13.78,37.9,57.19,38.59,67.53s-2.07,19.29-13.78,20-27.57-28.25-33.08-32.38-12.4-16.54-21.36-19.3S915.89,123.4,909,111C912,96,909,89.76,905,87Z"/><path id="left_hair_scrunchie" class="cls-1" d="M964.71,66.74c8.27-1.37,11.17.75,15.16,6.89C984,80,994.58,93.75,1000,97a13.62,13.62,0,0,1,7,9c1,3.58-.24,6.87-3,11-2.23,3.34-7.21,11.07-8.25,8.72s-10.14-17-17.49-23.87-27-18.77-30.94-20.39,8.43-7.14,9.81-9.89S964.71,66.74,964.71,66.74Z"/><path id="right_hair_scrunchie" class="cls-9" d="M788.86,106c-2.52,8.83-1.28,7,0,15.39s1.17,8.4,3.21,12.19c4.49,8.34,9,3.85,11.55,0s-.64-16,8.34-24.37,7.69-8.34,18.6-16,11.54-5.13,11.54-5.13S840.42,78.5,831,75.91s-6.22-3.24-13.91,2.54-10.91,9.62-17.32,16S790.15,101.54,788.86,106Z"/></g><g id="Layer_4" data-name="Layer 4"><path class="cls-7" d="M930.82,436.35c-1.83-2-8.22-7.81-10.55-9.94s-3.75-2.94-6.29-2.84-6.08,0-6.08,0-.11-5,0-9.69-4-10.09-9.49-10.09H885.08c-.61-2.84-4.16-6.08-9-6.18-4.56-.1-9,2.33-10.24,6.18-2.84,0-6.09-.45-12.38-.2a9.94,9.94,0,0,0-9.33,9.74c0,3.86-.1,51.21-.1,57.5s4.46,9.74,9.33,9.74h16s.2,3.65.2,9.53,3.85,9.13,9.33,9.54,40.5-.09,45.23,0c5.38.1,9-3.55,8.93-9.74-.09-5.28-.09-43.4,0-46.45C933.15,440.1,932.64,438.38,930.82,436.35ZM911,432.6h2c.4,0,.81,0,1,.4s9.13,8.93,9.33,9.33a2.81,2.81,0,0,1,.41,1.22v1.83H911ZM876,404.81c2.24,0,3.65,1.21,3.65,3.45a3.57,3.57,0,0,1-3.65,3.85c-2.23,0-3.65-1-3.65-3.45S873.31,404.81,876,404.81Zm-6.29,27.58c.2,5.08,0,38.54,0,38.54h-15c-.81,0-1-.4-1-1.21V414.54c0-1,.4-1.42,1-1.42a111.07,111.07,0,0,1,11.16.21c1.62,2.84,5.88,6.49,10.34,6.49,4.26,0,8.32-3.45,9.94-6.29,2.84-.2,11.16,0,11.76,0s.82.61.82,1v8.32s-15.22-.2-19.68,0S869.46,427.32,869.66,432.39ZM924,489.19c0,.41-.4.81-1.22,1s-41.78,0-42.39,0a1.3,1.3,0,0,1-1.22-1.21V433.81a1.07,1.07,0,0,1,1.22-1.21c1.42,0,21.3.2,21.3.2v17.85c0,2.43,2,3.85,4.46,4.06s17.85.2,17.85.2Z"/></g><g id="Layer_5" data-name="Layer 5"><path class="cls-5" d="M458.89,893c-12.36-2-31,37.64-27.26,47.46s17.35,37.65,31,39.28,48.31,4.91,48.31-19.64S488.62,897.93,458.89,893Z"/><path class="cls-1" d="M528.75,441a21.68,21.68,0,0,0,5.71-1.34c8-4,6.2-69.38,5-80.53s-11.15-26-17.34-26-18.59-2.48-23.54-1.24"/><path class="cls-5" d="M447.74,789.64c3.72,42.67,5.57,72.43,13,110.36"/><path class="cls-5" d="M389.58,901.85c-1.73-18.91-31.07-30.58-49.06-14.81S308,903.71,305.14,930.62s.26,33,24.09,37S392.62,935,389.58,901.85Z"/><path class="cls-5" d="M377.12,788c0,29.46-4.86,74.87-15.49,96"/><path class="cls-6" d="M389.07,339.56c-13.62,3.72-49.12,34.45-50.36,53s0,116.46,1.24,127.61-1.24,38.41,2.48,42.12c1.37,1.37,10.66,1.73,22.9,1.58"/><path class="cls-6" d="M480,569.9c9.78,1.57,17.74,1.57,21-2.61,8.68-11.15,24.78-90.44,25.4-110.89S532,343,520.84,338.08c-3.53-1.56-15.34-2.26-33-2.37"/><path class="cls-4" d="M483.86,337.51c5.64,1,11.48,3.43,15.79,11.51,10.19,19.14,22.69,26.19,19.4,55.18s-28.57,80-29.35,111.36-9.82,90.57-5.76,113.42,25.9,76.79,31.18,98.41,6.74,37.28-19.1,49.72-70.31,21.53-87.7,18.17-65.84-11.09-77.16-23-27.59-22.51-17.88-35.91,20.51-37.68,27.57-63.11,24.83-81.15,21.88-113.66S343.91,459.82,346,434.47s.42-55.47,16.3-71.37c11.34-11.37,12.45-17.88,32.45-22.38"/><path class="cls-4" d="M496.06,372.78c13.63,3.61,37.17,90.49,39.64,105S558,582.35,558,592"/><path class="cls-4" d="M365.35,370.92c-8,7-45.09,64.6-54.37,88.48S280.48,563.32,280.48,576"/><path class="cls-7" d="M493,338.7c3.49-4,25.4-4.33,27.26-1.23s-6.82,46.46-5.58,66.28,3.72,57-3.72,64.42-23.54,3.72-26-1.24-1.24-57,0-66.9S484.91,348,493,338.7Z"/><path class="cls-7" d="M382.07,340.56c-3.32-4.43-23.54,8.68-24.77,14.87s-9.92,34.69-10.54,45.22-13,63.81-9.29,67.52,22.3,8.68,23.54-1.24,3.72-50.79,6.2-61.94S385.79,345.52,382.07,340.56Z"/><path class="cls-7" d="M445.2,105.26v4c13.67,0,31.13,4.55,47.91,12.48,15.87,7.5,29.21,17.13,35.68,25.75,11.73,15.65,13.72,48.15,15.46,76.83.36,5.77.69,11.22,1.09,16.48,1.89,24.5-18.28,67.21-23.48,74.88s-17,13.91-35.09,18.58c-13.26,3.43-29.38,5.9-49.28,7.56-2.2.18-4.61.27-7.15.27-32.17,0-77.66-13.63-84.89-29.54a226.2,226.2,0,0,1-11.33-32.68c-4.33-16.39-6.08-30.73-5.05-41.48,1.37-14.44,3.69-30.43,6.35-43.88,3.25-16.44,6.89-28.57,10.51-35.09,5.31-9.57,20.38-21.47,40.31-31.84,19.33-10.06,40.17-17,54.38-18.15,1.47-.11,3-.17,4.58-.17v-4m0,0c-1.67,0-3.3.06-4.9.19-31,2.47-85.48,29.73-97.87,52C333.92,172.8,327.56,212,325.08,238s10.7,62.92,16.73,76.2c8.56,18.83,57.61,31.88,88.53,31.88,2.64,0,5.15-.09,7.49-.29,29.73-2.48,74.33-8.67,87.34-27.87,5.5-8.11,26.16-51.47,24.16-77.44-2.48-32.21-2.48-75.57-17.34-95.4-14.11-18.8-56.08-39.83-86.79-39.83Z"/><path class="cls-6" d="M452.86,221c9.55.8,18.4,9.89,20.69,17.51,2.39,8-.8,18.3-12.73,23.87-8.22,3.84-19.9-5.57-19.9-5.57"/><path class="cls-7" d="M400.66,286.05c7.76,3.88,22.3,8.67,32.21,8.67s34.69-5,48.32-6.19c5.52-.5-8.67,8.67-24.78,17.34-15.31,8.25-26.3,5-34.69,2.48C409.33,304.63,395.7,283.57,400.66,286.05Z"/><path class="cls-7" d="M401.14,181.7c-16-2.59-32.84,8.94-34,23C365.49,223.79,382,233.4,400.54,234c11.64.4,23-1.47,29.85-8.3,4-4,5.75-10,6-16.59C437,191.28,420.84,184.89,401.14,181.7Zm7.95,30.23c-4.52,3.74-10.17,4.36-13.56,3.12s-7.34-3.74-7.34-11.84c0-3.74,3.37-8.11,11.29-8.11,4,0,9,2.5,11.3,6.24S413.6,208.19,409.09,211.93Z"/><path class="cls-7" d="M498.3,183.15c-16.69-.73-30.05,5.38-31.12,19.38-1.27,16.71,4.31,18.77,10.16,22.05,9.53,5.35,25.4,6,34.93,2,5.59-2.36,14-13.37,14.6-22.72S513.54,183.82,498.3,183.15Zm-1.5,29.74c-4.67,0-8.68-4.68-8.68-10s6-6,9.35-6,9.35,4,9.35,9.36S501.48,212.89,496.8,212.89Z"/><path class="cls-7" d="M436,172.13c-1,1-15.7-5-29.4-7.35-13.9-2.37-30.07-2.67-32.07-.67s-5,3.68-5.35.67c-.44-4,3-4.34,6.35-4.34s18-.63,32.07,2C418.29,164.45,437.67,170.46,436,172.13Z"/><path class="cls-7" d="M467.66,174.53c.87,1.12,16.22-3,30.1-3.56,14.08-.59,30.16,1.16,31.9,3.4s4.5,4.28,5.21,1.34c1-3.89-2.43-4.69-5.74-5.11s-17.81-2.91-32.07-2.08C486.2,169.15,466.22,172.66,467.66,174.53Z"/><path class="cls-7" d="M445.32,115.46c-19.25,10.88-64,29.17-76,35.49s-33.48,43-33.48,72,.63,49.28,4.42,63.18,30.58,43.5,36.26,68.15,3.44,24.65-.35,25.91-41.45-2.09-48.4-5.88S290.26,361,289,349s3.54-77.06,6.07-101.07S317.31,159.4,322,146c7-20,14.83-28.84,32-38,17.57-9.37,90-40.4,98.21-28.39S452.58,111.36,445.32,115.46Z"/><path class="cls-7" d="M569.89,349.21c-14.76,5.12-24.95,9.28-38.88,11s-5.23-23.3-5.23-43-1.74-77.29-3.48-98.76-20.22-52.07-25.44-67.73-15.67-25.54-26.12-29-24.37-9.29-27.27-23.21,7-15.67,15.09-15.67c31.08,0,75.41,21.23,92,43.34,17.57,23.43,30.46,96.07,36.12,152.1,4.51,44.64,5.07,53.05,2.54,56.43C585.7,339.37,578.67,346.16,569.89,349.21Z"/><path class="cls-7" d="M473.41,404.35c-2.05-2.23-9.63-10.8-11.39-12.4a11.36,11.36,0,0,0-8-3.25l-37.82-1.6A10.58,10.58,0,0,0,405,397.46l-.45,10.68s-12.5-.65-18.11-.89a11.17,11.17,0,0,0-11.25,10.34c-.24,5.79-2.78,65.57-3.05,71.9a10.86,10.86,0,0,0,10.44,11.37L432.7,503a10.41,10.41,0,0,0,11-10.08c.22-5.18.47-11,.47-11s12.2.37,18.15.62a10.77,10.77,0,0,0,11.29-10.36c.26-6.1,2.45-57.65,2.56-60.39A9.9,9.9,0,0,0,473.41,404.35Zm-36.84,90.73a.8.8,0,0,1-.95.87l-55.56-2.36c-.91,0-1.36-.36-1.31-1.43S382,416.33,382,415.72a1.39,1.39,0,0,1,1.35-1.24c.69,0,20.83,1,20.83,1s-2.06,48.51-2.29,54a10.65,10.65,0,0,0,10.07,11l25.19,1.07S436.6,494.47,436.57,495.08Zm29.9-20.43a1.12,1.12,0,0,1-1.28,1.17L410,473.47a1.28,1.28,0,0,1-1.32-1.43c0-.76,3.25-76.44,3.28-77.05a1.23,1.23,0,0,1,1.19-1.1l27.69,1.41-1,23.51a5.14,5.14,0,0,0,5,5.4l23.81,1S466.5,473.74,466.47,474.65Zm2.38-56.12-21.7-.92.94-22,6.49.28c1.17,1.27,14.57,15.57,14.54,16.22C469.09,413,468.85,418.53,468.85,418.53Z"/><path class="cls-7" d="M282.32,573.42c7.34,0,14.57,5.74,16.52,7.75,2.94,3,2.29,7.19,1,13.22-.2.9-.39,1.79-.56,2.65-.48,2.47-5.64,11.84-12,17.42-3.68,3.24-10,4.11-15,4.81a43.17,43.17,0,0,0-5.93,1.07c-2.08-1.76-6.86-7.31-9-9.84-1.42-1.65-2.55-3-3.26-3.72-.34-1.34,1.16-6,2.15-9.15.9-2.83,1.92-6,2.64-9.25,1.35-6,19.49-15,23.5-15m0-3c-4.81,0-24.63,9.27-26.43,17.31-2.06,9.17-6.69,18.39-4.14,21,2.34,2.41,12.32,14.86,14.27,14.86a.32.32,0,0,0,.14,0c4.2-1.85,16.48-1.07,23.07-6.85s12.3-15.68,13-19.1c1.2-6.18,3.75-13.45-1.21-18.54-2.4-2.48-10.26-8.66-18.67-8.66Z"/><path class="cls-7" d="M558.23,593.4h1.46c7.57,0,10.76,2.27,11.78,3.24,2,1.87,2.7,6,3.41,10a43.52,43.52,0,0,0,2.29,9.07c.93,2.22.79,2.7.44,3.84a12.9,12.9,0,0,0-.68,4.16c0,1.08,0,2.09.1,3a27.17,27.17,0,0,0-.59-2.76l-2.9.75-2.83.75c0-.07-.05-.14-.07-.21a12.59,12.59,0,0,0-.83-1.93l-5.32,2.79a7.32,7.32,0,0,1,.44,1c.27.8.28,1.82.29,4.6-.16,2-.1,4.87-.05,7.43,0,1.08.05,2.08.05,2.86a45.92,45.92,0,0,1-2,11.22,47.66,47.66,0,0,0-1.65,6.08c-.07.36-.16.76-.24,1.11-.55-.3-.58-2-.57-2.48a41.56,41.56,0,0,1,1.33-8c.19-.81.37-1.57.51-2.24.17-.83.35-2,.51-3.33a18.7,18.7,0,0,0,.62-4.46c0-1.43,0-2.79,0-4.06,0-.33,0-.65,0-1,0-2.18,0-7.3-1.12-10.82l-.1-.3v0l-1.66.6-1.17.4-.48.18-2.37.75,0,.06v0l0,.14c.64,2,.8,5.44.83,10,0,2.28-.23,5-.52,7.48-.16.65-.35,1.32-.53,2a36.59,36.59,0,0,0-1,4.41,28.55,28.55,0,0,1-1.25,5.74l-.41-.08a2.32,2.32,0,0,1-.85-.32h0a11.35,11.35,0,0,1-.12-3.25c0-.79.07-1.69.07-2.67a46.8,46.8,0,0,1,.95-5.65,46.24,46.24,0,0,0,1.18-7.71c0-1.32,0-2.89.1-4.41.12-4,.17-6.63-.16-8.21-1.17-5.74-4-6.95-6.18-6.95-2.74,0-5,2.1-6.15,3.23l-.12.11a20.22,20.22,0,0,0-3.48,4.9c-1.33,2.34-2.28,3.87-3.3,3.87a4.42,4.42,0,0,1-2-.67c-.7-.39-.77-.68-.8-.81-.47-1.92,2.76-6.69,4.9-9.85a46.75,46.75,0,0,0,4.7-8l1-2.46c2.2-5.5,2.38-6,4.9-8.9,3.67-4.28,5.28-4.28,9.58-4.28m13.08,36.53c.18,2,.3,4.58.3,8,0,1.84-.08,3.68-.15,5.46-.06,1.49-.11,2.89-.12,4.15-.42,5.35-1.29,7.5-1.8,8.31a36.77,36.77,0,0,1,.71-5,44.81,44.81,0,0,0,1-7.86V632c.06-.74.09-1.42.09-2.06m6.18,1.3c0,.32.09.63.13.93a29.42,29.42,0,0,1,.38,3.77,49.1,49.1,0,0,1-.43,6.83c0-1.77,0-3.42,0-4.82,0-2.36,0-4.57-.12-6.71M558.23,590.4c-4.88,0-7.48.22-11.86,5.33-3.21,3.75-3.19,4.26-6.39,12.18-2.92,7.24-14.91,18.31-7.46,22.38a7.34,7.34,0,0,0,3.42,1c4.47,0,5.67-6.61,8.84-9.59.88-.83,2.59-2.52,4.21-2.52,1.29,0,2.53,1.08,3.24,4.56.42,2,0,7.94,0,12,0,3.05-2.13,10.72-2.13,13.36,0,5.09-1.06,8.14,3.2,9.16a5.8,5.8,0,0,0,1.29.17c2.49,0,3.17-2.48,4-8.31.29-2,1-4.14,1.56-6.3.27-2.34.51-5.31.56-8,0-4.83-.2-8.45-1-10.88l-.07-.21h0l.07.21c1,3.07,1,7.94,1,9.91,0,.32,0,.64,0,1,0,1.27,0,2.63,0,4.07a17.27,17.27,0,0,1-.57,3.92c-.16,1.35-.34,2.49-.5,3.25-1.06,5.09-4.2,15,1.07,16.27a5.93,5.93,0,0,0,1.41.21c2.52,0,1.67-2.94,3.91-9.36A48.71,48.71,0,0,0,568.22,642c0-2.62-.23-7.54,0-10.17,0-3,0-4.34-.43-5.65a10.4,10.4,0,0,0-.64-1.47,9.38,9.38,0,0,1,.64,1.47,13.25,13.25,0,0,1,.43,5.65v11.19c0,7.12-4.37,16.28,1.06,16.28,3.37,0,4.6-5.66,5.06-11.63,0-2.67.27-6.2.27-9.73v0h0c0-2.06,0-9.14-1.07-13.19h0c1.07,4.06,1.07,8.12,1.07,13.19h0v0c0,2.65,0,6.24-.27,9.73,0,2.7.26,4.51,1.33,4.51,4.26,0,5.33-10.09,5.33-16.28,0-3-1.07-6.45-1.07-12.2,0-4.07,2.14-4.07,0-9.16-2.65-6.33-2-15.9-6.39-20.1-2.13-2-6.39-4.07-13.85-4.07Z"/><path class="cls-6" d="M271,622.33c-2.41-1.36-10.81-11.12-12-12.36s-3.6-3.7-2.4-6.17"/><path class="cls-6" d="M278.17,621.1l-12-12.36c-1.2-1.24-3.6-4.94-2.4-7.42"/><path class="cls-6" d="M280.57,595.14c.49,1,0,3.71,0,6.18,0,3.68,8.9,9.89,9.61,9.89,1.2,0,10.81-3.71,13.22-3.71s3.6,3.71,3.6,5c0,1.74-6,4.94-8.41,6.18s-9.61,2.47-13.21,0c-4.16-2.85-12.09-10.63-13.21-12.36a12.6,12.6,0,0,1-1.21-3.71,12.78,12.78,0,0,1,1.21-4.94"/><path class="cls-6" d="M289,591.44c0,4.94,0,19.77,4.81,21s6.06-6.47,7.2-12.36"/></g></svg>