<svg xmlns="http://www.w3.org/2000/svg" viewBox="0 0 1280 1024"><defs><style>.cls-1,.cls-2,.cls-4,.cls-5,.cls-6,.cls-7,.cls-8,.cls-9{fill:none;stroke:#fff;}.cls-1,.cls-2,.cls-4,.cls-5,.cls-6{stroke-miterlimit:10;}.cls-1{stroke-width:8px;}.cls-2,.cls-7{stroke-width:6px;}.cls-10,.cls-3{fill:#fff;}.cls-4{stroke-width:2px;}.cls-5,.cls-8{stroke-width:3px;}.cls-6{stroke-width:4px;}.cls-7{font-size:139.23px;letter-spacing:0.03em;}.cls-10,.cls-7{font-family:ChalkboardSE-Regular, Chalkboard SE;}.cls-9{stroke-width:5px;}.cls-10{font-size:30px;letter-spacing:0.03em;}</style></defs><title>website down</title><g id="Layer_2" data-name="Layer 2"><path class="cls-1" d="M70,28c25.3,0,1083-8,1107-4s62,20,62,74V969c0,24-16,36-44,36s-1106,4-1130,4-50-28-50-50V99C15,56,30,28,70,28Z"/><path class="cls-2" d="M64,72H1176c15,0,21,889,0,889S96,963,73,961C58.06,959.7,43,72,64,72Z"/></g><g id="Layer_3" data-name="Layer 3"><path class="cls-2" d="M192.5,104.5l826-1c6,0,13,6,13,12v793c0,10-2,12.5-12.5,12.5H193.5c-11,0-19.25-3-19.25-19.25V123.5C174.25,105.5,192.5,104.5,192.5,104.5Z"/><path class="cls-3" d="M921.5,174.75h-630c-6.6,0-15-5.25-15-13.5s8.4-13.5,15-13.5h630c6.6,0,16,5.25,16,13.5S928.1,174.75,921.5,174.75Z"/><circle class="cls-3" cx="196.66" cy="121.5" r="9.5"/><circle class="cls-4" cx="223" cy="121.5" r="9.5"/><circle class="cls-4" cx="249.34" cy="121.5" r="9.5"/><g id="Arrow_25" data-name="Arrow 25"><polygon class="cls-3" points="230 162.75 244.04 162.75 244.04 173 258 159.5 244.04 146 244.04 156.24 230 156.24 230 162.75"/></g><g id="Arrow_25-2" data-name="Arrow 25"><polygon class="cls-3" points="217 162.75 202.96 162.75 202.96 173 189 159.5 202.96 146 202.96 156.24 217 156.24 217 162.75"/></g><line class="cls-5" x1="173.5" y1="137.5" x2="1030" y2="137.5"/><line class="cls-5" x1="173.5" y1="185.5" x2="1030" y2="185.5"/><line class="cls-6" x1="173.5" y1="358.5" x2="1030" y2="358.5"/><text class="cls-7" transform="translate(261 316.54)">OSX HIGH</text><line class="cls-8" x1="193" y1="844.28" x2="1017" y2="844.28"/><line class="cls-9" x1="193" y1="857.72" x2="1017" y2="857.72"/><text class="cls-10" transform="translate(553 907)">2018</text><line class="cls-5" x1="812" y1="863" x2="812" y2="895"/><line class="cls-5" x1="904" y1="863" x2="904" y2="895"/><path class="cls-5" d="M750.5,879.55c1-2,2-6,6-5s6,8,9,8,7-8,12-7,6,7,10,7,9-4,12-3"/><path class="cls-5" d="M833.5,881c2-2,5-7,8-6s4,5,6,5,5-5,7-5,6-1,9-1,7,7,9,8,10-1,13,0-1-2,3,1"/><path class="cls-5" d="M927.5,879c4-1,5-5,7-5s2,8,5,8,15-2,15-2,5,2,8,3"/><path class="cls-5" d="M820.5,428.55c1-2,2-6,6-5s6,8,9,8,7-8,12-7,6,7,10,7,9-4,12-3"/><path class="cls-5" d="M943.5,430c2-2,5-7,8-6s4,5,6,5,5-5,7-5,6-1,9-1,7,7,9,8,10-1,13,0-1-2,3,1"/><path class="cls-5" d="M882.5,428c4-1,5-5,7-5s2,8,5,8,15-2,15-2,5,2,8,3"/><path class="cls-5" d="M820.5,459.55c1-2,2-6,6-5s6,8,9,8,7-8,12-7,6,7,10,7,9-4,12-3"/><path class="cls-5" d="M923.5,462c2-2,5-7,8-6s4,5,6,5,5-5,7-5,6-1,9-1,7,7,9,8,10-1,13,0-1-2,3,1"/><path class="cls-5" d="M893,457c3.54-1,4.43-5,6.2-5s1.77,8,4.43,8,13.28-2,13.28-2,4.43,2,7.09,3"/><path class="cls-5" d="M853.5,800c2-2,5-7,8-6s4,5,6,5,5-5,7-5,6-1,9-1,7,7,9,8,10-1,13,0-1-2,3,1"/><path class="cls-5" d="M823,795c3.54-1,4.43-5,6.2-5s1.77,8,4.43,8,13.28-2,13.28-2,4.43,2,7.09,3"/><path class="cls-5" d="M950.5,502.94c.79-1.31,1.57-3.92,4.71-3.27s4.72,5.24,7.08,5.24,5.5-5.24,9.42-4.59,4.72,4.59,7.86,4.59,7.07-2.62,9.43-2"/><path class="cls-5" d="M890.5,503c2-2,5-7,8-6s4,5,6,5,5-5,7-5,6-1,9-1,7,7,9,8,10-1,13,0-1-2,3,1"/><path class="cls-5" d="M827,498c4-1,10,3,12,3s3-5,6-5,8.5,6,8.5,6,5,2,8,3"/><path class="cls-5" d="M820.5,569.55c1-2,2-6,6-5s6,8,9,8,7-8,12-7,6,7,10,7,9-4,12-3"/><path class="cls-5" d="M876.5,571c2-2,5-7,8-6s4,5,6,5,5-5,7-5,6-1,9-1,7,7,9,8,10-1,13,0-1-2,3,1"/><path class="cls-5" d="M942.5,569c4-1,5-5,7-5s2,8,5,8,15-2,15-2,5,2,8,3"/><path class="cls-5" d="M820.5,600.55c1-2,2-6,6-5s6,8,9,8,7-8,12-7,6,7,10,7,9-4,12-3"/><path class="cls-5" d="M883,599c3.54-1,4.43-5,6.2-5s1.77,8,4.43,8,13.28-2,13.28-2,4.43,2,7.09,3"/><path class="cls-5" d="M940.5,643.94c.79-1.31,1.57-3.92,4.71-3.27s4.72,5.24,7.08,5.24,5.5-5.24,9.42-4.59,4.72,4.59,7.86,4.59,7.07-2.62,9.43-2"/><path class="cls-5" d="M870.5,644c2-2,5-7,8-6s4,5,6,5,5-5,7-5,6-1,9-1,7,7,9,8,10-1,13,0-1-2,3,1"/><path class="cls-5" d="M897.5,724.94c.79-1.31,1.57-3.92,4.71-3.27s4.72,5.24,7.08,5.24,5.5-5.24,9.42-4.59,4.72,4.59,7.86,4.59,7.07-2.62,9.43-2"/><path class="cls-5" d="M827.5,725c2-2,5-7,8-6s4,5,6,5,5-5,7-5,6-1,9-1,7,7,9,8,10-1,13,0-1-2,3,1"/><path class="cls-5" d="M821,639c4-1,10,3,12,3s3-5,6-5,8.5,6,8.5,6,5,2,8,3"/><line class="cls-8" x1="791" y1="368" x2="791" y2="833"/></g></svg>