<svg xmlns="http://www.w3.org/2000/svg" viewBox="0 0 1280 1024"><defs><style>.cls-1,.cls-10,.cls-12,.cls-2,.cls-3,.cls-5,.cls-6,.cls-7,.cls-8,.cls-9{fill:none;stroke:#fff;}.cls-1,.cls-12,.cls-2,.cls-3,.cls-5,.cls-6,.cls-7{stroke-miterlimit:10;}.cls-1{stroke-width:8px;}.cls-2,.cls-8{stroke-width:6px;}.cls-3{stroke-width:5px;}.cls-11,.cls-13,.cls-25,.cls-31,.cls-4{fill:#fff;}.cls-5{stroke-width:2px;}.cls-6,.cls-9{stroke-width:3px;}.cls-10,.cls-7{stroke-width:4px;}.cls-8{font-size:139.23px;letter-spacing:0.03em;}.cls-11,.cls-8{font-family:ChalkboardSE-Regular, Chalkboard SE;}.cls-11{font-size:30px;letter-spacing:0.03em;}.cls-13,.cls-25{font-size:16px;}.cls-13,.cls-25,.cls-31{font-family:Chalkboard, Chalkboard;}.cls-13,.cls-30{letter-spacing:0.05em;}.cls-14{letter-spacing:-0.01em;}.cls-15{letter-spacing:0.07em;}.cls-16{letter-spacing:0.01em;}.cls-17{letter-spacing:0.07em;}.cls-18{letter-spacing:0.05em;}.cls-19{letter-spacing:-0.01em;}.cls-20{letter-spacing:0.08em;}.cls-21{letter-spacing:0.06em;}.cls-22{letter-spacing:0.04em;}.cls-23{letter-spacing:0.03em;}.cls-24{letter-spacing:0.07em;}.cls-25{letter-spacing:0.03em;}.cls-26{letter-spacing:0em;}.cls-27{letter-spacing:0.05em;}.cls-28{letter-spacing:0.06em;}.cls-29{letter-spacing:0.05em;}.cls-31{font-size:11px;letter-spacing:0.03em;}.cls-32{letter-spacing:0.06em;}.cls-33{letter-spacing:0.01em;}.cls-34{letter-spacing:0.03em;}.cls-35{letter-spacing:0.05em;}.cls-36{letter-spacing:-0.01em;}.cls-37{letter-spacing:-0.02em;}.cls-38{letter-spacing:0.07em;}.cls-39{letter-spacing:0em;}.cls-40{letter-spacing:-0.02em;}.cls-41{letter-spacing:-0.03em;}.cls-42{letter-spacing:0.06em;}.cls-43{letter-spacing:-0.08em;}.cls-44{letter-spacing:0.07em;}.cls-45{letter-spacing:-0.05em;}.cls-46{letter-spacing:0em;}.cls-47{letter-spacing:0em;}.cls-48{letter-spacing:0.01em;}.cls-49{letter-spacing:-0.01em;}.cls-50{letter-spacing:0.03em;}.cls-51{letter-spacing:0.03em;}.cls-52{letter-spacing:0.02em;}.cls-53{letter-spacing:0em;}.cls-54{letter-spacing:0.02em;}.cls-55{letter-spacing:-0.04em;}.cls-56{letter-spacing:-0.02em;}.cls-57{letter-spacing:-0.03em;}.cls-58{letter-spacing:0.06em;}.cls-59{letter-spacing:-0.01em;}.cls-60{letter-spacing:0.04em;}.cls-61{letter-spacing:0.01em;}.cls-62{letter-spacing:-0.02em;}.cls-63{letter-spacing:-0.18em;}.cls-64{letter-spacing:-0.09em;}.cls-65{letter-spacing:0.03em;}.cls-66{letter-spacing:-0.04em;}.cls-67{letter-spacing:-0.06em;}.cls-68{letter-spacing:-0.1em;}.cls-69{letter-spacing:-0.03em;}.cls-70{letter-spacing:-0.03em;}.cls-71{letter-spacing:-0.08em;}.cls-72{letter-spacing:-0.02em;}.cls-73{letter-spacing:0em;}.cls-74{letter-spacing:-0.01em;}.cls-75{letter-spacing:0.04em;}.cls-76{letter-spacing:0.01em;}.cls-77{letter-spacing:0.05em;}.cls-78{letter-spacing:0.05em;}.cls-79{letter-spacing:0.05em;}.cls-80{letter-spacing:-0.03em;}.cls-81{letter-spacing:0.05em;}.cls-82{letter-spacing:0.07em;}.cls-83{letter-spacing:0.05em;}.cls-84{letter-spacing:-0.03em;}.cls-85{letter-spacing:-0.02em;}.cls-86{letter-spacing:0.06em;}.cls-87{letter-spacing:0.01em;}.cls-88{letter-spacing:-0.05em;}.cls-89{letter-spacing:0.03em;}.cls-90{letter-spacing:0.01em;}.cls-91{letter-spacing:0.04em;}.cls-92{letter-spacing:0.03em;}.cls-93{letter-spacing:-0.02em;}.cls-94{letter-spacing:0.02em;}.cls-95{letter-spacing:-0.01em;}.cls-96{letter-spacing:-0.05em;}.cls-97{letter-spacing:-0.01em;}.cls-98{letter-spacing:0.06em;}.cls-99{letter-spacing:0.05em;}.cls-100{letter-spacing:-0.01em;}.cls-101{letter-spacing:-0.02em;}.cls-102{letter-spacing:0.06em;}.cls-103{letter-spacing:-0.02em;}.cls-104{letter-spacing:0.04em;}.cls-105{letter-spacing:-0.1em;}.cls-106{letter-spacing:-0.06em;}.cls-107{letter-spacing:-0.07em;}.cls-108{letter-spacing:-0.07em;}.cls-109{letter-spacing:-0.04em;}.cls-110{letter-spacing:0.06em;}.cls-111{letter-spacing:0.06em;}.cls-112{letter-spacing:0.08em;}.cls-113{letter-spacing:-0.04em;}.cls-114{letter-spacing:-0.01em;}.cls-115{letter-spacing:0.01em;}.cls-116{letter-spacing:-0.03em;}.cls-117{letter-spacing:-0.03em;}.cls-118{letter-spacing:0.01em;}.cls-119{letter-spacing:-0.03em;}.cls-120{letter-spacing:0.06em;}.cls-121{letter-spacing:0.06em;}.cls-122{letter-spacing:0.01em;}.cls-123{letter-spacing:-0.04em;}.cls-124{letter-spacing:0.06em;}.cls-125{letter-spacing:-0.03em;}.cls-126{letter-spacing:-0.01em;}.cls-127{letter-spacing:-0.01em;}.cls-128{letter-spacing:0.01em;}.cls-129{letter-spacing:0.05em;}.cls-130{letter-spacing:-0.04em;}.cls-131{letter-spacing:0.06em;}.cls-132{letter-spacing:0.01em;}.cls-133{letter-spacing:0.01em;}.cls-134{letter-spacing:0.06em;}.cls-135{letter-spacing:0.03em;}.cls-136{letter-spacing:-0.04em;}.cls-137{letter-spacing:0.06em;}</style></defs><title>website loading</title><g id="Layer_2" data-name="Layer 2"><path class="cls-1" d="M86.59,22.3c25.3,0,1083-8,1107-4s62,20,62,74v871c0,24-16,36-44,36s-1106,4-1130,4-50-28-50-50V93.3C31.59,50.3,46.59,22.3,86.59,22.3Z"/><path class="cls-2" d="M80.59,66.3h1112c15,0,21,889,0,889s-1080,2-1103,0C74.65,954,59.59,66.3,80.59,66.3Z"/></g><g id="Layer_4" data-name="Layer 4"><path class="cls-3" d="M165.15,104.5l966-1c6,0,13,6,13,12v793c0,10-2,12.5-12.5,12.5H166.15c-11,0-19.25-3-19.25-19.25V123.5C146.9,105.5,165.15,104.5,165.15,104.5Z"/><path class="cls-4" d="M894.15,173.25h-630c-6.6,0-15-5.44-15-14s8.4-14,15-14h630c6.6,0,16,5.44,16,14S900.75,173.25,894.15,173.25Z"/><circle class="cls-4" cx="169.31" cy="121.5" r="9.5"/><circle class="cls-5" cx="195.65" cy="121.5" r="9.5"/><circle class="cls-5" cx="221.99" cy="121.5" r="9.5"/><g id="Arrow_25-3" data-name="Arrow 25"><polygon class="cls-4" points="202.65 162.75 216.69 162.75 216.69 173 230.65 159.5 216.69 146 216.69 156.24 202.65 156.24 202.65 162.75"/></g><g id="Arrow_25-4" data-name="Arrow 25"><polygon class="cls-4" points="189.65 162.75 175.61 162.75 175.61 173 161.65 159.5 175.61 146 175.61 156.24 189.65 156.24 189.65 162.75"/></g><line class="cls-6" x1="146.15" y1="137.5" x2="1142.65" y2="137.5"/><line class="cls-6" x1="146.15" y1="181.5" x2="1142.65" y2="181.5"/><line class="cls-7" x1="146.15" y1="621.5" x2="1142.65" y2="621.5"/><line class="cls-6" x1="146.15" y1="647.5" x2="1142.65" y2="647.5"/><line class="cls-6" x1="146.15" y1="358.5" x2="1142.65" y2="358.5"/><text class="cls-8" transform="translate(283.65 316.54)">OSX HIGH</text><line class="cls-9" x1="165.65" y1="544.28" x2="1129.65" y2="544.28"/><line class="cls-10" x1="165.65" y1="557.72" x2="1129.65" y2="557.72"/><text class="cls-11" transform="translate(525.65 607)">2018</text><line class="cls-6" x1="784.65" y1="563" x2="784.65" y2="595"/><line class="cls-12" x1="204.65" y1="625.5" x2="204.65" y2="643.5"/><line class="cls-6" x1="876.65" y1="563" x2="876.65" y2="595"/><path class="cls-5" d="M723.15,579.55c1-2,2-6,6-5s6,8,9,8,7-8,12-7,6,7,10,7,9-4,12-3"/><path class="cls-5" d="M806.15,581c2-2,5-7,8-6s4,5,6,5,5-5,7-5,6-1,9-1,7,7,9,8,10-1,13,0-1-2,3,1"/><path class="cls-5" d="M900.15,579c4-1,5-5,7-5s2,8,5,8,15-2,15-2,5,2,8,3"/><path class="cls-6" d="M1021.75,495.07c2.18-2.18,5.45-7.62,8.72-6.53s4.36,5.44,6.54,5.44,5.45-5.44,7.62-5.44,6.54-1.09,9.81-1.09,7.63,7.62,9.81,8.71,10.9-1.09,14.16,0-1.09-2.18,3.27,1.09"/><path class="cls-6" d="M988.52,489.62c3.86-1.08,4.82-5.44,6.75-5.44s1.93,8.71,4.83,8.71,14.48-2.18,14.48-2.18,4.82,2.18,7.72,3.27"/><path class="cls-6" d="M1069.7,413.32c.85-1.43,1.71-4.28,5.13-3.57s5.14,5.71,7.71,5.71,6-5.71,10.27-5,5.14,5,8.56,5,7.71-2.86,10.28-2.14"/><path class="cls-6" d="M993.42,413.35c2.18-2.18,5.45-7.63,8.72-6.54s4.36,5.45,6.54,5.45,5.44-5.45,7.62-5.45,6.54-1.09,9.81-1.09,7.63,7.63,9.81,8.72,10.89-1.09,14.16,0-1.09-2.18,3.27,1.09"/><line class="cls-9" x1="953.65" y1="362.16" x2="953.65" y2="528.34"/><text class="cls-13" transform="translate(218.61 640.06) scale(1.04 1)">E<tspan class="cls-14" x="9.54" y="0">l</tspan><tspan x="14.24" y="0">e</tspan><tspan class="cls-15" x="23.44" y="0">m</tspan><tspan x="36.41" y="0">e</tspan><tspan class="cls-16" x="45.61" y="0">n</tspan><tspan x="53.96" y="0">ts</tspan></text><text class="cls-13" transform="translate(292.79 640.06) scale(1.04 1)">C<tspan class="cls-17" x="10.17" y="0">o</tspan><tspan class="cls-18" x="19.16" y="0">nso</tspan><tspan class="cls-19" x="44.37" y="0">l</tspan><tspan class="cls-18" x="49.08" y="0">e</tspan></text><text class="cls-13" transform="translate(359.16 640.06) scale(1.04 1)">S<tspan class="cls-20" x="10.19" y="0">o</tspan><tspan class="cls-21" x="19.27" y="0">u</tspan><tspan class="cls-22" x="28.75" y="0">r</tspan><tspan class="cls-23" x="36.34" y="0">c</tspan><tspan class="cls-24" x="44.64" y="0">e</tspan><tspan class="cls-18" x="54.21" y="0">s</tspan></text><text class="cls-25" transform="translate(429.33 640.06) scale(1.04 1)">N<tspan class="cls-26" x="11" y="0">e</tspan><tspan class="cls-18" x="19.49" y="0">t</tspan><tspan class="cls-27" x="27.6" y="0">w</tspan><tspan class="cls-28" x="40" y="0">o</tspan><tspan class="cls-29" x="48.83" y="0">r</tspan><tspan class="cls-30" x="56.63" y="0">k</tspan></text><line class="cls-6" x1="286.65" y1="646" x2="350.65" y2="646"/><polyline class="cls-6" points="164.07 662.22 171.65 669.03 163.65 676.22"/><text class="cls-31" transform="translate(184.55 674.52)">[<tspan x="0" y="13.2" xml:space="preserve">  {</tspan><tspan x="0" y="26.4" xml:space="preserve">    &quot;_</tspan><tspan class="cls-32" x="30.71" y="26.4">i</tspan><tspan x="34.16" y="26.4">d&quot;: &quot;5</tspan><tspan class="cls-33" x="65.3" y="26.4">b</tspan><tspan class="cls-34" x="71.51" y="26.4">a519817</tspan><tspan class="cls-35" x="112.84" y="26.4">d</tspan><tspan x="119.07" y="26.4">db3</tspan><tspan class="cls-36" x="138.09" y="26.4">6</tspan><tspan class="cls-37" x="144.19" y="26.4">7</tspan><tspan class="cls-34" x="150.28" y="26.4">80f55d73a&quot;,</tspan><tspan x="0" y="39.6" xml:space="preserve">    &quot;i</tspan><tspan class="cls-38" x="26.47" y="39.6">n</tspan><tspan x="32.9" y="39.6">d</tspan><tspan class="cls-39" x="38.87" y="39.6">e</tspan><tspan x="44.63" y="39.6">x&quot;: </tspan><tspan class="cls-40" x="64.36" y="39.6">0</tspan><tspan class="cls-34" x="70.38" y="39.6">,</tspan><tspan x="0" y="52.8" xml:space="preserve">    </tspan><tspan class="cls-41" x="18.1" y="52.8">&quot;</tspan><tspan x="22.73" y="52.8">gu</tspan><tspan class="cls-42" x="34.98" y="52.8">i</tspan><tspan class="cls-34" x="38.43" y="52.8">d&quot;: </tspan><tspan class="cls-43" x="57.69" y="52.8">&quot;</tspan><tspan x="61.74" y="52.8">4d85d10</tspan><tspan class="cls-44" x="104.39" y="52.8">6</tspan><tspan x="111.37" y="52.8">-a36f-4882-83c9</tspan><tspan class="cls-45" x="204.28" y="52.8">-</tspan><tspan x="208.96" y="52.8">337</tspan><tspan class="cls-46" x="228.69" y="52.8">f</tspan><tspan x="233.44" y="52.8">f98</tspan><tspan class="cls-47" x="251.67" y="52.8">ff</tspan><tspan class="cls-34" x="261.15" y="52.8">f43&quot;,</tspan><tspan x="0" y="66" xml:space="preserve">    &quot;is</tspan><tspan class="cls-48" x="31.53" y="66">A</tspan><tspan class="cls-49" x="38.77" y="66">c</tspan><tspan class="cls-50" x="44.12" y="66">t</tspan><tspan class="cls-51" x="49.54" y="66">i</tspan><tspan class="cls-52" x="52.61" y="66">v</tspan><tspan x="57.96" y="66">e&quot;: </tspan><tspan class="cls-53" x="77.35" y="66">f</tspan><tspan class="cls-52" x="82.08" y="66">a</tspan><tspan x="88.21" y="66">ls</tspan><tspan class="cls-33" x="96.9" y="66">e</tspan><tspan x="102.75" y="66">,</tspan><tspan x="0" y="79.2" xml:space="preserve">    &quot;</tspan><tspan class="cls-33" x="23.4" y="79.2">b</tspan><tspan class="cls-54" x="29.62" y="79.2">a</tspan><tspan class="cls-55" x="35.74" y="79.2">l</tspan><tspan class="cls-34" x="38.64" y="79.2">an</tspan><tspan class="cls-33" x="50.79" y="79.2">c</tspan><tspan class="cls-34" x="56.27" y="79.2">e&quot;: &quot;</tspan><tspan class="cls-56" x="80.96" y="79.2">$</tspan><tspan class="cls-34" x="87.13" y="79.2">2,</tspan><tspan class="cls-57" x="96.83" y="79.2">3</tspan><tspan class="cls-34" x="102.77" y="79.2">2</tspan><tspan class="cls-40" x="109.34" y="79.2">9</tspan><tspan x="115.36" y="79.2">.8</tspan><tspan class="cls-58" x="125.51" y="79.2">7</tspan><tspan x="132.47" y="79.2">&quot;,</tspan><tspan x="0" y="92.4" xml:space="preserve">    &quot;p</tspan><tspan class="cls-33" x="29.53" y="92.4">i</tspan><tspan class="cls-59" x="32.34" y="92.4">c</tspan><tspan class="cls-34" x="37.69" y="92.4">t</tspan><tspan class="cls-60" x="43.04" y="92.4">u</tspan><tspan class="cls-61" x="49.34" y="92.4">r</tspan><tspan x="54.23" y="92.4">e&quot;: &quot;</tspan><tspan class="cls-62" x="78.92" y="92.4">h</tspan><tspan class="cls-46" x="84.72" y="92.4">t</tspan><tspan x="89.74" y="92.4">tp:</tspan><tspan class="cls-63" x="104.68" y="92.4">/</tspan><tspan class="cls-64" x="108.69" y="92.4">/</tspan><tspan class="cls-65" x="113.64" y="92.4">p</tspan><tspan class="cls-55" x="119.77" y="92.4">l</tspan><tspan class="cls-53" x="122.67" y="92.4">a</tspan><tspan class="cls-33" x="128.54" y="92.4">c</tspan><tspan class="cls-34" x="134.03" y="92.4">ehold.</tspan><tspan class="cls-66" x="165.27" y="92.4">i</tspan><tspan class="cls-67" x="167.53" y="92.4">t</tspan><tspan class="cls-68" x="171.92" y="92.4">/</tspan><tspan class="cls-69" x="176.79" y="92.4">3</tspan><tspan x="182.72" y="92.4">2x</tspan><tspan class="cls-70" x="195.75" y="92.4">3</tspan><tspan x="201.68" y="92.4">2&quot;,</tspan><tspan x="0" y="105.6" xml:space="preserve">    </tspan><tspan class="cls-71" x="18.1" y="105.6">&quot;</tspan><tspan class="cls-51" x="22.25" y="105.6">a</tspan><tspan class="cls-60" x="28.47" y="105.6">g</tspan><tspan x="34.76" y="105.6">e&quot;: 3</tspan><tspan class="cls-40" x="60.72" y="105.6">5</tspan><tspan x="66.74" y="105.6">,</tspan><tspan x="0" y="118.8" xml:space="preserve">    </tspan><tspan class="cls-72" x="18.1" y="118.8">&quot;</tspan><tspan class="cls-73" x="22.91" y="118.8">e</tspan><tspan class="cls-74" x="28.75" y="118.8">y</tspan><tspan class="cls-34" x="34.54" y="118.8">eCo</tspan><tspan class="cls-74" x="53.1" y="118.8">l</tspan><tspan class="cls-75" x="56.3" y="118.8">o</tspan><tspan x="62.15" y="118.8">r&quot;: &quot;b</tspan><tspan class="cls-76" x="92.33" y="118.8">r</tspan><tspan class="cls-77" x="97.31" y="118.8">o</tspan><tspan class="cls-78" x="103.25" y="118.8">w</tspan><tspan x="111.75" y="118.8">n&quot;,</tspan><tspan x="0" y="132" xml:space="preserve">    &quot;na</tspan><tspan class="cls-79" x="35.55" y="132">m</tspan><tspan class="cls-34" x="44.24" y="132">e&quot;: </tspan><tspan class="cls-37" x="63.63" y="132">&quot;</tspan><tspan x="68.44" y="132">Ch</tspan><tspan class="cls-76" x="81.52" y="132">a</tspan><tspan class="cls-35" x="87.57" y="132">r</tspan><tspan class="cls-80" x="92.96" y="132">l</tspan><tspan x="95.98" y="132">e</tspan><tspan class="cls-60" x="102.08" y="132">n</tspan><tspan class="cls-34" x="108.19" y="132">e B</tspan><tspan class="cls-81" x="125.41" y="132">e</tspan><tspan class="cls-56" x="131.77" y="132">s</tspan><tspan class="cls-72" x="136.3" y="132">t</tspan><tspan x="141.17" y="132">&quot;,</tspan><tspan x="0" y="145.2" xml:space="preserve">    </tspan><tspan class="cls-41" x="18.1" y="145.2">&quot;</tspan><tspan class="cls-60" x="22.73" y="145.2">g</tspan><tspan x="29.02" y="145.2">e</tspan><tspan class="cls-82" x="35.12" y="145.2">n</tspan><tspan x="41.56" y="145.2">d</tspan><tspan class="cls-83" x="47.53" y="145.2">e</tspan><tspan x="53.88" y="145.2">r&quot;: </tspan><tspan class="cls-72" x="72.29" y="145.2">&quot;</tspan><tspan class="cls-33" x="77.1" y="145.2">f</tspan><tspan x="81.92" y="145.2">em</tspan><tspan class="cls-54" x="96.45" y="145.2">a</tspan><tspan class="cls-84" x="102.58" y="145.2">l</tspan><tspan class="cls-34" x="105.6" y="145.2">e&quot;,</tspan><tspan x="0" y="158.4" xml:space="preserve">    </tspan><tspan class="cls-85" x="18.1" y="158.4">&quot;</tspan><tspan class="cls-39" x="22.82" y="158.4">c</tspan><tspan class="cls-86" x="28.22" y="158.4">o</tspan><tspan x="34.24" y="158.4">mpa</tspan><tspan class="cls-51" x="55.01" y="158.4">n</tspan><tspan class="cls-34" x="60.95" y="158.4">y&quot;: &quot;ESCEN</tspan><tspan class="cls-87" x="119.52" y="158.4">T</tspan><tspan class="cls-88" x="125.88" y="158.4">A</tspan><tspan x="132.43" y="158.4">&quot;,</tspan><tspan x="0" y="171.6" xml:space="preserve">    </tspan><tspan class="cls-72" x="18.1" y="171.6">&quot;</tspan><tspan class="cls-34" x="22.91" y="171.6">email&quot;: </tspan><tspan class="cls-85" x="63.63" y="171.6">&quot;</tspan><tspan class="cls-89" x="68.35" y="171.6">c</tspan><tspan x="74.1" y="171.6">h</tspan><tspan class="cls-90" x="80.4" y="171.6">a</tspan><tspan class="cls-78" x="86.46" y="171.6">r</tspan><tspan class="cls-84" x="91.85" y="171.6">l</tspan><tspan x="94.86" y="171.6">e</tspan><tspan class="cls-91" x="100.97" y="171.6">n</tspan><tspan class="cls-92" x="107.07" y="171.6">e</tspan><tspan x="113.19" y="171.6">b</tspan><tspan class="cls-81" x="119.66" y="171.6">e</tspan><tspan class="cls-93" x="126.02" y="171.6">s</tspan><tspan x="130.55" y="171.6">t@</tspan><tspan class="cls-81" x="145.21" y="171.6">e</tspan><tspan class="cls-94" x="151.57" y="171.6">s</tspan><tspan class="cls-33" x="156.52" y="171.6">c</tspan><tspan class="cls-34" x="162" y="171.6">e</tspan><tspan class="cls-95" x="168.11" y="171.6">n</tspan><tspan class="cls-96" x="173.63" y="171.6">t</tspan><tspan class="cls-34" x="178.1" y="171.6">a</tspan><tspan class="cls-97" x="184.32" y="171.6">.</tspan><tspan class="cls-39" x="187.47" y="171.6">c</tspan><tspan class="cls-98" x="192.87" y="171.6">o</tspan><tspan x="198.89" y="171.6">m&quot;,</tspan><tspan x="0" y="184.8" xml:space="preserve">    &quot;ph</tspan><tspan class="cls-99" x="35.83" y="184.8">o</tspan><tspan class="cls-91" x="41.79" y="184.8">n</tspan><tspan x="47.89" y="184.8">e&quot;: &quot;+1 (8</tspan><tspan class="cls-57" x="98.12" y="184.8">4</tspan><tspan class="cls-34" x="104.05" y="184.8">5) </tspan><tspan class="cls-100" x="118.94" y="184.8">5</tspan><tspan class="cls-34" x="125.12" y="184.8">62</tspan><tspan class="cls-101" x="138.27" y="184.8">-</tspan><tspan class="cls-34" x="143.28" y="184.8">2348&quot;,</tspan><tspan x="0" y="198" xml:space="preserve">    </tspan><tspan class="cls-71" x="18.1" y="198">&quot;</tspan><tspan class="cls-102" x="22.25" y="198">a</tspan><tspan class="cls-35" x="28.82" y="198">d</tspan><tspan class="cls-34" x="35.05" y="198">d</tspan><tspan class="cls-61" x="41.02" y="198">r</tspan><tspan class="cls-35" x="45.91" y="198">e</tspan><tspan x="52.27" y="198">s</tspan><tspan class="cls-103" x="57.33" y="198">s</tspan><tspan x="61.81" y="198">&quot;: &quot;114 Mel</tspan><tspan class="cls-90" x="119.45" y="198">r</tspan><tspan class="cls-104" x="124.42" y="198">o</tspan><tspan x="130.21" y="198">se St</tspan><tspan class="cls-61" x="158.04" y="198">r</tspan><tspan x="162.93" y="198">e</tspan><tspan class="cls-72" x="169.03" y="198">e</tspan><tspan class="cls-105" x="174.65" y="198">t</tspan><tspan x="178.57" y="198">,</tspan><tspan class="cls-106" x="181.69" y="198"> </tspan><tspan class="cls-107" x="185.23" y="198">V</tspan><tspan class="cls-54" x="191.55" y="198">a</tspan><tspan x="197.67" y="198">l</tspan><tspan class="cls-89" x="201.3" y="198">m</tspan><tspan class="cls-108" x="209.74" y="198">y</tspan><tspan x="214.87" y="198">,</tspan><tspan class="cls-109" x="218" y="198"> </tspan><tspan class="cls-34" x="221.77" y="198">A</tspan><tspan class="cls-110" x="229.19" y="198">r</tspan><tspan x="234.61" y="198">iz</tspan><tspan class="cls-99" x="243.88" y="198">o</tspan><tspan x="249.83" y="198">na, 6022&quot;,</tspan><tspan x="0" y="211.2" xml:space="preserve">    </tspan><tspan class="cls-71" x="18.1" y="211.2">&quot;</tspan><tspan class="cls-51" x="22.25" y="211.2">a</tspan><tspan x="28.47" y="211.2">b</tspan><tspan class="cls-98" x="34.94" y="211.2">o</tspan><tspan class="cls-41" x="40.96" y="211.2">u</tspan><tspan class="cls-72" x="46.42" y="211.2">t</tspan><tspan x="51.29" y="211.2">&quot;: &quot;Ei</tspan><tspan class="cls-111" x="79.27" y="211.2">u</tspan><tspan class="cls-34" x="85.72" y="211.2">sm</tspan><tspan class="cls-112" x="99.2" y="211.2">o</tspan><tspan class="cls-34" x="105.43" y="211.2">d </tspan><tspan class="cls-52" x="115.92" y="211.2">v</tspan><tspan x="121.28" y="211.2">e</tspan><tspan class="cls-72" x="127.38" y="211.2">l</tspan><tspan class="cls-113" x="130.52" y="211.2">i</tspan><tspan x="132.78" y="211.2">t </tspan><tspan class="cls-72" x="142.66" y="211.2">e</tspan><tspan x="148.28" y="211.2">t do</tspan><tspan class="cls-114" x="169.8" y="211.2">l</tspan><tspan class="cls-60" x="173" y="211.2">o</tspan><tspan x="178.85" y="211.2">r ci</tspan><tspan class="cls-115" x="197.31" y="211.2">l</tspan><tspan class="cls-116" x="200.77" y="211.2">l</tspan><tspan class="cls-98" x="203.8" y="211.2">u</tspan><tspan class="cls-90" x="210.27" y="211.2">m</tspan><tspan class="cls-117" x="218.54" y="211.2">.</tspan><tspan x="221.5" y="211.2" xml:space="preserve"> Si</tspan><tspan class="cls-97" x="235.88" y="211.2">n</tspan><tspan x="241.4" y="211.2">t e</tspan><tspan class="cls-72" x="257.38" y="211.2">l</tspan><tspan class="cls-66" x="260.52" y="211.2">i</tspan><tspan x="262.78" y="211.2">t ci</tspan><tspan class="cls-118" x="281.47" y="211.2">l</tspan><tspan class="cls-119" x="284.92" y="211.2">l</tspan><tspan class="cls-120" x="287.95" y="211.2">u</tspan><tspan x="294.42" y="211.2">m </tspan><tspan class="cls-121" x="307.37" y="211.2">u</tspan><tspan class="cls-48" x="313.79" y="211.2">l</tspan><tspan class="cls-55" x="317.25" y="211.2">l</tspan><tspan class="cls-34" x="320.14" y="211.2">am</tspan><tspan class="cls-39" x="334.78" y="211.2">c</tspan><tspan class="cls-34" x="340.18" y="211.2">o </tspan><tspan class="cls-33" x="350.38" y="211.2">i</tspan><tspan x="353.2" y="211.2">ps</tspan><tspan class="cls-98" x="364.38" y="211.2">u</tspan><tspan x="370.85" y="211.2">m do</tspan><tspan class="cls-114" x="395.45" y="211.2">l</tspan><tspan class="cls-60" x="398.65" y="211.2">o</tspan><tspan class="cls-122" x="404.5" y="211.2">r</tspan><tspan class="cls-34" x="409.39" y="211.2">e </tspan><tspan class="cls-53" x="420.02" y="211.2">e</tspan><tspan class="cls-34" x="425.79" y="211.2">x </tspan><tspan class="cls-123" x="436.75" y="211.2">l</tspan><tspan class="cls-92" x="439.65" y="211.2">a</tspan><tspan x="445.88" y="211.2">b</tspan><tspan class="cls-75" x="452.35" y="211.2">o</tspan><tspan class="cls-124" x="458.2" y="211.2">r</tspan><tspan class="cls-98" x="463.63" y="211.2">u</tspan><tspan class="cls-34" x="470.1" y="211.2">m ea dui</tspan><tspan class="cls-125" x="515.06" y="211.2">s</tspan><tspan class="cls-119" x="519.46" y="211.2">.</tspan><tspan class="cls-34" x="522.43" y="211.2" xml:space="preserve"> O</tspan><tspan class="cls-126" x="535.26" y="211.2">c</tspan><tspan class="cls-127" x="540.52" y="211.2">c</tspan><tspan class="cls-128" x="545.85" y="211.2">a</tspan><tspan class="cls-129" x="551.82" y="211.2">e</tspan><tspan class="cls-127" x="558.11" y="211.2">c</tspan><tspan class="cls-130" x="563.44" y="211.2">a</tspan><tspan class="cls-34" x="568.89" y="211.2">t </tspan><tspan class="cls-131" x="578.77" y="211.2">a</tspan><tspan class="cls-34" x="585.35" y="211.2">d</tspan><tspan class="cls-132" x="591.32" y="211.2">i</tspan><tspan class="cls-34" x="594.13" y="211.2">pis</tspan><tspan class="cls-133" x="608.38" y="211.2">i</tspan><tspan class="cls-34" x="611.2" y="211.2">ci</tspan><tspan class="cls-75" x="620" y="211.2">n</tspan><tspan class="cls-34" x="626.11" y="211.2">g </tspan><tspan class="cls-133" x="636.75" y="211.2">p</tspan><tspan class="cls-76" x="642.62" y="211.2">r</tspan><tspan class="cls-134" x="647.59" y="211.2">oi</tspan><tspan class="cls-34" x="657.12" y="211.2">de</tspan><tspan class="cls-127" x="669.19" y="211.2">n</tspan><tspan class="cls-135" x="674.71" y="211.2">t </tspan><tspan class="cls-136" x="684.59" y="211.2">l</tspan><tspan class="cls-51" x="687.49" y="211.2">a</tspan><tspan class="cls-135" x="693.71" y="211.2">b</tspan><tspan class="cls-75" x="700.18" y="211.2">o</tspan><tspan class="cls-137" x="706.03" y="211.2">r</tspan><tspan class="cls-135" x="711.45" y="211.2">is ci</tspan><tspan class="cls-118" x="732.91" y="211.2">l</tspan><tspan class="cls-119" x="736.36" y="211.2">l</tspan><tspan class="cls-98" x="739.39" y="211.2">u</tspan><tspan class="cls-135" x="745.86" y="211.2">m </tspan></text><path class="cls-12" d="M161.75,641l-2,0c-1.5,0-2-.46-2-2l-.13-7c0-1.5.46-2.51,2.46-2.54l6.5-.12c2,0,2.26,1,2.29,2.21l0,2.25"/><path class="cls-4" d="M163.15,634.5l7,2a18.15,18.15,0,0,0-3.5,1.5,18.15,18.15,0,0,0-1.5,3.5Z"/><line class="cls-12" x1="170.15" y1="641.5" x2="165.65" y2="637"/><path class="cls-12" d="M187.15,632.5v-4c0-1,0-1,1-1h9c1,0,1,0,1,1v13c0,1,0,1-1,1h-7"/><rect class="cls-12" x="184.15" y="632.5" width="6" height="10" rx="1" ry="1"/><line class="cls-12" x1="184.15" y1="633.5" x2="190.15" y2="633.5"/><line class="cls-12" x1="184.15" y1="641.5" x2="190.15" y2="641.5"/></g><g id="Layer_6" data-name="Layer 6"><polygon class="cls-4" points="644.87 489.31 644.6 488.8 644.53 488.8 644.84 489.36 644.87 489.31"/><path class="cls-4" d="M690.49,454.76c-10,16.19-26,26.91-41,35.21,14.18,8.38,30.52,16.65,48.34,17.21,23.42.72,43.39-12.16,61-39.41l.33.21a116.65,116.65,0,0,0-69.91-87.05C702.71,409.42,703.12,434.25,690.49,454.76Z"/><path class="cls-4" d="M637.85,431.76c9,17,10.09,37,9.7,54.72,14.54-8.05,30-18.4,39.54-33.82,12.29-20,11.34-44.52-2.84-73l.83-.42a116.62,116.62,0,0,0-111.16,16.55C605.11,398.53,626.61,410.61,637.85,431.76Z"/><path class="cls-4" d="M699.51,511.24c-21,0-40-10.6-53-18.36-.17,16.7,1.06,35.46,9.57,51.09,11,20.17,32.37,31.2,63.56,32.76l0,.81a116.26,116.26,0,0,0,41.38-89,117.71,117.71,0,0,0-1-15.23C740.23,502.14,719,511.24,699.51,511.24Z"/><path class="cls-4" d="M652.59,545.88c-9-16.6-10.26-36.23-10.05-53.6-14.31,8.3-29.57,18.9-38.72,34.46-11.8,20-10.36,44.38,4.28,72.29l-.19.1A116.65,116.65,0,0,0,716,580.5C685.18,578.22,663.86,566.59,652.59,545.88Z"/><path class="cls-4" d="M600.37,524.71c9.54-16.22,25.17-27.17,39.85-35.7-14.34-8.47-31.13-16.64-49-17-23.16-.44-43.69,12.81-61,39.42a116.72,116.72,0,0,0,72.48,85.83C589.15,569.56,588.35,545.16,600.37,524.71Z"/><path class="cls-4" d="M591.3,468c19.33.37,37.18,9.3,52.25,18.31.38-17.17-.63-36.52-9.23-52.71-11-20.72-32.76-32.2-64.62-34.12l0-.34A116.26,116.26,0,0,0,528,488.5a118.22,118.22,0,0,0,1.27,17.25C546.87,480.27,567.72,467.59,591.3,468Z"/></g></svg>