<svg id="Layer_2" data-name="Layer 2" xmlns="http://www.w3.org/2000/svg" viewBox="0 0 1280 1024"><defs><style>.cls-1,.cls-3,.cls-4{fill:none;stroke:#fff;stroke-miterlimit:10;}.cls-1{stroke-width:5px;}.cls-2{fill:#fff;}.cls-3{stroke-width:3px;}.cls-4{stroke-width:4px;}</style></defs><title>what_about_ruby</title><path class="cls-1" d="M672.38,796c3.87,17.68,8.59,94.53,7.73,105.31"/><path class="cls-1" d="M736.82,790c.43,18.55-.43,101.43,9.45,120"/><path class="cls-2" d="M745.09,904.54v5c1.51,0,2.93.11,4.18.21l.48,0,4,.28c11.16.74,23.82,1.58,32.92,10,8,7.46,8.63,22.4,7.33,26.83-3.39.19-10.72.47-19.34.47-29.68,0-40.43-3.41-42-5.25-4.13-8.33-3.13-13.35.76-25.48,1.6-5,5.09-7.14,11.67-7.14v-5m0,0c-5.94,0-13.51,1.49-16.43,10.61-3.87,12.08-5.59,19-.43,29.33,3.28,6.58,27.74,7.93,46.45,7.93,10.72,0,19.55-.44,21.42-.6,5.16-.43,5.59-24.58-6-35.36s-27.52-10.69-40-11.65c-1.37-.1-3.13-.26-5-.26Z"/><path class="cls-2" d="M680.19,903.19A36.47,36.47,0,0,1,692.93,906c2.13.81,7.82,6.67,9.3,16.36,1.17,7.61-.65,13.66-13.6,23.77-4.94,3.86-13.45,6.16-22.76,6.16a61.41,61.41,0,0,1-11.46-1.1c-6.48-1.23-7-4.46-7-14.14,0-4,0-8.13-1.11-12.05-.71-2.55,3-6,5.23-7.76,4.56-3.64,10.83-6.94,15.88-9.6,1.61-.84,3.13-1.64,4.44-2.37a16.66,16.66,0,0,1,8.38-2.1m0-5a21.81,21.81,0,0,0-10.82,2.73c-9.39,5.24-30.93,14.66-27.92,25.45s-3.87,26.74,12,29.76a67.27,67.27,0,0,0,12.39,1.18c10.84,0,20.18-2.8,25.84-7.22,12.42-9.7,17.19-17.25,15.47-28.47s-8.43-18.73-12.46-20.27a41.36,41.36,0,0,0-14.53-3.16Z"/><path class="cls-1" d="M789.66,439.16c3.44,6.87,11.17,40.54,11.17,51.28s.86,73.47,3,78.63"/><path class="cls-3" d="M615.4,443.88c-2.15,5.15-21.21,36.68-25.93,44.42s-38.92,52.53-41.93,59"/><path class="cls-4" d="M747.13,347c4,2.29,13.32,3.86,19.76,13.74s37.81,61,40.81,64.44-30.07,24.06-33.08,21.05S758.73,422.57,758.3,420s-2.58-19.33-2.58-22.34c0-4.08,8.59,101.39,9.88,113s2.58,87.64,6.45,104.4,11.6,99.24,19.33,112.12,12.89,42.53,11.6,50.27-38.67,16.75-99.24,18S600.64,798,601.92,781.28,622.55,722,629,701.38s14.18-76,15.46-92.8,3.87-92.79,3.87-109.54,1.56-72.93,1.56-82"/><path class="cls-4" d="M647,349.53c-5.58.86-11.6,2.58-16.32,7.31S595.05,420,594.19,424.28s33.08,32.65,36.09,29.22,6.87-6.88,9.88-13.75,9.45-18.47,9.88-24.06"/><path class="cls-4" d="M614.81,271.87c-4.6,1.56-15.46,0-15.89-7.17s-3.87-29.91-3.87-35.89-2.15-23.12,3.44-26.31"/><path class="cls-4" d="M607.5,206.91c.89,7.42,3,53.6,7.12,82.65,1.85,13,3.5,23.17,4.49,26,9,26.2,58.85,43,75.61,40.38,28.46-4.38,59.71-21.48,65.3-30.07s14.89-43,17-53.29"/><path class="cls-3" d="M679.68,229.25c-6,2.57-13.74,10.31-15.46,15.46S662.93,258,666.36,264s9.89,12,15.9,10.74,12-5.15,18.47-9.88"/><path class="cls-2" d="M670.23,189.78c-.15,3.13-2.47,3.1-6.33,3.24-6.5.24-7.85-3.15-18.16-2.78-4.72.18-16.91,7.93-19.13,5.86S642.13,185.65,647.7,185,670.47,184.61,670.23,189.78Z"/><path class="cls-2" d="M700,188.06c-.37,5.21,8.05,3.26,11.06,1.78s7.89-3.41,15.61-2.43,19.75,6.07,20.15,4.4c.5-2.08-15.07-7.16-20.6-8.05C720.88,182.9,700.51,181.28,700,188.06Z"/><path class="cls-3" d="M666.36,205.62c4.34,1.62,7.74,18.9,5.16,24.06s-16.75,12.88-21.48,12-22.77-.85-23.2-13.74S632,203.9,643.6,203.9,659.49,203,666.36,205.62Z"/><path class="cls-3" d="M720.06,201.32c8.15.63,21.48,7.74,22.77,13.75s0,12-3,15-11.17,11.59-19.77,11.59-18-5.58-21-10.74-4.29-20.62,2.15-24.48S714.48,200.89,720.06,201.32Z"/><path class="cls-2" d="M718.35,216.79c3.27,0,4.29,1.29,5.15,4.72s-2.58,6.88-5.15,7.31-8.6-3.87-8.17-6S714.48,216.79,718.35,216.79Z"/><path class="cls-2" d="M648.75,215.93c3.44.38,5.16.86,6,4.72s-.86,6.88-4.73,7.31-8.16-3.87-8.16-6S644.88,215.5,648.75,215.93Z"/><path class="cls-2" d="M714.27,296.91c4.93-2,9.88,4.72,1.28,9.88s-15.46,9.88-23.62,9.88-30.75-6.31-32.65-12c-2.15-6.44,8-1.38,30.07-2.15C701.81,302.06,707.82,299.49,714.27,296.91Z"/><path class="cls-2" d="M696.21,40.85h0c.78,0,1.58,0,2.38.13,6.64.69,15.1,8.24,21.9,14.32,5.77,5.14,9.93,8.86,13.73,9.62,1.58.32,3.59,2.41,5.37,5.59A40.42,40.42,0,0,1,744.39,87c-4.92-1.46-17.3-7.69-31.27-16.42-5.46-3.41-23.57-6.75-31-6.75a18.33,18.33,0,0,0-2.79.19c-2.35.4-7.45,1.78-13.36,3.39-5,1.36-11.9,3.23-16.29,4.2A19.8,19.8,0,0,1,652.83,66c1.28-1.76,2.49-3.42,2.12-5.68s5.22-10.27,11.73-11.4a81.94,81.94,0,0,0,16-4.73c4.93-1.88,8.82-3.36,13.51-3.36m0-4c-10.06,0-16.76,5.83-30.21,8.15-8,1.37-15.86,10.84-15,16,.3,1.81-6,6-6,15,0,.2.29.29.81.29,4.73,0,28.79-7.39,34.19-8.29a13.84,13.84,0,0,1,2.13-.14c7.44,0,24.51,3.41,28.87,6.14,7.54,4.71,29,17.36,35.06,17.36a2.52,2.52,0,0,0,.93-.15C751.28,89.49,745,63,735,61c-6.79-1.36-22.75-22.62-36-24a26.94,26.94,0,0,0-2.79-.15Z"/><path class="cls-4" d="M694,123.91c-2.44,1.6-6.47,5.06-7.78,5.67-3.72,1.72-4.55,9-12.39,5.15S644.08,123.14,643.26,121s-5.37-3.87-12.81,9-20.55,32.36-20.6,40.88,4.9,33.05-1.7,34.1-12.39,4.49-12.8-8-8.68-14.18-8.68-23.2,0-31.79,5-47.26S613.11,82.32,619.71,81s43.37-10.31,60.1-14.39c22.11-5.39,50.8,21.48,62,22.34s33.45,19.76,35.93,22.77S800.2,157.5,801,169.1s2.07,38.24-1.65,43.39-7.85,16.33-12,8.16-4.54-36.08-11.15-41.24-26-17.18-30.15-23.2S711.94,121,703.68,120.13"/><path class="cls-4" d="M694,123c-3.23,5.64-1.43,3.57-1.43,8.3,0,5-2.58,11.6,0,12.46.41.13,5.16-11.6,5.16-13.32s5.15-8,5.58-12.32"/><path class="cls-4" d="M794.77,219c0,8-1,17.66-1.24,22.66-.43,7.74-3.87,18.48-5.16,23.63s-2.08,11.27-9,8.43-7.76-11.86-9-14.87"/><path class="cls-4" d="M772.91,212.49c2.14-4.29,4.43-12,9.59-12"/><path class="cls-4" d="M773.25,230.48c3.12-1.88,8.79.53,7.68,5.73s-.85,13.34-5.77,12.51"/><path class="cls-4" d="M790.24,591.48c-.36-3.94-3.16-8.12-1.87-9.53,4.73-5.16,10.38-13.25,18.08-15,7.93-1.81,20.59,8.12,20.59,17.58s4.29,30.5,0,36.08-17.19,13.75-22.34,10.74-11.61-8.59-9.89-12"/><path class="cls-4" d="M790.52,589.25c-1.29,2.58-4.3,3.87-6,9.45s-6.87,18.48-3.86,20.19,12.89,5.16,15.46-1.71,9-13.32,9-13.32"/><path class="cls-2" d="M487.35,533.73c3.9,0,9.07,2.9,13.62,5.47,4.8,2.7,8.94,5,12.68,5a7.51,7.51,0,0,0,2.75-.49,39,39,0,0,1,14.17-2.92c7.44,0,12.18,2.68,14.34,4.28,3.51,2.6,5,8.56,5.26,12.88.22,4.13-6,12.59-9.66,15-3,2-24.91,9.92-33.14,12.9-2.9,1-4.31,1.56-4.79,1.75-.77.3-4.4,1.26-8.68,2.19,1.76-.66,3.33-1.27,4.56-1.75,1.65-.54,2.86-.95,3.76-1.26,1.51-.54,3.78-1.34,3.42-3.88l-.42-2.58h-2.59c-.82,0-1.32.18-5.55,1.82l-.64.25-.95.31c-4.74,1.56-11.2,3.68-15.52,5.48a41.9,41.9,0,0,1-6.48,1.44,36.63,36.63,0,0,1,4.29-2.38c6.68-2.16,13.72-5.22,18.39-7.26l.11,0c5-1.76,5.6-2,6.18-3.42l.51-1.26-.6-1.21a3,3,0,0,0-2.74-1.7c-.91,0-1.61.29-5.55,2l-.43.15c-4.91,1.74-12.3,4.37-18.1,7.15a39.85,39.85,0,0,1-9.08,2,112.77,112.77,0,0,1,11.68-5.45c5.17-1.75,10.43-4,14-5.53,1.84-.71,3.44-1.33,4.59-1.8,1.94-.79,3.62-1.48,3.62-3.61l0-3h-3c-.9,0-1.47.25-5.18,1.88l-2.27,1-.61.23c-3.81,1.48-8.56,3.31-13.19,5.23-5.09,1.72-9,2.59-11.69,2.59-1.35,0-2.38-.26-2.5-.62a.62.62,0,0,1,0-.59c1.53-3,12.11-6.41,19.11-8.64,10.73-3.43,17.43-5.73,19.62-9.68a4.44,4.44,0,0,0,.38-3.44c-.85-2.92-4.33-4.8-9.15-7.39-3.58-1.93-9.59-5.17-9.83-7.4-.07-.58.51-1.44,1.59-2.38a5.39,5.39,0,0,1,3.73-1.32m0-3a8.38,8.38,0,0,0-5.7,2.06C470,542.88,500.91,549,498,554.21c-4.05,7.31-42.36,11.4-39,21.33.64,1.89,2.61,2.65,5.34,2.65,3.42,0,8-1.19,12.74-2.78,4.91-2,10-4,13.89-5.5,3.51-1.53,6-2.65,6.31-2.65,0,0,0,0,0,0,0,.17-2.57,1.18-6.35,2.63-3.82,1.67-8.9,3.81-13.89,5.5-8.81,3.67-16.95,7.59-15.93,9.45.71,1.3,2.34,1.84,4.55,1.84,2.91,0,6.82-.93,11-2.25,5.89-2.84,13.68-5.58,18.52-7.3a34.53,34.53,0,0,1,4.45-1.8s.05,0,.05,0-1.73.8-4.5,1.78c-4.54,2-11.82,5.16-18.52,7.3-5.17,2.5-8.88,5.09-7.83,7.14.42.81,1.54,1.15,3.13,1.15a36.58,36.58,0,0,0,9-1.71c4.51-1.9,11.63-4.21,16.48-5.8a52.51,52.51,0,0,1,5.17-1.9h.05a35.21,35.21,0,0,1-5.22,1.89c-4.38,1.69-10.81,4.16-16.48,5.8-2.55,1.07-4.26,2-4.26,2.62,0,.86,1.32,1.2,3.37,1.2,6.85,0,21.9-3.77,23.61-4.45,2.22-.89,34.27-12.17,38.46-14.94s11.31-12.15,11-17.64-2.23-12-6.47-15.13a27.08,27.08,0,0,0-16.13-4.87,41.85,41.85,0,0,0-15.27,3.12,4.4,4.4,0,0,1-1.65.29c-6.4,0-17.59-10.5-26.3-10.5Z"/><path class="cls-2" d="M586.93,319.84c-8.35-6.68-25-10-57.29-10.57,0,0-55.62.55-62.85.55s-45.6,10.77-46.61,11.79c-11,11.06-54.67,67.71-55.18,73.31C364.45,401,513.51,576.8,516.85,576.25s122.36-183,121.8-187.44S595.27,326.51,586.93,319.84Zm-2.23.55-38.38,16.69-79.53,1.67s-41.72-13.91-43.94-15l4.65-1.12L466,335.84l79-1.63,35-15.6ZM519,572l-2.15,2L555,410H452l61.6,158L445,409l-74-10-1-2.41,75.57,8,20.65-62.53-14.14,61.81L555,405l-7-62.36L561,404l73.2-14.08L635,392l-74,17Z"/></svg>