<svg xmlns="http://www.w3.org/2000/svg" viewBox="0 0 1280 1024"><defs><style>.cls-1,.cls-2,.cls-4,.cls-5,.cls-6{fill:none;stroke:#fff;}.cls-1,.cls-2,.cls-4,.cls-5{stroke-miterlimit:10;}.cls-1{stroke-width:4px;}.cls-2,.cls-6{stroke-width:3px;}.cls-3{fill:#fff;}.cls-5{stroke-width:2px;}.cls-6{stroke-linejoin:bevel;}</style></defs><title>worried-teacher</title><g id="Layer_4" data-name="Layer 4"><path class="cls-1" d="M673.1,702.25c-1.08,3.18-.82,20.83-.59,25.62S671,772.73,674,777.38s21,4.57,21.74.53,2.71-21.73,1.29-31.26-.87-12.94-2.18-20.48"/><path class="cls-1" d="M578.2,693.61c-1.09,9.89-1.84,19.23-1.84,21.33,0,4.78-9.83,50.23-7.86,52.62s15.73,7.18,21.63,2.39c3.91-3.17,8.68-43.78,11.17-71.53"/><path class="cls-1" d="M628.74,702.65c-1.12,13.89-2.24,46-2.24,50.85,0,6-4,56-1,62s22,7,23,2,4-27,3-39c-.86-10.3,1.23-57.53,1.21-75.83"/><path class="cls-1" d="M540.5,682.5c-3.07.77-7,44-7,50s-10,63-8,66,16,9,22,3,14-109,13-112"/><path class="cls-1" d="M590.5,468.5c0-3-4-7-7-8.5s-32-8.5-39-9.5c-10-1.42-15-2-15,14s0,67,3,87,4,49,2,59-11,50-8,58,11,18,29,22,73,17,84,15c4.81-.87,14.69-2.28,27-5.12"/></g><g id="Layer_2" data-name="Layer 2"><path class="cls-1" d="M643.7,542.31c3.85,1.92,24.8,17.23,30.58,19.16s44.26,8.49,54.86,5.6"/><path class="cls-1" d="M657,521c2.89,4.81,17.31,21.2,23.09,24.09s33.3,11.24,42.14,9.47"/><path class="cls-1" d="M753.31,550.87c-1-4.82-2.89-8.67-7.71-10.6-3.69-1.48-17.35,7.71-19.28,9.64s-6.74,6.74-6.74,9.63,0,4.82,6.74,5.79a47.14,47.14,0,0,0,5.16.4"/><path class="cls-1" d="M708.32,647.31c-5.8-.51-11.69-1-15.73-2-7.71-1.92-48.18-13.49-51.07-18.31s-5.79-13.49-9.64-17.34-12.53-46.26-11.57-51.08c.3-1.5,1.54-4.63,3.09-11.23"/><path class="cls-1" d="M600.08,463.17c-10.6,3.86-10.6,8.68-13.5,10.6s-12.52,34.7-13.49,39.52-7.71,28.91-8.67,32.76-2.89,25.06-3.86,31.8S549,619.29,549,627s0,31.81,6.75,39.52,17.34,15.41,25,15.41S593.33,679,601,680s32.77,10.6,42.4,13.49,24.1,5.78,33.73,11.56,14.46,18.31,21.21,24.1,16.38,52,13.49,63.6c-1.61,6.42.94,9,6,9.82"/><path class="cls-2" d="M647.08,483.19c3.86,2.89,18.53,21.42,21.42,23.35s7.71,2.89,3.85,4.82-7.7,3.85-9.63,5.78-6.78,5-7.64,6.71"/><path class="cls-2" d="M623.21,494c2.89,3.86,12.52,8.67,15.41,13.49s6.75,11.57,9.64,12.53,9.23,2.47,8.47,5.09-7.5,10.33-9.43,13.22-5.78,8.68-5.78,12.53-1.93,8.67-6.75,6.75-18.31-14.46-21.2-17.35S603,528.7,600.08,528.7"/><path class="cls-2" d="M678.14,371.62c-4.82-2.89-20.24-19.27-34.7-18.31s-33.73,14.46-40.47,26S591.4,408.24,590.44,416s3,35.55,7.82,42.3c3.17,4.43,21.09,21.31,30.73,19.38s18.31-1,28-7.71,14.45-11.57,16.38-18.31,3.41-19.18,3.85-23.13c.49-4.34,13.53-28,11.6-34.73"/><path class="cls-3" d="M620.31,320.51c8.49-4.25,22.17-3.86,27,0s10.82,13,8.67,13.2c-4,.29-22.16,4.71-27,6.64s-18,11.65-21.2,14.56c-2.15,1.94-6.75,6.07-4.82-2.6s0-12.53,5.78-20.24S616.46,322.43,620.31,320.51Z"/><path class="cls-3" d="M701.3,369.73c-1-5.78-3.11-13.57-8.67-15.42a7.91,7.91,0,0,0-2.8-.43c2.65,6.29,5.35,13.64,2.8,18.74C689.74,378.4,691,382.9,687,384c-1.83.51-5.21.39-8.81-.16a59.13,59.13,0,0,1,2.86,7.07c1,3.86,7.71,3.86,12.53,4.82s5.79-2.89,7.71-5.78S702.27,375.51,701.3,369.73Z"/><path class="cls-4" d="M618.39,401.5c-1.93-1-3.54-3.54-5.62-1.77s-5,5.62-2.09,8.51,3.85,2.89,5.78,2.89"/><path class="cls-3" d="M662.72,392.82c-1,1.93-4.82,0-6.75-1s-4.82-2.89-7.71-2.89-6.74,2.89-7.71,1.92,4.82-4.81,8.68-4.81,5.78,1,8.67,1.92S663.68,390.89,662.72,392.82Z"/><path class="cls-3" d="M675.25,393.79a2.63,2.63,0,0,0,1.92,3.85c1,0,4.34,2.41,5.79,3.86s2.4,4.33,3.13,3.61-.45-3.44-1.21-4.58a35.76,35.76,0,0,0-4.82-5.78C678.54,393.23,676.21,391.86,675.25,393.79Z"/><path class="cls-3" d="M679.58,402.94c-4.91-2.73-8.67,1.93-9.63,4.82-.8,2.4-2.58,6.43-3.17,9.4a3.08,3.08,0,0,1,.27.24,8.21,8.21,0,0,1,2.19,7.6,5.08,5.08,0,0,0,1.19.59c2.89,1,3.85,1,5.78,0s5.14-8.68,5.46-11.08S683.92,405.35,679.58,402.94Zm-4.33,13a3.09,3.09,0,0,1-2.9-2.89c0-1.36,1.53-3.86,2.9-3.86,1,0,2-.65,2.89,1.93C679.1,414,677.17,416,675.25,416Z"/><path class="cls-3" d="M652.12,393.79c-3.86-1-8.39-.81-10.6,2.89-2.9,4.82-2.9,8.67-3.86,13.49-1,5.09,1.93,8.67,4.82,9.64,2,.68,8.67,1.92,11.56-1,3.86-3.85,3.86-10.6,4.82-14.45S656.88,395,652.12,393.79Zm-4.82,14.45a3.84,3.84,0,0,1-2.89-4.82c.48-2.41,1.92-4.82,4.82-3.85a3.87,3.87,0,0,1,2.89,3.85C652.12,405.35,649.71,408.72,647.3,408.24Z"/><path class="cls-2" d="M766.57,566.41c5.82-1.27,12.1-3.36,12.93-3.91,3.72-2.48,6,20,3,22s-53,5-57,2-1-6-3-9,0-6,3-5c1.62.54,16.45-1.85,30.17-4.47"/><path class="cls-3" d="M656.82,462.78c3,2.68,2.47-12.61.82-14.84s-3.29-2.23-5.75-3-3.29-3-6.58-3a13.88,13.88,0,0,0-9,3.71c-2.47,2.23-9.46,7.8-11.1,10s10.13-.66,12.33,0a28.78,28.78,0,0,1,4.94,2.23c1.47.66,6.58.74,8.22,1.48A62.93,62.93,0,0,1,656.82,462.78Z"/><path class="cls-3" d="M754.53,554.56a8.83,8.83,0,0,1,5.16,1.51c1.78,1.2,2.23,5,2.52,7.57a13.53,13.53,0,0,0,1,4.4c.27.53.57,1.13-.51,3.41a7.26,7.26,0,0,1-2.48,2.92c-.14-.51-.26-1.06-.34-1.44a14.31,14.31,0,0,0-1-3.43c-1.69-3.37-4.37-5.31-7.36-5.31a8.88,8.88,0,0,0-6.28,3c-3,3-8.91,3.92-13.22,4.57a13,13,0,0,1-1.64.16c0-.21,0-.48,0-.83,0-1.48,2.19-3.58,4.51-5.8.66-.63,1.34-1.29,2-2,2.86-2.85,10.94-8.74,17.71-8.74m0-4c-8.54,0-17.57,7-20.53,9.91-3.86,3.86-7.71,6.75-7.71,10.6,0,3.2.66,4.83,3.92,4.83a15.41,15.41,0,0,0,2.34-.21c5.3-.8,11.6-1.84,15.45-5.69a5.05,5.05,0,0,1,3.45-1.81c1.89,0,3.15,1.83,3.78,3.1,1,1.93.93,7.49,3.82,7.49s5.78-2.57,7.23-5.62,1.45-5,.48-6.91-.17-10.33-4.82-13.49a12.86,12.86,0,0,0-7.41-2.2Z"/><path class="cls-2" d="M657.42,414.51c2.89-1,6.59-.16,9.63,2.89,3.38,3.37,2.58,7.8,1,11.56-1.45,3.37-5.78,5.78-9.64,5.78s-9.64-1.92-10.6-3.85"/><path class="cls-4" d="M625.13,390.89c-6.74-2.89-11.56-4.81-15.42-3.85s-6.74,1-6.74,4.82-2.89,13.49-1.93,18.31,3.86,10.6,7.71,9.64,6.75,1,8.67-2.9"/><path class="cls-3" d="M686.77,350.42c-2.89-6.75-12.35-11.1-17.34-12.53-6.75-1.93-17.31-2.89-31.77,1.93S612.6,352.35,601,362s-16.38,31.81-20.24,43.37,1.93,31.8,8.68,33.73,9.63-5.78,13.49-8.67c2-1.52.72-6.22,1.06-11-2.47-1.46-4.27-5.6-5-9.2-1-4.82,1.93-14.46,1.93-18.31s5.89-5.86,9.74-6.82c3.13-.78,6.89.34,11.79,2.33a19.9,19.9,0,0,1,3.67-2.33c2.89-1.93,19.2-9.57,23.06-11.49s10.56,1.89,15.38,4.78S681,383.15,685,382s2.73-4.62,5.62-10.4S689.67,357.16,686.77,350.42Z"/></g><g id="Layer_5" data-name="Layer 5"><path class="cls-3" d="M323.5,683.5c-9.64,4-22,11-31,7s-6-15-2-22,11-11.33,20.5-14.17,14.46-1.89,18.5,4.17S335.5,678.5,323.5,683.5Z"/><path class="cls-3" d="M231.5,681.5c-1.64,9.86,8,13,16,11s20-2,24-8,8-12,4-20-16-8-21-6S233.5,669.5,231.5,681.5Z"/><path class="cls-2" d="M309.29,562.1a15.89,15.89,0,0,1,.21,6.4c-1,8-8,37-8,41s-1,5,1,6S327,652,325,654s-28.5,9.5-28.5,7.5-23-37-24-44-1-23-1.5-29.5c-2.5,2.5-4.5,22.5-3.5,27.5s6,37,5,40-15,9-19,9-10,1-10-2-3-39-3-47,0-30,2-36c.8-2.4,1.44-5.44,2.11-8.48"/><path class="cls-2" d="M294.5,451.5c3.22,1.61,11,5,12,8s13,29,11,33c-1,2-11,1-17,1-4.12,0-3,0-4,4-1.08,4.34-3,20-2,25s8,22,9,26,8,9,5,11-24,12-34,12a147.28,147.28,0,0,1-25-2c-5-1-8-1-6-5s7-17,7-21,4-31,3-35c-.5-2-1-9-1.5-17-.07-1.12-8.5-1-11.5-1s-7,2-7-2c0-6,1-26,3-27s8-7,14-8"/><path class="cls-1" d="M241.5,490.5c0,3,1,20,6,19S255,484,254,480"/><path class="cls-1" d="M303.5,492.5c-1,9-10,18-15,21S275,489,277,482"/><path class="cls-5" d="M249.62,453.12c-1,2.92-1.14,9-1.15,13.82"/><path class="cls-5" d="M254.88,465.52a87.53,87.53,0,0,1,1.62-11"/><path class="cls-5" d="M249.72,476.81c.28,5.19-.05,13.78,1,14.31.75.38,3.75.38,4.75-.62.65-.65,0-6.87-.49-12.21"/><path class="cls-3" d="M252.82,467.57c1.12,0,1.48.34,1.59,1.51s.24,2,.36,2.8c.47,3.4.55,4.44-.87,5.93a1.78,1.78,0,0,1-1,.65c-.31,0-1.38-.9-1.88-3.68-.12-.64-.23-1.25-.34-1.82-.35-1.85-.79-4.15-.56-4.66a1.57,1.57,0,0,1,.63-.32,6.32,6.32,0,0,1,2.08-.41m0-3a9.33,9.33,0,0,0-3.09.58c-3.77,1.35-2.76,4.18-1.68,10.16.73,4,2.69,6.15,4.84,6.15a4.45,4.45,0,0,0,3.17-1.58c3.1-3.23,1.83-6.12,1.34-11.1a4.25,4.25,0,0,0-4.58-4.21Z"/><path class="cls-5" d="M285.79,454.15a18.5,18.5,0,0,0-2.29,5.35,56.91,56.91,0,0,0-.65,7"/><path class="cls-5" d="M288,469a45.55,45.55,0,0,1,3.5-12.5c1-2,4-4,1.25-5.75"/><path class="cls-5" d="M288.5,483.5V479"/><path class="cls-5" d="M282.7,480.87a35,35,0,0,0,.68,7.13,19.46,19.46,0,0,0,5.12,8.5c2,2,3.5,3.25,6.25,2.62s2.75-2.62,2.75-4.62"/><path class="cls-3" d="M283.81,468.51a3.53,3.53,0,0,1,2.57,1.11c1.91,1.91,1.72,6.83,1,7.76-1.16,1.16-4,2.05-6.26,2.77l-1.57.5a8.22,8.22,0,0,1-2.55.45c-.35,0-1.48,0-1.65-.55-.29-.87,0-1.53,1.16-4,.51-1.05,1.15-2.36,1.78-3.94a6.55,6.55,0,0,1,5.52-4.1m0-3a9.55,9.55,0,0,0-8.31,6c-2,5-4,7-3,10,.63,1.9,2.47,2.6,4.5,2.6a11.23,11.23,0,0,0,3.5-.6c3-1,7-2,9-4s2-9-1-12a6.5,6.5,0,0,0-4.69-2Z"/><path class="cls-2" d="M289,469c-1.5,13.5-1,10-1.5,23.5-.07,2,16,1,20,1"/><path class="cls-5" d="M259.5,413.5c-5-3-8-1-9,2s-2.24,8.76,0,11c2,2,8,4,10,3"/><path class="cls-3" d="M264.5,389.5c0,1,0,4,2,3s5-2,7-1c1.26.63,8,7,9,6s-3-6-5-8a12.25,12.25,0,0,0-7-3C268.26,386.5,264.5,387.5,264.5,389.5Z"/><path class="cls-3" d="M260,390c0,2,0,4-2,3s-3-2-6-3c-3.91-1.3-8,3-9,1s5-5,7-5,6,0,8,1S260,388,260,390Z"/><path class="cls-5" d="M249.55,433.39c-.47,1.33,2.37,10.79,1.5,11.9s.38,3,3.48,3.6,15.38,2.09,19.72-3.49,5.07-7.7,4.95-8.69.93-4.65-1.31-6.39-4.48,2.58-6.69,2.86a60.15,60.15,0,0,1-12.59.08C254.51,432.76,250.29,431.28,249.55,433.39Z"/><path class="cls-3" d="M263.57,440.69c-3,.38-9.42,5.22-10.28,6.34s2.84,2.46,6.09,2.38c3.77-.1,8.85.27,11.43-1.31s6.25-6.33,6.08-6.69S269.53,439.94,263.57,440.69Z"/><path class="cls-3" d="M276,398c1.86,1.24,2,4,1,7s-3,6-5,6-5-2-5-4-.41-7.59,1-9C269,397,273,396,276,398Z"/><path class="cls-3" d="M251,396.16c3,.5,3.29,4.61,2.79,7.56a4.64,4.64,0,0,1-5.75,4.12c-3-.5-3.29-4.61-2.79-7.56S247,395.51,251,396.16Z"/><path class="cls-2" d="M402.5,792.5c-6-4-26-10-27-15s10-591,10-591l25-6Z"/><polygon class="cls-2" points="177.5 149.5 407.5 180.5 385.5 186.5 177.5 164.5 177.5 149.5"/><polygon class="cls-2" points="178.5 918.5 154.5 932.5 149.5 117.5 177.5 149.5 178.5 918.5"/><polygon class="cls-6" points="420.5 158.5 148.5 114.5 177.5 149.5 410.5 180.5 420.5 158.5"/><path class="cls-2" d="M417.5,780.5c-.38,7.61-10.88,16.12-15,12s8-612,8-612l10-18S418.5,760.5,417.5,780.5Z"/><path class="cls-3" d="M312.57,358.51l0,.14,0-.14Z"/><path class="cls-3" d="M312.68,360.05a.31.31,0,0,1,0,.1.31.31,0,0,0,0-.1Zm0,.1a.28.28,0,0,1,0,.09.28.28,0,0,0,0-.09Z"/><path class="cls-3" d="M308.69,359.81l.31.09-.31-.08h0m3.88,1,0,.1,0-.1Z"/><path class="cls-3" d="M312.69,359.37v0Z"/><path class="cls-3" d="M308.83,359.53,311.3,361l-.07,0-2.4-1.43h0m3.48,2,0,.07,0-.07Zm0,.07a.43.43,0,0,0,0,.07.43.43,0,0,1,0-.07Z"/><path class="cls-3" d="M312.38,357.74l0,.05,0-.05Zm0,.05Zm0,0Zm0,0,0,.13,0-.13Z"/><path class="cls-3" d="M312,362.05l-.06.08.06-.08Zm-.06.08-.06.07.06-.07Z"/><path class="cls-3" d="M310.54,363.15a1.89,1.89,0,0,1-.21.09,1.89,1.89,0,0,0,.21-.09Zm-.21.09-.25.11.25-.11Z"/><path class="cls-3" d="M313.33,343.46c4.47,0,11.26,4.42,16.89,11,5.76,6.72,15.34,27,16.29,40.26.89,12.45,3,41.6,2.05,46.2-.13.65-2,2.64-7.06,4.68a38.33,38.33,0,0,1-13,2.91c-7.56,0-18.23-3.4-20-5.36a110.46,110.46,0,0,1,2.67-11.72,140.5,140.5,0,0,0,3.29-14.55c.36-2.89,1-8.19,1.65-14l.69-1.09c4.79-7.48,6.79-20.36,4.56-29.33-1.82-7.29-3.72-12.18-6.54-16.78a15.11,15.11,0,0,0-1.66-3c-2.48-3.45-3.81-6.42-3.95-7.54a5.54,5.54,0,0,0,.56-.7,6.43,6.43,0,0,1,3-.93,5.12,5.12,0,0,1,.56,0m0-3c-.28,0-.56,0-.83,0a9,9,0,0,0-5.06,1.93c0,.18-.2.46-.65.89-2.11,2,2.25,8.72,3.95,11.09a11.88,11.88,0,0,1,1.41,2.62c2.6,4.19,4.46,8.7,6.32,16.16,2.08,8.38,0,20.48-4.18,27l-1.07,1.7c-.64,6-1.33,11.51-1.72,14.62-.87,6.95-6,23-6,27s15,8,23,8,22-5,23-10-1-33-2-47-11-35-17-42c-5.73-6.68-13.3-12-19.17-12Z"/><path class="cls-3" d="M309.8,363.46l-.34.1.34-.1Zm-.34.1-.26.06.26-.06Z"/><path class="cls-3" d="M309.12,363.63a3.55,3.55,0,0,1-.64.06,3.55,3.55,0,0,0,.64-.06Zm-.64.06h0Z"/><path class="cls-4" d="M302.88,342.66c-4.33.37-7.29,3-5.84,7.45s5.68,10.05,8.54,12.49a4.36,4.36,0,0,0,5.74.07c2.53-1.84,1.12-5.89-.58-8.26s-6.06-9.09-3.95-11.09S305.57,342.42,302.88,342.66Z"/><path class="cls-3" d="M256.29,368.38l0,.17,0-.17Zm0,.17a.88.88,0,0,1,0,.17.88.88,0,0,0,0-.17Z"/><path class="cls-3" d="M256.14,369.84a1.5,1.5,0,0,0,0,.22,1.5,1.5,0,0,1,0-.22Zm0,.22v0Z"/><path class="cls-3" d="M256.14,372.62v0Z"/><path class="cls-3" d="M256.08,371.26v0Z"/><path class="cls-3" d="M256.86,365.44c0,.17-.09.33-.13.5,0-.17.09-.33.13-.5Z"/><path class="cls-3" d="M257.25,364l-.09.3.09-.3Zm-.09.3c0,.08-.05.16-.07.24,0-.08.05-.16.07-.24Z"/><path class="cls-3" d="M256.48,378.43a5.77,5.77,0,0,0,3.24,1.55c7.44,1.06,23.51,8,28.59,10.79,2.17,1.19,4.26,4.69,6.28,8.07,2.53,4.24,4.94,8.27,8.3,9.52a183.92,183.92,0,0,1-1.38,20.13c-.92,8.08-8.51,19.35-11.41,22.18-1.57,1.54-8.44,3.33-22.6,3.33-8.1,0-13.87-1.6-19.91-5.52-4.16-2.71-5.71-12.32-7.08-20.8-.33-2.05-.67-4.17-1-6.15a28.11,28.11,0,0,1,.85-15.08,43.9,43.9,0,0,0,1.15-4.68c.62-3.59.52-9.41.33-14.85a14.91,14.91,0,0,0,4.11-3,17,17,0,0,0,2.3-2.89c.8-1.2,1-1.42,1.68-1.56a19.91,19.91,0,0,1,2.87-.33,11,11,0,0,0,3.72-.7m.54-2.56c-2.48,1.69-4,.93-7.52,1.63-2.5.5-2.5,2.5-5,5a12.28,12.28,0,0,1-4.74,3.09c.2,5.71.37,12.14-.26,15.84-1,5.85-4,9.75-2,20.47s3,24.36,9,28.25,12,5.85,21,5.85c10.05,0,21-1,24-3.9s11-14.61,12-23.38a178.2,178.2,0,0,0,1.38-22l-.49-.08c-5.74-.93-9.39-14.55-15.12-17.68-5.06-2.76-21.35-9.88-29.27-11a3.93,3.93,0,0,1-3-2.13Z"/><path class="cls-3" d="M256.53,366.91c0,.07,0,.14,0,.21s0-.14,0-.21Zm0,.21c0,.07,0,.14,0,.21s0-.14,0-.21Z"/><path class="cls-3" d="M257.71,362.62l-.07.18.07-.18Zm-.07.18c0,.13-.09.26-.13.39,0-.13.09-.26.13-.39Z"/><path class="cls-3" d="M258.22,361.3l-.07.15.07-.15Zm-.07.15c-.06.14-.11.28-.17.43.06-.14.11-.29.17-.43Z"/><path class="cls-3" d="M284.79,344.26a20.14,20.14,0,0,1,9.79,2.78l.15.08a8.24,8.24,0,0,0,.42,3.62c1.53,4.66,6,10.69,9.14,13.38a6.33,6.33,0,0,0,4.13,1.59,6.94,6.94,0,0,0,4.07-1.42,6.13,6.13,0,0,0,.8-.71,67.06,67.06,0,0,1,3.24,10.1c1.87,7.53.08,19.18-3.92,25.42l-1,1.56c-2.54,4-2.86,4.34-4.32,4.34a17.5,17.5,0,0,1-2.59-.28c-2.16-.35-4.56-4.38-6.68-7.93-2.3-3.85-4.67-7.82-7.81-9.53-5-2.74-21.7-10.06-29.94-11.24-.57-.08-1.3-.35-1.78-1.74-1.5-4.31,1.1-13.34,4.06-16.46,5.58-5.89,10.81-10.24,14-11.65a20.2,20.2,0,0,1,8.27-1.91m0-2a22.23,22.23,0,0,0-9.08,2.08c-4.17,1.87-10.3,7.57-14.6,12.1C256.63,361.16,253,377,260,378c7.92,1.13,24.21,8.25,29.27,11,5.73,3.13,9.38,16.75,15.12,17.68a18.17,18.17,0,0,0,2.91.31c3,0,3.69-1.65,7-6.82,4.18-6.51,6.26-18.61,4.18-27-1.86-7.46-3.72-12-6.32-16.16.79,2.08.9,4.38-.83,5.64a5,5,0,0,1-2.9,1,4.4,4.4,0,0,1-2.84-1.11c-2.86-2.44-7.08-8.08-8.54-12.49a5.64,5.64,0,0,1,0-4l-1.53-.79a22.36,22.36,0,0,0-10.73-3Z"/><path class="cls-2" d="M234,385c-3.76-2.09-2-16,0-22a26.48,26.48,0,0,1,12-14c1.95-1.08,3.57-2.13,5.42-3.14-2.6-2.87-6.41-3.25-11.33-2s-11.67,4.56-15.53,11.13-5.88,22.44-8.51,35.21-2.56,36-2.93,38.94c-.28,2.2,16.46,4.91,26.26,4.27"/><path class="cls-3" d="M267.39,343.09a24.79,24.79,0,0,1,5.31.61c-4.86,3-10.58,8.77-13,11.37-3.49,3.67-6.8,13.63-5.15,19.81a9.52,9.52,0,0,1-2,.25,24,24,0,0,0-3.4.41,6.26,6.26,0,0,0-4.22,3.26,14.86,14.86,0,0,1-1.8,2.29c-1.32,1.31-3.34,2.87-5.55,2.87a5.17,5.17,0,0,1-2.57-.71c-.38-.21-1.41-2.08-1.13-7.69a50.3,50.3,0,0,1,2.06-11.93A24.42,24.42,0,0,1,247,350.75c1-.55,1.89-1.09,2.76-1.6a42.71,42.71,0,0,1,11.82-5.23,20.92,20.92,0,0,1,5.84-.83m0-2A23.22,23.22,0,0,0,261,342c-7.75,2.21-10.5,4.5-15,7a26.48,26.48,0,0,0-12,14c-2,6-3.76,19.91,0,22a7.24,7.24,0,0,0,3.54,1c3,0,5.46-2,7-3.46,2.5-2.5,2.5-4.5,5-5,3.49-.7,5,.06,7.53-1.63-2.56-4.7.48-15.64,4.08-19.43,4.3-4.53,10.43-10.23,14.6-12.1a27.5,27.5,0,0,1,2.93-1.11A5.32,5.32,0,0,0,278,343a38.72,38.72,0,0,0-10.61-1.91Z"/></g><g id="Layer_3" data-name="Layer 3"><path class="cls-3" d="M915.5,807.5c0,4,2,23,2,28s-18,8-18,3v-29C899.5,802.5,915.5,802.5,915.5,807.5Z"/><path class="cls-3" d="M742.5,808.5v30c0,5-19,7-19,0v-31C723.5,801.5,742.5,803.5,742.5,808.5Z"/><path class="cls-1" d="M811.83,537.48c-1.27,4.21-1.57,45.51.67,48,1,1.1,10,0,10-1.11,0-1.56,1.67-40.61.33-45.4"/><path class="cls-3" d="M900.72,601.87c7.35,0,10.64.48,12,.82,1.28,11.89,5.75,76.37,5.75,80.81,0,.59,0,2.47.06,5.59,1.14,88.19-.25,110-1.17,115.23-11,2.22-73.12,4.18-82.89,4.18-3.46,0-41.08-1-71.32-1.88l-38.71-1.06c-.75-4.6-2.3-18.53-4.82-60.67-1.82-30.35-3.15-58.75-3.15-61.39,0-1.83-.76-6.52-2.35-16.11-1.67-10.12-4-24-5.35-35.88-1.9-16.24-1.21-21.26-.78-22.71,6.62-1.93,44.13-3.31,91-3.31h1.11c1.46,0,4.63.06,8.63.13,7.47.13,17.69.31,26.19.31,10.46,0,13.46-.28,14.81-.49,3.88-.6,32.35-3.57,51-3.57h0m0-4c-18.53,0-47.29,3-51.58,3.62a135.94,135.94,0,0,1-14.2.44c-13.1,0-30.58-.43-34.82-.44H799c-11.65,0-86.79.17-93.51,4-7,4,7,72,7,78s6,126,9,126,107,3,113,3,82-2,86-5,2-119,2-124-5-77.08-6-83c-.32-2-6.87-2.63-15.78-2.63Z"/><path class="cls-3" d="M860.34,400.61c2.74,0,4.87.09,6.38.21-2.17,7.24-8.08,26.52-14.27,46.72-19,62.11-25.41,83.12-27.27,90a255.28,255.28,0,0,1-26.49-4.88c1.24-8.1,8.25-35.71,17-65.23,14-47.15,21.65-62.48,24-64.15,4.21-1.66,11.91-2.64,20.63-2.64m0-3c-7.12,0-16.31.68-21.84,2.89-10,4-43,124-43,134,0,1.3,27,6.12,31.4,6.12.39,0,.6,0,.6-.12,0-2.24,43-141,43-142,0-.45-4.4-.89-10.16-.89Z"/><path class="cls-3" d="M867.62,585.75c27.47,0,45.1.29,49.26.58,1.5,2,4,8.28,3.18,11.57-.16.63-.3.66-.53.72C914,600,859,601.77,829.64,601.77c-8.07,0-10.82-.16-11.74-.25s-2.7-.15-5.22-.15c-15.67,0-60.74,2-87.67,3.19-10.09.45-18.37.82-21.42.91a22.27,22.27,0,0,1-1.68-7.48,21.91,21.91,0,0,1,.41-7.41c.86,0,2.15.08,4.23.08,20.25,0,102.47-3.19,108.61-4.21,2.11-.34,21.21-.7,52.46-.7m0-4c-24.87,0-50.12.25-53.12.75-5.35.89-86.25,4.16-108,4.16a44.84,44.84,0,0,1-5-.16l-.36,0c-5.56,0-3.54,23,1.36,23,4.55,0,87.61-4.13,110.18-4.13,2.26,0,3.91,0,4.82.13,1.84.18,6.19.27,12.14.27,26.46,0,84.33-1.64,90.86-3.27,8-2,1-19-2-20-1.5-.5-26-.75-50.88-.75Z"/><path class="cls-2" d="M868.5,399.5c1,0,10,0,11,3s-40,140-42,140-11-1-11-2"/></g></svg>